<svg width="120" height="121" viewBox="0 0 120 121" fill="none" xmlns="http://www.w3.org/2000/svg">
<circle cx="60" cy="60.8828" r="60" fill="url(#paint0_linear_108_1296)"/>
<mask id="mask0_108_1296" style="mask-type:alpha" maskUnits="userSpaceOnUse" x="0" y="0" width="120" height="121">
<circle cx="60" cy="60.8809" r="60" fill="#D9D9D9"/>
</mask>
<g mask="url(#mask0_108_1296)">
<path d="M40.3633 128.864C41.1705 116.868 40.1125 112.374 41.1889 111.411L78.9243 107.756C85.7639 126.977 78.7511 143.027 78.9243 166.128C82.6978 193.958 82.5803 210.36 83.2223 219.194H67.7743C68.2026 216.247 65.125 195.552 64.1839 170.845C61.1178 155.515 60.5148 128.979 59.8516 130.544C59.3509 131.724 59.4669 163.298 56.8726 170.491C54.2783 177.685 56.985 213.336 56.8726 219.194H37.5859C37.7878 214.677 39.6837 184.878 42.7746 164.359C43.5193 159.415 39.556 140.86 40.3633 128.864Z" fill="#4D84A4"/>
<path d="M21.3325 44.9605C22.1904 45.2465 22.1904 49.8218 22.1904 50.9656C22.1904 51.851 22.2646 53.1243 22.7623 54.3971C22.9076 54.7687 22.8354 54.8842 23.0554 55.3244C23.3414 55.8963 23.1889 56.4459 23.2874 56.6847C24.3168 59.1814 27.2885 66.6699 28.7674 70.4108L29.3393 71.5546L24.764 76.4159C22.4763 70.6967 17.8438 59.2012 17.615 58.9724C17.3863 58.7436 16.8489 58.0869 16.8489 57.515C16.8489 56.9431 16.8489 57.1499 15.8993 56.1129C14.9337 55.0584 13.6116 53.2532 13.0397 52.6813C12.4678 52.1094 12.4678 49.5358 12.4678 48.9639C12.4678 48.392 12.7537 48.106 13.3256 47.82C13.8976 47.5341 13.3256 47.2481 13.6116 46.6762C13.8976 46.1043 14.4695 46.9622 14.4695 45.5324C14.4695 44.3885 15.4227 44.2932 15.8993 44.3885C16.0899 44.3885 16.2996 44.217 15.6133 43.5307C14.7554 42.6728 13.3256 38.3835 13.3256 37.5256C13.3256 36.6677 14.1835 36.0958 14.4695 36.9537C14.6982 37.64 17.4244 42.0056 18.7589 44.1026L21.3325 44.9605Z" fill="#F7D0C8"/>
<path d="M37.3494 58.5452C38.722 55.8 40.0183 56.4482 40.4949 57.1154C41.9247 67.6959 44.7843 89.4287 44.7843 91.7164C44.7843 94.0041 40.2089 97.8168 37.9213 99.4373C31.9161 101.439 20.1919 82.8517 19.334 75.9887C23.0514 69.1257 27.9127 65.6942 28.4846 65.6942C29.0566 65.6942 35.0617 71.4134 35.6336 71.4134C36.2055 71.4134 35.6336 61.9767 37.3494 58.5452Z" fill="#EAC35B"/>
<path d="M39.1554 56.8315L55.169 50.5404C60.2021 49.6253 66.6073 50.1591 69.1808 50.5404C75.4718 51.5889 87.8252 54.0291 86.9102 55.4017C85.7663 57.1175 79.1893 108.876 78.9033 110.02C78.6174 111.164 67.305 112.698 61.7458 113.165C58.8623 113.408 44.6637 111.99 42.015 111.164C39.3663 110.337 37.9421 106.448 39.1554 104.301C40.0991 102.63 42.015 80.852 40.8711 79.4222C39.7273 77.9924 41.443 71.1294 42.015 69.9856C42.4725 69.0705 40.2992 60.8349 39.1554 56.8315Z" fill="url(#paint1_linear_108_1296)"/>
<g filter="url(#filter0_d_108_1296)">
<path d="M49.6514 50.255L54.7986 47.3954L71.3842 45.6797C72.7187 46.9188 75.3876 49.9119 75.3876 51.9708C75.3876 54.0297 67.1901 65.0295 63.0914 70.2721C67.3808 80.8526 65.3791 87.4296 63.6633 87.4296C62.2907 87.4296 60.8037 78.4696 60.2318 73.9896C59.7743 76.2772 57.0863 84.57 54.7986 87.4296C53.426 83.3118 56.8956 74.2755 58.802 70.2721L49.6514 50.255Z" fill="#F3CE69"/>
</g>
<path d="M61.2411 74.2372C61.6586 72.6791 63.2602 71.7545 64.8183 72.172L82.1381 76.8128C83.7713 77.2504 84.6928 78.9792 84.1457 80.5791L76.185 103.858C75.7974 104.992 74.7572 105.774 73.5608 105.831L56.5021 106.646C54.5258 106.741 53.0294 104.884 53.5415 102.973L61.2411 74.2372Z" fill="url(#paint2_linear_108_1296)"/>
<path d="M83.395 106.585C78.1334 107.272 71.8126 97.4565 71.5266 96.3127C71.2406 95.1689 71.2402 94.5969 72.956 94.3109C74.6717 94.025 79.533 96.5986 82.1066 98.8863C84.1655 100.716 83.8716 104.774 83.395 106.585Z" fill="#E8BE4F"/>
<path d="M68.5145 95.723C69.0864 96.5809 69.3724 98.8686 71.0881 98.8686C74.6149 97.3434 82.0688 93.8357 83.6701 92.0056C85.6719 89.7179 90.5331 91.1477 90.2472 93.4354C89.9612 95.723 87.9595 102.586 66.7986 104.302C55.6462 104.302 53.6445 98.2966 53.6445 96.5809C53.6445 94.8651 56.5041 91.1477 56.7901 93.4354C57.076 95.723 65.9409 96.009 63.3673 94.8651C61.3084 93.9501 61.1749 92.0056 61.3655 91.1477C61.3655 90.5758 62.2234 90.5758 62.5094 91.1477C62.7953 91.7196 63.6532 92.5775 65.083 93.1494C66.5128 93.7213 67.9426 94.8651 68.5145 95.723Z" fill="#F7D0C8"/>
<path d="M86.2411 54.259C77.3192 53.5727 81.0949 70.082 82.5246 78.2794C83.2705 84.8565 66.7963 95.437 72.8015 96.2949C77.6056 96.9812 82.5251 106.589 83.3822 106.589C84.2393 106.589 90.988 98.5825 91.6743 97.4387C92.5321 96.0089 91.1024 85.7144 90.8164 81.4251C90.5304 77.1357 93.676 55.1169 86.2411 54.259Z" fill="#F4D06F"/>
<path d="M58.1457 51.5194L57.3701 37.3012L68.4861 34.9746L67.7106 48.6757L60.9893 61.6013L58.1457 51.5194Z" fill="url(#paint3_linear_108_1296)"/>
<path d="M58.1942 39.9423C58.8932 36.3213 60.4213 32.6626 58.8491 29.4032C57.3203 27.6301 51.8983 25.7838 49.7218 30.8634C47.5318 35.9744 48.9917 38.7417 48.9917 42.9114C48.9917 47.6576 50.4521 49.4831 43.5159 53.8642C38.5292 57.014 43.1513 68.1024 44.9763 63.3566C46.8014 58.6107 50.7597 59.2058 56.6589 53.4994C59.0292 51.2067 57.3206 44.4685 58.1942 39.9423Z" fill="url(#paint4_linear_108_1296)"/>
<ellipse cx="51.3029" cy="31.8697" rx="2.06809" ry="4.3947" transform="rotate(-8.89629 51.3029 31.8697)" fill="#F5BEB5"/>
<path d="M67.7273 45.8336C67.7273 42.111 66.0042 32.4771 67.7276 29.5473C69.1925 28.0824 75.6383 26.9622 77.2928 32.1325C79.3609 38.5953 76.7761 40.9222 75.4825 44.7995C73.9454 49.4069 71.9508 51.8515 77.8091 59.0177C80.759 62.6261 77.2928 71.1677 76.5162 67.0315C73.4572 58.6101 72.727 65.1818 67.7271 59.5347C65.8735 57.4411 67.7273 50.4868 67.7273 45.8336Z" fill="url(#paint5_linear_108_1296)"/>
<ellipse cx="73.3262" cy="31.8718" rx="2.58512" ry="4.3947" transform="rotate(13.4592 73.3262 31.8718)" fill="#F5BEB5"/>
<path d="M61.2506 43.5074C55.1571 43.5074 51.3903 35.0832 50.6517 30.3233L49.1006 23.3189L61.6569 14.0371L74.9517 17.607L73.9177 30.3233C72.6867 34.1313 67.3441 43.5074 61.2506 43.5074Z" fill="#FFD4CB"/>
<path d="M60.393 32.8633C60.393 33.056 60.2112 33.4709 60.0001 33.8031C59.9304 33.9126 59.9295 34.0549 60.0074 34.1587L60.393 34.6729" stroke="#292E34" stroke-width="0.35377" stroke-linecap="round"/>
<path d="M62.7994 37.0469H59.1786C58.9402 37.0469 58.7651 37.2724 58.8509 37.4949C59.1258 38.2085 59.6955 39.0472 60.8223 39.0472C61.9539 39.0472 62.7486 38.2011 63.1026 37.4855C63.2083 37.2718 63.0379 37.0469 62.7994 37.0469Z" fill="url(#paint6_linear_108_1296)"/>
<mask id="mask1_108_1296" style="mask-type:alpha" maskUnits="userSpaceOnUse" x="58" y="36" width="6" height="4">
<path d="M60.8368 39.044C61.9918 39.044 62.7958 38.1627 63.1385 37.4383C63.2337 37.2372 63.0866 37.0222 62.8655 36.9983L60.9363 36.7896C60.9089 36.7867 60.8812 36.7868 60.8539 36.7901L59.1368 36.9944C58.9175 37.0205 58.7701 37.2344 58.8466 37.4416C59.1139 38.1653 59.6835 39.044 60.8368 39.044Z" fill="#D9D9D9"/>
</mask>
<g mask="url(#mask1_108_1296)">
<rect x="57.7909" y="35.8856" width="6.09551" height="1.84543" fill="white" stroke="#292E34" stroke-width="0.35377"/>
</g>
<path d="M60.8249 39.0452C61.9999 39.0452 62.8116 38.1331 63.1439 37.402C63.2298 37.2131 63.1026 37.0133 62.8966 36.9881C62.5215 36.9423 61.8517 36.8834 60.8249 36.8708C59.828 36.8585 59.2732 36.918 58.9817 36.9708C58.8115 37.0016 58.7244 37.1654 58.7799 37.3292C59.0313 38.071 59.6105 39.0452 60.8249 39.0452Z" stroke="#292E34" stroke-width="0.35377" stroke-linecap="round"/>
<ellipse cx="57.1212" cy="31.6161" rx="0.775535" ry="1.03405" fill="#292E34"/>
<ellipse cx="56.5791" cy="34.159" rx="1.41508" ry="1.06131" fill="#E1745F" fill-opacity="0.8"/>
<ellipse cx="65.7715" cy="34.159" rx="1.41508" ry="1.06131" fill="#E1745F" fill-opacity="0.8"/>
<ellipse cx="65.3878" cy="31.6161" rx="0.775535" ry="1.03405" fill="#292E34"/>
<path d="M58.9286 26.1888C57.7222 25.9303 55.942 25.9509 54.2754 27.3266" stroke="#292E34" stroke-width="0.35377" stroke-linecap="round"/>
<path d="M69.1255 27.2181C67.9424 25.9483 66.2269 25.6624 64.1095 26.4209" stroke="#292E34" stroke-width="0.35377" stroke-linecap="round"/>
<path d="M59.5537 15.6307C61.0369 15.3758 67.7106 16.2428 67.7106 18.69C67.7105 18.69 67.7104 18.69 67.7102 18.69L64.0031 17.925C61.7576 17.6349 59.0716 17.5809 58.0707 17.9251C56.2911 18.5369 58.3178 16.6504 59.5537 15.6307Z" fill="#0A0401"/>
<path d="M73.8 33.4523C68.0553 34.0799 67.1272 19.2282 65.8506 17.3455C64.8294 15.8394 64.3478 17.0261 63.7091 17.6537C62.007 16.6078 60.2331 13.2036 65.8502 11.6975C72.8715 9.81475 73.8673 16.4684 76.5122 20.4806C78.8637 24.0475 79.5447 32.8247 73.8 33.4523Z" fill="url(#paint7_linear_108_1296)"/>
<path d="M57.2358 19.2299C62.2087 14.2937 63.3786 17.2593 63.8749 17.752L66.1702 11.8394C51.2796 4.44905 46.38 24.5447 46.8309 31.1093C47.0398 34.1506 51.272 35.6789 52.4565 34.5126C59.7053 27.3746 53.5132 22.9251 57.2358 19.2299Z" fill="url(#paint8_linear_108_1296)"/>
<circle cx="73.066" cy="36.5269" r="1.29256" fill="white"/>
<circle cx="51.0533" cy="36.5269" r="1.29256" fill="white"/>
<path d="M21.3325 44.9605C22.1904 45.2465 22.1904 49.8218 22.1904 50.9656C22.1904 51.851 22.2646 53.1243 22.7623 54.3971C22.9076 54.7687 22.8354 54.8842 23.0554 55.3244C23.3414 55.8963 23.1889 56.4459 23.2874 56.6847C24.3168 59.1814 27.2885 66.6699 28.7674 70.4108L29.3393 71.5546L24.764 76.4159C22.4763 70.6967 17.8438 59.2012 17.615 58.9724C17.3863 58.7436 16.8489 58.0869 16.8489 57.515C16.8489 56.9431 16.8489 57.1499 15.8993 56.1129C14.9337 55.0584 13.6116 53.2532 13.0397 52.6813C12.4678 52.1094 12.4678 49.5358 12.4678 48.9639C12.4678 48.392 12.7537 48.106 13.3256 47.82C13.8976 47.5341 13.3256 47.2481 13.6116 46.6762C13.8976 46.1043 14.4695 46.9622 14.4695 45.5324C14.4695 44.3885 15.4227 44.2932 15.8993 44.3885C16.0899 44.3885 16.2996 44.217 15.6133 43.5307C14.7554 42.6728 13.3256 38.3835 13.3256 37.5256C13.3256 36.6677 14.1835 36.0958 14.4695 36.9537C14.6982 37.64 17.4244 42.0056 18.7589 44.1026L21.3325 44.9605Z" fill="#F7D0C8"/>
<path d="M37.3494 58.5452C38.722 55.8 40.0183 56.4482 40.4949 57.1154C41.9247 67.6959 44.7843 89.4287 44.7843 91.7164C44.7843 94.0041 40.2089 97.8168 37.9213 99.4373C31.9161 101.439 20.1919 82.8517 19.334 75.9887C23.0514 69.1257 27.9127 65.6942 28.4846 65.6942C29.0566 65.6942 35.0617 71.4134 35.6336 71.4134C36.2055 71.4134 35.6336 61.9767 37.3494 58.5452Z" fill="#EAC35B"/>
<path d="M39.1554 56.8315L55.169 50.5404C60.2021 49.6253 66.6073 50.1591 69.1808 50.5404C75.4718 51.5889 87.8252 54.0291 86.9102 55.4017C85.7663 57.1175 79.1893 108.876 78.9033 110.02C78.6174 111.164 67.305 112.698 61.7458 113.165C58.8623 113.408 44.6637 111.99 42.015 111.164C39.3663 110.337 37.9421 106.448 39.1554 104.301C40.0991 102.63 42.015 80.852 40.8711 79.4222C39.7273 77.9924 41.443 71.1294 42.015 69.9856C42.4725 69.0705 40.2992 60.8349 39.1554 56.8315Z" fill="url(#paint9_linear_108_1296)"/>
<g filter="url(#filter1_d_108_1296)">
<path d="M49.6514 50.255L54.7986 47.3954L71.3842 45.6797C72.7187 46.9188 75.3876 49.9119 75.3876 51.9708C75.3876 54.0297 67.1901 65.0295 63.0914 70.2721C67.3808 80.8526 65.3791 87.4296 63.6633 87.4296C62.2907 87.4296 60.8037 78.4696 60.2318 73.9896C59.7743 76.2772 57.0863 84.57 54.7986 87.4296C53.426 83.3118 56.8956 74.2755 58.802 70.2721L49.6514 50.255Z" fill="#F3CE69"/>
</g>
<path d="M61.2411 74.2372C61.6586 72.6791 63.2602 71.7545 64.8183 72.172L82.1381 76.8128C83.7713 77.2504 84.6928 78.9792 84.1457 80.5791L76.185 103.858C75.7974 104.992 74.7572 105.774 73.5608 105.831L56.5021 106.646C54.5258 106.741 53.0294 104.884 53.5415 102.973L61.2411 74.2372Z" fill="url(#paint10_linear_108_1296)"/>
<path d="M83.395 106.585C78.1334 107.272 71.8126 97.4565 71.5266 96.3127C71.2406 95.1689 71.2402 94.5969 72.956 94.3109C74.6717 94.025 79.533 96.5986 82.1066 98.8863C84.1655 100.716 83.8716 104.774 83.395 106.585Z" fill="#E8BE4F"/>
<path d="M68.5145 95.723C69.0864 96.5809 69.3724 98.8686 71.0881 98.8686C74.6149 97.3434 82.0688 93.8357 83.6701 92.0056C85.6719 89.7179 90.5331 91.1477 90.2472 93.4354C89.9612 95.723 87.9595 102.586 66.7986 104.302C55.6462 104.302 53.6445 98.2966 53.6445 96.5809C53.6445 94.8651 56.5041 91.1477 56.7901 93.4354C57.076 95.723 65.9409 96.009 63.3673 94.8651C61.3084 93.9501 61.1749 92.0056 61.3655 91.1477C61.3655 90.5758 62.2234 90.5758 62.5094 91.1477C62.7953 91.7196 63.6532 92.5775 65.083 93.1494C66.5128 93.7213 67.9426 94.8651 68.5145 95.723Z" fill="#F7D0C8"/>
<path d="M86.2411 54.259C77.3192 53.5727 81.0949 70.082 82.5246 78.2794C83.2705 84.8565 66.7963 95.437 72.8015 96.2949C77.6056 96.9812 82.5251 106.589 83.3822 106.589C84.2393 106.589 90.988 98.5825 91.6743 97.4387C92.5321 96.0089 91.1024 85.7144 90.8164 81.4251C90.5304 77.1357 93.676 55.1169 86.2411 54.259Z" fill="#F4D06F"/>
<path d="M58.1457 51.5194L57.3701 37.3012L68.4861 34.9746L67.7106 48.6757L60.9893 61.6013L58.1457 51.5194Z" fill="url(#paint11_linear_108_1296)"/>
<path d="M58.1942 39.9423C58.8932 36.3213 60.4213 32.6626 58.8491 29.4032C57.3203 27.6301 51.8983 25.7838 49.7218 30.8634C47.5318 35.9744 48.9917 38.7417 48.9917 42.9114C48.9917 47.6576 50.4521 49.4831 43.5159 53.8642C38.5292 57.014 43.1513 68.1024 44.9763 63.3566C46.8014 58.6107 50.7597 59.2058 56.6589 53.4994C59.0292 51.2067 57.3206 44.4685 58.1942 39.9423Z" fill="url(#paint12_linear_108_1296)"/>
<ellipse cx="51.3029" cy="31.8697" rx="2.06809" ry="4.3947" transform="rotate(-8.89629 51.3029 31.8697)" fill="#F5BEB5"/>
<path d="M67.7273 45.8336C67.7273 42.111 66.0042 32.4771 67.7276 29.5473C69.1925 28.0824 75.6383 26.9622 77.2928 32.1325C79.3609 38.5953 76.7761 40.9222 75.4825 44.7995C73.9454 49.4069 71.9508 51.8515 77.8091 59.0177C80.759 62.6261 77.2928 71.1677 76.5162 67.0315C73.4572 58.6101 72.727 65.1818 67.7271 59.5347C65.8735 57.4411 67.7273 50.4868 67.7273 45.8336Z" fill="url(#paint13_linear_108_1296)"/>
<ellipse cx="73.3262" cy="31.8718" rx="2.58512" ry="4.3947" transform="rotate(13.4592 73.3262 31.8718)" fill="#F5BEB5"/>
<path d="M61.2506 43.5074C55.1571 43.5074 51.3903 35.0832 50.6517 30.3233L49.1006 23.3189L61.6569 14.0371L74.9517 17.607L73.9177 30.3233C72.6867 34.1313 67.3441 43.5074 61.2506 43.5074Z" fill="#FFD4CB"/>
<path d="M60.393 32.8633C60.393 33.056 60.2112 33.4709 60.0001 33.8031C59.9304 33.9126 59.9295 34.0549 60.0074 34.1587L60.393 34.6729" stroke="#292E34" stroke-width="0.35377" stroke-linecap="round"/>
<path d="M62.7994 37.0469H59.1786C58.9402 37.0469 58.7651 37.2724 58.8509 37.4949C59.1258 38.2085 59.6955 39.0472 60.8223 39.0472C61.9539 39.0472 62.7486 38.2011 63.1026 37.4855C63.2083 37.2718 63.0379 37.0469 62.7994 37.0469Z" fill="url(#paint14_linear_108_1296)"/>
<mask id="mask2_108_1296" style="mask-type:alpha" maskUnits="userSpaceOnUse" x="58" y="36" width="6" height="4">
<path d="M60.8368 39.044C61.9918 39.044 62.7958 38.1627 63.1385 37.4383C63.2337 37.2372 63.0866 37.0222 62.8655 36.9983L60.9363 36.7896C60.9089 36.7867 60.8812 36.7868 60.8539 36.7901L59.1368 36.9944C58.9175 37.0205 58.7701 37.2344 58.8466 37.4416C59.1139 38.1653 59.6835 39.044 60.8368 39.044Z" fill="#D9D9D9"/>
</mask>
<g mask="url(#mask2_108_1296)">
<rect x="57.7909" y="35.8856" width="6.09551" height="1.84543" fill="white" stroke="#292E34" stroke-width="0.35377"/>
</g>
<path d="M60.8249 39.0452C61.9999 39.0452 62.8116 38.1331 63.1439 37.402C63.2298 37.2131 63.1026 37.0133 62.8966 36.9881C62.5215 36.9423 61.8517 36.8834 60.8249 36.8708C59.828 36.8585 59.2732 36.918 58.9817 36.9708C58.8115 37.0016 58.7244 37.1654 58.7799 37.3292C59.0313 38.071 59.6105 39.0452 60.8249 39.0452Z" stroke="#292E34" stroke-width="0.35377" stroke-linecap="round"/>
<ellipse cx="57.1212" cy="31.6161" rx="0.775535" ry="1.03405" fill="#292E34"/>
<ellipse cx="56.5791" cy="34.159" rx="1.41508" ry="1.06131" fill="#E1745F" fill-opacity="0.8"/>
<ellipse cx="65.7715" cy="34.159" rx="1.41508" ry="1.06131" fill="#E1745F" fill-opacity="0.8"/>
<ellipse cx="65.3878" cy="31.6161" rx="0.775535" ry="1.03405" fill="#292E34"/>
<path d="M58.9286 26.1888C57.7222 25.9303 55.942 25.9509 54.2754 27.3266" stroke="#292E34" stroke-width="0.35377" stroke-linecap="round"/>
<path d="M69.1255 27.2181C67.9424 25.9483 66.2269 25.6624 64.1095 26.4209" stroke="#292E34" stroke-width="0.35377" stroke-linecap="round"/>
<path d="M59.5537 15.6307C61.0369 15.3758 67.7106 16.2428 67.7106 18.69C67.7105 18.69 67.7104 18.69 67.7102 18.69L64.0031 17.925C61.7576 17.6349 59.0716 17.5809 58.0707 17.9251C56.2911 18.5369 58.3178 16.6504 59.5537 15.6307Z" fill="#0A0401"/>
<path d="M73.8 33.4523C68.0553 34.0799 67.1272 19.2282 65.8506 17.3455C64.8294 15.8394 64.3478 17.0261 63.7091 17.6537C62.007 16.6078 60.2331 13.2036 65.8502 11.6975C72.8715 9.81475 73.8673 16.4684 76.5122 20.4806C78.8637 24.0475 79.5447 32.8247 73.8 33.4523Z" fill="url(#paint15_linear_108_1296)"/>
<path d="M57.2358 19.2299C62.2087 14.2937 63.3786 17.2593 63.8749 17.752L66.1702 11.8394C51.2796 4.44905 46.38 24.5447 46.8309 31.1093C47.0398 34.1506 51.272 35.6789 52.4565 34.5126C59.7053 27.3746 53.5132 22.9251 57.2358 19.2299Z" fill="url(#paint16_linear_108_1296)"/>
<circle cx="73.066" cy="36.5269" r="1.29256" fill="white"/>
<circle cx="51.0533" cy="36.5269" r="1.29256" fill="white"/>
</g>
<defs>
<filter id="filter0_d_108_1296" x="48.191" y="45.6797" width="28.6571" height="44.6707" filterUnits="userSpaceOnUse" color-interpolation-filters="sRGB">
<feFlood flood-opacity="0" result="BackgroundImageFix"/>
<feColorMatrix in="SourceAlpha" type="matrix" values="0 0 0 0 0 0 0 0 0 0 0 0 0 0 0 0 0 0 127 0" result="hardAlpha"/>
<feOffset dy="1.46037"/>
<feGaussianBlur stdDeviation="0.730184"/>
<feComposite in2="hardAlpha" operator="out"/>
<feColorMatrix type="matrix" values="0 0 0 0 0.575 0 0 0 0 0.463459 0 0 0 0 0.162917 0 0 0 0.2 0"/>
<feBlend mode="normal" in2="BackgroundImageFix" result="effect1_dropShadow_108_1296"/>
<feBlend mode="normal" in="SourceGraphic" in2="effect1_dropShadow_108_1296" result="shape"/>
</filter>
<filter id="filter1_d_108_1296" x="48.191" y="45.6797" width="28.6571" height="44.6707" filterUnits="userSpaceOnUse" color-interpolation-filters="sRGB">
<feFlood flood-opacity="0" result="BackgroundImageFix"/>
<feColorMatrix in="SourceAlpha" type="matrix" values="0 0 0 0 0 0 0 0 0 0 0 0 0 0 0 0 0 0 127 0" result="hardAlpha"/>
<feOffset dy="1.46037"/>
<feGaussianBlur stdDeviation="0.730184"/>
<feComposite in2="hardAlpha" operator="out"/>
<feColorMatrix type="matrix" values="0 0 0 0 0.575 0 0 0 0 0.463459 0 0 0 0 0.162917 0 0 0 0.2 0"/>
<feBlend mode="normal" in2="BackgroundImageFix" result="effect1_dropShadow_108_1296"/>
<feBlend mode="normal" in="SourceGraphic" in2="effect1_dropShadow_108_1296" result="shape"/>
</filter>
<linearGradient id="paint0_linear_108_1296" x1="60" y1="0.882812" x2="60" y2="120.883" gradientUnits="userSpaceOnUse">
<stop stop-color="#0075FF"/>
<stop offset="1" stop-color="#B4D7FF"/>
</linearGradient>
<linearGradient id="paint1_linear_108_1296" x1="62.8684" y1="50.0352" x2="62.8684" y2="113.41" gradientUnits="userSpaceOnUse">
<stop stop-color="#F4D06F"/>
<stop offset="1" stop-color="#EEC452"/>
</linearGradient>
<linearGradient id="paint2_linear_108_1296" x1="73.5771" y1="74.5189" x2="64.086" y2="109.94" gradientUnits="userSpaceOnUse">
<stop stop-color="white"/>
<stop offset="0.0001" stop-color="#F1F1F1"/>
<stop offset="0.119792" stop-color="#D9D9D9"/>
<stop offset="1" stop-color="#787878"/>
</linearGradient>
<linearGradient id="paint3_linear_108_1296" x1="62.9281" y1="38.5938" x2="62.9281" y2="46.8661" gradientUnits="userSpaceOnUse">
<stop stop-color="#B97D74"/>
<stop offset="1" stop-color="#F5BEB5"/>
</linearGradient>
<linearGradient id="paint4_linear_108_1296" x1="55.6999" y1="21.7909" x2="48.2518" y2="60.3772" gradientUnits="userSpaceOnUse">
<stop stop-color="#120802"/>
<stop offset="1" stop-color="#754C31"/>
</linearGradient>
<linearGradient id="paint5_linear_108_1296" x1="72.4232" y1="28.3203" x2="72.4232" y2="67.9895" gradientUnits="userSpaceOnUse">
<stop stop-color="#120802"/>
<stop offset="1" stop-color="#754C31"/>
</linearGradient>
<linearGradient id="paint6_linear_108_1296" x1="60.8223" y1="37.3054" x2="60.8223" y2="39.0472" gradientUnits="userSpaceOnUse">
<stop stop-color="#CE3D21"/>
<stop offset="1" stop-color="#F2A99B"/>
</linearGradient>
<linearGradient id="paint7_linear_108_1296" x1="70.5641" y1="11.4493" x2="70.5641" y2="33.6813" gradientUnits="userSpaceOnUse">
<stop stop-color="#342216"/>
<stop offset="0.359375" stop-color="#4A2E1C"/>
<stop offset="0.723958" stop-color="#342216"/>
</linearGradient>
<linearGradient id="paint8_linear_108_1296" x1="56.0882" y1="10.4156" x2="46.7992" y2="33.0514" gradientUnits="userSpaceOnUse">
<stop stop-color="#342216"/>
<stop offset="0.364583" stop-color="#412D1F"/>
<stop offset="0.744792" stop-color="#342216"/>
</linearGradient>
<linearGradient id="paint9_linear_108_1296" x1="62.8684" y1="50.0352" x2="62.8684" y2="113.41" gradientUnits="userSpaceOnUse">
<stop stop-color="#F4D06F"/>
<stop offset="1" stop-color="#EEC452"/>
</linearGradient>
<linearGradient id="paint10_linear_108_1296" x1="73.5771" y1="74.5189" x2="64.086" y2="109.94" gradientUnits="userSpaceOnUse">
<stop stop-color="white"/>
<stop offset="0.0001" stop-color="#F1F1F1"/>
<stop offset="0.119792" stop-color="#D9D9D9"/>
<stop offset="1" stop-color="#787878"/>
</linearGradient>
<linearGradient id="paint11_linear_108_1296" x1="62.9281" y1="38.5938" x2="62.9281" y2="46.8661" gradientUnits="userSpaceOnUse">
<stop stop-color="#B97D74"/>
<stop offset="1" stop-color="#F5BEB5"/>
</linearGradient>
<linearGradient id="paint12_linear_108_1296" x1="55.6999" y1="21.7909" x2="48.2518" y2="60.3772" gradientUnits="userSpaceOnUse">
<stop stop-color="#120802"/>
<stop offset="1" stop-color="#754C31"/>
</linearGradient>
<linearGradient id="paint13_linear_108_1296" x1="72.4232" y1="28.3203" x2="72.4232" y2="67.9895" gradientUnits="userSpaceOnUse">
<stop stop-color="#120802"/>
<stop offset="1" stop-color="#754C31"/>
</linearGradient>
<linearGradient id="paint14_linear_108_1296" x1="60.8223" y1="37.3054" x2="60.8223" y2="39.0472" gradientUnits="userSpaceOnUse">
<stop stop-color="#CE3D21"/>
<stop offset="1" stop-color="#F2A99B"/>
</linearGradient>
<linearGradient id="paint15_linear_108_1296" x1="70.5641" y1="11.4493" x2="70.5641" y2="33.6813" gradientUnits="userSpaceOnUse">
<stop stop-color="#342216"/>
<stop offset="0.359375" stop-color="#4A2E1C"/>
<stop offset="0.723958" stop-color="#342216"/>
</linearGradient>
<linearGradient id="paint16_linear_108_1296" x1="56.0882" y1="10.4156" x2="46.7992" y2="33.0514" gradientUnits="userSpaceOnUse">
<stop stop-color="#342216"/>
<stop offset="0.364583" stop-color="#412D1F"/>
<stop offset="0.744792" stop-color="#342216"/>
</linearGradient>
</defs>
</svg>
