<svg width="414" height="868" viewBox="0 0 414 868" fill="none" xmlns="http://www.w3.org/2000/svg">
<g clip-path="url(#clip0_108_889)">
<rect x="12" y="12" width="390" height="844" rx="60" fill="white"/>
<path d="M34.0977 146L28.4375 126.203H32.9219L36.2578 140.039H36.4219L40.0586 126.203H43.9141L47.5508 140.066H47.7148L51.0508 126.203H55.5352L49.875 146H45.8555L42.082 132.93H41.918L38.1172 146H34.0977ZM57.5586 146V131.152H61.6055V146H57.5586ZM57.3672 127.16C57.3672 126.012 58.3652 125.096 59.582 125.082C60.7852 125.096 61.7832 126.012 61.7695 127.16C61.7832 128.281 60.7852 129.211 59.582 129.211C58.3652 129.211 57.3672 128.281 57.3672 127.16ZM72.5703 131.152V134.188H69.7812V141.434C69.7676 142.623 70.3555 142.91 71.1758 142.938C71.5859 142.938 72.2969 142.896 72.7891 142.855V146.055C72.3516 146.123 71.627 146.205 70.6289 146.191C67.7031 146.205 65.707 144.893 65.7344 142.008V134.188H63.6836V131.152H65.7344V127.598H69.7812V131.152H72.5703ZM79.4883 137.414V146H75.4414V126.203H79.3789V133.75H79.543C80.2266 132.014 81.7168 130.961 83.9727 130.961C87.0762 130.961 89.1133 133.053 89.1133 136.539V146H85.0664V137.25C85.0664 135.404 84.082 134.324 82.3867 134.324C80.6777 134.324 79.4883 135.459 79.4883 137.414ZM101.062 151.578C100.27 151.564 99.5312 151.551 99.0117 151.496V148.352C99.5312 148.393 100.146 148.406 100.652 148.406C101.459 148.406 102.102 148.324 102.594 147.039L102.84 146.41L97.5078 131.152H101.746L104.863 142.09H105.027L108.172 131.152H112.465L106.668 147.641C105.82 150.033 104.193 151.564 101.062 151.578ZM120.613 146.301C116.129 146.287 113.326 143.211 113.34 138.617C113.326 134.037 116.129 130.961 120.613 130.961C125.111 130.961 127.9 134.037 127.914 138.617C127.9 143.211 125.111 146.287 120.613 146.301ZM117.441 138.617C117.441 141.215 118.521 143.143 120.641 143.156C122.705 143.143 123.799 141.215 123.785 138.617C123.799 136.006 122.705 134.051 120.641 134.051C118.521 134.051 117.441 136.006 117.441 138.617ZM139.973 139.684V131.152H144.02V146H140.137V143.32H139.973C139.303 145.043 137.703 146.191 135.461 146.191C132.494 146.191 130.457 144.086 130.457 140.613V131.152H134.504V139.902C134.504 141.666 135.516 142.76 137.102 142.773C138.578 142.76 139.973 141.707 139.973 139.684ZM147.164 146V131.152H151.074V133.723H151.238C151.771 131.904 153.152 130.934 154.82 130.934C155.23 130.934 155.75 130.988 156.105 131.07V134.68C155.723 134.557 154.943 134.461 154.383 134.461C152.551 134.461 151.197 135.732 151.211 137.551V146H147.164ZM178.309 131.152L173.086 146H168.547L163.352 131.152H167.617L170.734 141.816H170.898L174.016 131.152H178.309ZM186.457 146.301C181.973 146.287 179.17 143.211 179.184 138.617C179.17 134.037 181.973 130.961 186.457 130.961C190.955 130.961 193.744 134.037 193.758 138.617C193.744 143.211 190.955 146.287 186.457 146.301ZM183.285 138.617C183.285 141.215 184.365 143.143 186.484 143.156C188.549 143.143 189.643 141.215 189.629 138.617C189.643 136.006 188.549 134.051 186.484 134.051C184.365 134.051 183.285 136.006 183.285 138.617ZM196.301 146V131.152H200.348V146H196.301ZM196.109 127.16C196.109 126.012 197.107 125.096 198.324 125.082C199.527 125.096 200.525 126.012 200.512 127.16C200.525 128.281 199.527 129.211 198.324 129.211C197.107 129.211 196.109 128.281 196.109 127.16ZM210.164 146.301C205.611 146.287 202.877 143.143 202.891 138.617C202.877 134.078 205.666 130.961 210.164 130.961C213.992 130.961 216.59 133.189 216.754 136.594H212.953C212.707 135.131 211.75 134.119 210.219 134.105C208.277 134.119 206.992 135.746 206.992 138.562C206.992 141.434 208.25 143.074 210.219 143.074C211.641 143.074 212.693 142.186 212.953 140.613H216.754C216.576 143.977 214.102 146.287 210.164 146.301ZM225.996 146.301C221.443 146.287 218.654 143.348 218.668 138.645C218.654 134.064 221.484 130.961 225.832 130.961C229.729 130.961 232.805 133.422 232.805 138.48V139.629H222.66C222.66 141.871 223.986 143.252 226.078 143.266C227.459 143.252 228.443 142.65 228.84 141.762H232.695C232.121 144.51 229.66 146.287 225.996 146.301ZM222.66 137.086H228.977C228.963 135.281 227.719 133.982 225.914 133.996C224.055 133.982 222.742 135.377 222.66 137.086ZM29.668 182V162.203H37.4336C41.9316 162.203 44.5156 164.979 44.5156 168.875C44.5156 172.826 41.8906 175.547 37.3242 175.547H33.7695V182H29.668ZM33.7695 172.238H36.668C39.1016 172.238 40.291 170.871 40.2773 168.875C40.291 166.906 39.1016 165.58 36.668 165.566H33.7695V172.238ZM51.0781 162.203V182H47.0312V162.203H51.0781ZM60.9492 182.301C56.3965 182.287 53.6074 179.348 53.6211 174.645C53.6074 170.064 56.4375 166.961 60.7852 166.961C64.6816 166.961 67.7578 169.422 67.7578 174.48V175.629H57.6133C57.6133 177.871 58.9395 179.252 61.0312 179.266C62.4121 179.252 63.3965 178.65 63.793 177.762H67.6484C67.0742 180.51 64.6133 182.287 60.9492 182.301ZM57.6133 173.086H63.9297C63.916 171.281 62.6719 169.982 60.8672 169.996C59.0078 169.982 57.6953 171.377 57.6133 173.086ZM69.5898 177.844C69.6035 174.535 72.2559 173.455 75.1133 173.277C76.1797 173.209 78.1758 173.113 78.8047 173.086V171.883C78.791 170.639 77.9434 169.928 76.4258 169.914C75.0449 169.928 74.1836 170.543 73.9648 171.555H70.1094C70.3555 168.984 72.5977 166.961 76.5352 166.961C79.7754 166.961 82.8379 168.41 82.8242 171.992V182H78.9961V179.949H78.8867C78.1621 181.316 76.7402 182.287 74.5391 182.273C71.6953 182.287 69.6035 180.783 69.5898 177.844ZM73.4727 177.734C73.4727 178.869 74.3887 179.471 75.6875 179.484C77.5332 179.471 78.8184 178.268 78.8047 176.695V175.615C78.1895 175.643 76.4531 175.738 75.7695 175.793C74.3613 175.916 73.4727 176.586 73.4727 177.734ZM94.3906 171.555C94.2129 170.516 93.3105 169.846 91.957 169.832C90.6445 169.846 89.6465 170.461 89.6602 171.363C89.6465 172.033 90.166 172.553 91.5742 172.84L94.2266 173.387C97.1113 173.988 98.5059 175.273 98.5195 177.406C98.5059 180.332 95.8809 182.287 91.9297 182.301C87.9238 182.287 85.5723 180.496 85.2305 177.598H89.3047C89.4961 178.76 90.4395 179.361 91.9297 179.375C93.4062 179.361 94.3906 178.773 94.3906 177.816C94.3906 177.051 93.7617 176.572 92.3672 176.285L89.9062 175.793C87.0762 175.232 85.627 173.783 85.6406 171.582C85.627 168.738 88.0742 166.961 91.9023 166.961C95.6484 166.961 97.9727 168.738 98.1914 171.555H94.3906ZM107.734 182.301C103.182 182.287 100.393 179.348 100.406 174.645C100.393 170.064 103.223 166.961 107.57 166.961C111.467 166.961 114.543 169.422 114.543 174.48V175.629H104.398C104.398 177.871 105.725 179.252 107.816 179.266C109.197 179.252 110.182 178.65 110.578 177.762H114.434C113.859 180.51 111.398 182.287 107.734 182.301ZM104.398 173.086H110.715C110.701 171.281 109.457 169.982 107.652 169.996C105.793 169.982 104.48 171.377 104.398 173.086ZM123.621 182V162.203H127.668V169.641H127.777C128.338 168.438 129.514 166.961 132.016 166.961C135.297 166.961 138.045 169.504 138.059 174.59C138.045 179.553 135.406 182.246 132.016 182.246C129.596 182.246 128.365 180.852 127.777 179.621H127.613V182H123.621ZM127.586 174.562C127.572 177.242 128.734 179.006 130.73 179.02C132.795 179.006 133.916 177.188 133.902 174.562C133.916 171.979 132.822 170.188 130.73 170.188C128.721 170.188 127.572 171.896 127.586 174.562ZM140.656 182V167.152H144.566V169.723H144.73C145.264 167.904 146.645 166.934 148.312 166.934C148.723 166.934 149.242 166.988 149.598 167.07V170.68C149.215 170.557 148.436 170.461 147.875 170.461C146.043 170.461 144.689 171.732 144.703 173.551V182H140.656ZM157.828 182.301C153.275 182.287 150.486 179.348 150.5 174.645C150.486 170.064 153.316 166.961 157.664 166.961C161.561 166.961 164.637 169.422 164.637 174.48V175.629H154.492C154.492 177.871 155.818 179.252 157.91 179.266C159.291 179.252 160.275 178.65 160.672 177.762H164.527C163.953 180.51 161.492 182.287 157.828 182.301ZM154.492 173.086H160.809C160.795 171.281 159.551 169.982 157.746 169.996C155.887 169.982 154.574 171.377 154.492 173.086ZM166.469 177.844C166.482 174.535 169.135 173.455 171.992 173.277C173.059 173.209 175.055 173.113 175.684 173.086V171.883C175.67 170.639 174.822 169.928 173.305 169.914C171.924 169.928 171.062 170.543 170.844 171.555H166.988C167.234 168.984 169.477 166.961 173.414 166.961C176.654 166.961 179.717 168.41 179.703 171.992V182H175.875V179.949H175.766C175.041 181.316 173.619 182.287 171.418 182.273C168.574 182.287 166.482 180.783 166.469 177.844ZM170.352 177.734C170.352 178.869 171.268 179.471 172.566 179.484C174.412 179.471 175.697 178.268 175.684 176.695V175.615C175.068 175.643 173.332 175.738 172.648 175.793C171.24 175.916 170.352 176.586 170.352 177.734ZM190.613 167.152V170.188H187.824V177.434C187.811 178.623 188.398 178.91 189.219 178.938C189.629 178.938 190.34 178.896 190.832 178.855V182.055C190.395 182.123 189.67 182.205 188.672 182.191C185.746 182.205 183.75 180.893 183.777 178.008V170.188H181.727V167.152H183.777V163.598H187.824V167.152H190.613ZM197.531 173.414V182H193.484V162.203H197.422V169.75H197.586C198.27 168.014 199.76 166.961 202.016 166.961C205.119 166.961 207.156 169.053 207.156 172.539V182H203.109V173.25C203.109 171.404 202.125 170.324 200.43 170.324C198.721 170.324 197.531 171.459 197.531 173.414ZM217 182.301C212.447 182.287 209.658 179.348 209.672 174.645C209.658 170.064 212.488 166.961 216.836 166.961C220.732 166.961 223.809 169.422 223.809 174.48V175.629H213.664C213.664 177.871 214.99 179.252 217.082 179.266C218.463 179.252 219.447 178.65 219.844 177.762H223.699C223.125 180.51 220.664 182.287 217 182.301ZM213.664 173.086H219.98C219.967 171.281 218.723 169.982 216.918 169.996C215.059 169.982 213.746 171.377 213.664 173.086Z" fill="#292E34"/>
<rect x="43" y="263" width="328" height="328" rx="164" fill="url(#paint0_radial_108_889)"/>
<g opacity="0.3">
<rect x="131" y="405" width="8" height="44" rx="4" fill="#0075FF"/>
<rect x="149" y="388" width="8" height="78" rx="4" fill="#0075FF"/>
<rect x="167" y="393.5" width="8" height="67" rx="4" fill="#0075FF"/>
<rect x="185" y="398.5" width="8" height="57" rx="4" fill="#0075FF"/>
<rect x="203" y="398.5" width="8" height="57" rx="4" fill="#0075FF"/>
<rect x="221" y="406" width="8" height="42" rx="4" fill="#0075FF"/>
<rect x="239" y="417" width="8" height="20" rx="4" fill="#0075FF"/>
<rect x="257" y="404" width="8" height="46" rx="4" fill="#0075FF"/>
<rect x="275" y="397.5" width="8" height="59" rx="4" fill="#0075FF"/>
</g>
<g filter="url(#filter0_d_108_889)">
<rect x="24.5" y="662.5" width="276" height="61" rx="11.5" stroke="#E9E9E9" shape-rendering="crispEdges"/>
<path d="M38.3311 685L36.1719 677.223H37.418L38.9326 683.238H38.9971L40.5762 677.223H41.8008L43.3799 683.238H43.4443L44.959 677.223H46.2051L44.0459 685H42.8535L41.2207 679.188H41.1562L39.5234 685H38.3311ZM48.2246 681.541V685H47.0752V677.223H48.2031V680.123H48.2783C48.5522 679.489 49.1001 679.092 50.0078 679.092C51.2056 679.092 52.0059 679.833 52.0059 681.294V685H50.8564V681.434C50.8564 680.574 50.3945 680.08 49.6211 680.08C48.8101 680.08 48.2246 680.612 48.2246 681.541ZM53.8857 687.191C53.6494 687.186 53.4185 687.181 53.2734 687.159V686.203C53.4023 686.214 53.6279 686.219 53.7891 686.225C54.1436 686.219 54.439 686.198 54.7129 685.462L54.8525 685.075L52.7148 679.167H53.9395L55.4111 683.689H55.4756L56.9473 679.167H58.1826L55.7764 685.773C55.438 686.697 54.8472 687.186 53.8857 687.191ZM63.9834 685.118C62.5762 685.113 61.5449 683.979 61.5449 682.1C61.5449 680.198 62.5923 679.092 63.9941 679.092C65.0791 679.092 65.4712 679.747 65.6807 680.112H65.7344V677.223H66.8838V685H65.7666V684.087H65.6807C65.4658 684.468 65.0469 685.113 63.9834 685.118ZM62.7158 682.078C62.7104 683.249 63.2368 684.135 64.2412 684.141C65.2188 684.135 65.7666 683.303 65.7666 682.078C65.7666 680.864 65.2295 680.064 64.2412 680.069C63.2261 680.064 62.7104 680.929 62.7158 682.078ZM70.8477 685.118C69.1934 685.118 68.1138 683.915 68.1191 682.11C68.1138 680.295 69.1934 679.092 70.8477 679.092C72.4912 679.092 73.5654 680.295 73.5654 682.11C73.5654 683.915 72.4912 685.118 70.8477 685.118ZM69.2686 682.11C69.2686 683.222 69.7788 684.162 70.8477 684.162C71.9004 684.162 72.4053 683.222 72.4053 682.11C72.4053 680.993 71.9004 680.042 70.8477 680.037C69.7788 680.042 69.2686 680.993 69.2686 682.11ZM75.8428 681.541V685H74.6934V679.167H75.7998V680.123H75.8643C76.1382 679.495 76.7129 679.092 77.583 679.092C78.7808 679.092 79.5757 679.849 79.5703 681.294V685H78.4316V681.434C78.4263 680.585 77.9697 680.08 77.1963 680.08C76.4067 680.08 75.8428 680.612 75.8428 681.541ZM81.8369 677.223V679.994H80.8916V677.223H81.8369ZM85.8975 679.167V680.08H84.7051V683.281C84.7104 683.942 85.0327 684.06 85.4033 684.065C85.5698 684.065 85.8223 684.049 85.9834 684.033V685.032C85.8276 685.054 85.5806 685.075 85.2637 685.075C84.3667 685.075 83.5557 684.581 83.5664 683.518V680.08H82.707V679.167H83.5664V677.771H84.7051V679.167H85.8975ZM90.4092 687.191C90.1729 687.186 89.9419 687.181 89.7969 687.159V686.203C89.9258 686.214 90.1514 686.219 90.3125 686.225C90.667 686.219 90.9624 686.198 91.2363 685.462L91.376 685.075L89.2383 679.167H90.4629L91.9346 683.689H91.999L93.4707 679.167H94.7061L92.2998 685.773C91.9614 686.697 91.3706 687.186 90.4092 687.191ZM97.9072 685.118C96.2529 685.118 95.1733 683.915 95.1787 682.11C95.1733 680.295 96.2529 679.092 97.9072 679.092C99.5508 679.092 100.625 680.295 100.625 682.11C100.625 683.915 99.5508 685.118 97.9072 685.118ZM96.3281 682.11C96.3281 683.222 96.8384 684.162 97.9072 684.162C98.96 684.162 99.4648 683.222 99.4648 682.11C99.4648 680.993 98.96 680.042 97.9072 680.037C96.8384 680.042 96.3281 680.993 96.3281 682.11ZM105.459 682.572V679.167H106.598V685H105.48V683.99H105.416C105.147 684.613 104.551 685.075 103.676 685.075C102.548 685.075 101.753 684.318 101.753 682.873V679.167H102.902V682.733C102.902 683.528 103.386 684.033 104.084 684.033C104.723 684.033 105.459 683.566 105.459 682.572ZM111.937 685L110.229 679.167H111.41L112.549 683.442H112.613L113.752 679.167H114.934L116.062 683.421H116.126L117.254 679.167H118.436L116.728 685H115.557L114.375 680.8H114.289L113.118 685H111.937ZM119.381 685V679.167H120.487V680.091H120.552C120.767 679.468 121.352 679.076 122.034 679.081C122.174 679.076 122.399 679.092 122.518 679.103V680.198C122.421 680.177 122.152 680.128 121.916 680.134C121.121 680.128 120.53 680.682 120.53 681.444V685H119.381ZM123.377 685V679.167H124.526V685H123.377ZM123.227 677.588C123.232 677.212 123.56 676.911 123.957 676.911C124.349 676.911 124.677 677.212 124.677 677.588C124.677 677.964 124.349 678.27 123.957 678.265C123.56 678.27 123.232 677.964 123.227 677.588ZM128.651 679.167V680.08H127.459V683.281C127.464 683.942 127.787 684.06 128.157 684.065C128.324 684.065 128.576 684.049 128.737 684.033V685.032C128.582 685.054 128.334 685.075 128.018 685.075C127.121 685.075 126.31 684.581 126.32 683.518V680.08H125.461V679.167H126.32V677.771H127.459V679.167H128.651ZM132.218 685.118C130.499 685.118 129.441 683.931 129.446 682.121C129.441 680.327 130.515 679.092 132.143 679.092C133.469 679.092 134.731 679.914 134.731 682.024V682.433H130.585C130.617 683.544 131.272 684.173 132.229 684.173C132.878 684.173 133.303 683.894 133.496 683.539H134.656C134.398 684.484 133.501 685.118 132.218 685.118ZM130.59 681.573H133.604C133.604 680.687 133.029 680.032 132.153 680.037C131.235 680.032 130.639 680.751 130.59 681.573ZM140.736 685.118C139.329 685.113 138.298 683.979 138.298 682.1C138.298 680.198 139.345 679.092 140.747 679.092C141.832 679.092 142.224 679.747 142.434 680.112H142.487V677.223H143.637V685H142.52V684.087H142.434C142.219 684.468 141.8 685.113 140.736 685.118ZM139.469 682.078C139.463 683.249 139.99 684.135 140.994 684.141C141.972 684.135 142.52 683.303 142.52 682.078C142.52 680.864 141.982 680.064 140.994 680.069C139.979 680.064 139.463 680.929 139.469 682.078ZM147.601 685.118C145.946 685.118 144.867 683.915 144.872 682.11C144.867 680.295 145.946 679.092 147.601 679.092C149.244 679.092 150.318 680.295 150.318 682.11C150.318 683.915 149.244 685.118 147.601 685.118ZM146.021 682.11C146.021 683.222 146.532 684.162 147.601 684.162C148.653 684.162 149.158 683.222 149.158 682.11C149.158 680.993 148.653 680.042 147.601 680.037C146.532 680.042 146.021 680.993 146.021 682.11ZM152.521 685L150.812 679.167H151.994L153.133 683.442H153.197L154.336 679.167H155.518L156.646 683.421H156.71L157.838 679.167H159.02L157.312 685H156.141L154.959 680.8H154.873L153.702 685H152.521ZM161.114 681.541V685H159.965V679.167H161.071V680.123H161.136C161.41 679.495 161.984 679.092 162.854 679.092C164.052 679.092 164.847 679.849 164.842 681.294V685H163.703V681.434C163.698 680.585 163.241 680.08 162.468 680.08C161.678 680.08 161.114 680.612 161.114 681.541ZM168.655 683.356C168.65 682.024 169.783 681.681 170.836 681.605C171.223 681.584 172.098 681.536 172.367 681.525L172.361 681.058C172.367 680.397 171.958 680.016 171.18 680.016C170.503 680.016 170.095 680.327 169.977 680.757H168.838C168.94 679.79 169.842 679.092 171.223 679.092C172.152 679.092 173.505 679.43 173.511 681.122V685H172.394V684.205H172.351C172.125 684.64 171.588 685.129 170.621 685.129C169.515 685.129 168.65 684.495 168.655 683.356ZM169.772 683.367C169.772 683.926 170.234 684.21 170.879 684.216C171.813 684.21 172.372 683.587 172.372 682.895L172.367 682.363C172.104 682.379 171.271 682.438 170.997 682.454C170.245 682.508 169.772 682.792 169.772 683.367ZM176.046 681.541V685H174.896V679.167H176.003V680.123H176.067C176.341 679.495 176.916 679.092 177.786 679.092C178.984 679.092 179.779 679.849 179.773 681.294V685H178.635V681.434C178.629 680.585 178.173 680.08 177.399 680.08C176.61 680.08 176.046 680.612 176.046 681.541ZM186.369 685.118C184.65 685.118 183.592 683.931 183.598 682.121C183.592 680.327 184.667 679.092 186.294 679.092C187.621 679.092 188.883 679.914 188.883 682.024V682.433H184.736C184.769 683.544 185.424 684.173 186.38 684.173C187.03 684.173 187.454 683.894 187.647 683.539H188.808C188.55 684.484 187.653 685.118 186.369 685.118ZM184.742 681.573H187.755C187.755 680.687 187.18 680.032 186.305 680.037C185.386 680.032 184.79 680.751 184.742 681.573ZM191.171 681.541V685H190.021V679.167H191.128V680.123H191.192C191.466 679.495 192.041 679.092 192.911 679.092C194.109 679.092 194.904 679.849 194.898 681.294V685H193.76V681.434C193.754 680.585 193.298 680.08 192.524 680.08C191.735 680.08 191.171 680.612 191.171 681.541ZM198.476 685.118C197.068 685.113 196.037 683.979 196.037 682.1C196.037 680.198 197.084 679.092 198.486 679.092C199.571 679.092 199.963 679.747 200.173 680.112H200.227V677.223H201.376V685H200.259V684.087H200.173C199.958 684.468 199.539 685.113 198.476 685.118ZM197.208 682.078C197.203 683.249 197.729 684.135 198.733 684.141C199.711 684.135 200.259 683.303 200.259 682.078C200.259 680.864 199.722 680.064 198.733 680.069C197.718 680.064 197.203 680.929 197.208 682.078ZM202.869 685V679.167H204.019V685H202.869ZM202.719 677.588C202.724 677.212 203.052 676.911 203.449 676.911C203.841 676.911 204.169 677.212 204.169 677.588C204.169 677.964 203.841 678.27 203.449 678.265C203.052 678.27 202.724 677.964 202.719 677.588ZM206.564 681.541V685H205.415V679.167H206.521V680.123H206.586C206.86 679.495 207.435 679.092 208.305 679.092C209.502 679.092 210.297 679.849 210.292 681.294V685H209.153V681.434C209.148 680.585 208.691 680.08 207.918 680.08C207.128 680.08 206.564 680.612 206.564 681.541ZM214.138 687.31C212.666 687.31 211.694 686.66 211.592 685.569H212.763C212.875 686.123 213.391 686.391 214.148 686.386C215.062 686.391 215.636 685.994 215.642 685.086V683.937H215.566C215.362 684.312 214.943 684.914 213.869 684.914C212.494 684.914 211.431 683.888 211.431 682.024C211.431 680.161 212.478 679.092 213.88 679.092C214.965 679.092 215.362 679.747 215.577 680.112H215.652V679.167H216.77V685.129C216.775 686.627 215.642 687.31 214.138 687.31ZM212.602 682.046C212.596 683.19 213.123 683.963 214.127 683.969C215.104 683.963 215.652 683.249 215.652 682.046C215.652 680.864 215.115 680.064 214.127 680.069C213.112 680.064 212.596 680.929 212.602 682.046ZM222.001 681.541V685H220.852V679.167H221.958V680.123H222.022C222.296 679.495 222.871 679.092 223.741 679.092C224.939 679.092 225.734 679.849 225.729 681.294V685H224.59V681.434C224.584 680.585 224.128 680.08 223.354 680.08C222.565 680.08 222.001 680.612 222.001 681.541ZM229.596 685.118C227.941 685.118 226.862 683.915 226.867 682.11C226.862 680.295 227.941 679.092 229.596 679.092C231.239 679.092 232.313 680.295 232.313 682.11C232.313 683.915 231.239 685.118 229.596 685.118ZM228.017 682.11C228.017 683.222 228.527 684.162 229.596 684.162C230.648 684.162 231.153 683.222 231.153 682.11C231.153 680.993 230.648 680.042 229.596 680.037C228.527 680.042 228.017 680.993 228.017 682.11ZM236.17 679.167V680.08H234.978V683.281C234.983 683.942 235.305 684.06 235.676 684.065C235.842 684.065 236.095 684.049 236.256 684.033V685.032C236.1 685.054 235.853 685.075 235.536 685.075C234.639 685.075 233.828 684.581 233.839 683.518V680.08H232.979V679.167H233.839V677.771H234.978V679.167H236.17ZM239.736 685.118C238.018 685.118 236.959 683.931 236.965 682.121C236.959 680.327 238.034 679.092 239.661 679.092C240.988 679.092 242.25 679.914 242.25 682.024V682.433H238.104C238.136 683.544 238.791 684.173 239.747 684.173C240.397 684.173 240.821 683.894 241.015 683.539H242.175C241.917 684.484 241.02 685.118 239.736 685.118ZM238.109 681.573H241.122C241.122 680.687 240.547 680.032 239.672 680.037C238.753 680.032 238.157 680.751 238.109 681.573ZM247.224 677.223V685H246.074V677.223H247.224ZM248.62 685V679.167H249.77V685H248.62ZM248.47 677.588C248.475 677.212 248.803 676.911 249.2 676.911C249.592 676.911 249.92 677.212 249.92 677.588C249.92 677.964 249.592 678.27 249.2 678.265C248.803 678.27 248.475 677.964 248.47 677.588ZM251.166 685V677.223H252.315V681.627H252.412L254.722 679.167H256.097L253.739 681.67L256.258 685H254.851L252.869 682.379L252.315 682.927V685H251.166ZM259.266 685.118C257.547 685.118 256.489 683.931 256.494 682.121C256.489 680.327 257.563 679.092 259.19 679.092C260.517 679.092 261.779 679.914 261.779 682.024V682.433H257.633C257.665 683.544 258.32 684.173 259.276 684.173C259.926 684.173 260.351 683.894 260.544 683.539H261.704C261.446 684.484 260.549 685.118 259.266 685.118ZM257.638 681.573H260.651C260.651 680.687 260.077 680.032 259.201 680.037C258.283 680.032 257.687 680.751 257.638 681.573ZM268.332 679.167V680.08H267.14V683.281C267.145 683.942 267.467 684.06 267.838 684.065C268.004 684.065 268.257 684.049 268.418 684.033V685.032C268.262 685.054 268.015 685.075 267.698 685.075C266.801 685.075 265.99 684.581 266.001 683.518V680.08H265.142V679.167H266.001V677.771H267.14V679.167H268.332ZM270.728 681.541V685H269.578V677.223H270.706V680.123H270.781C271.055 679.489 271.603 679.092 272.511 679.092C273.708 679.092 274.509 679.833 274.509 681.294V685H273.359V681.434C273.359 680.574 272.897 680.08 272.124 680.08C271.313 680.08 270.728 680.612 270.728 681.541ZM275.895 685V679.167H277.044V685H275.895ZM275.744 677.588C275.75 677.212 276.077 676.911 276.475 676.911C276.867 676.911 277.194 677.212 277.194 677.588C277.194 677.964 276.867 678.27 276.475 678.265C276.077 678.27 275.75 677.964 275.744 677.588ZM281.717 680.757C281.609 680.295 281.244 679.994 280.61 679.994C279.955 679.994 279.488 680.333 279.493 680.778C279.488 681.122 279.762 681.369 280.406 681.52L281.33 681.734C282.404 681.976 282.925 682.486 282.931 683.313C282.925 684.366 282.034 685.118 280.546 685.118C279.144 685.118 278.317 684.495 278.172 683.41H279.343C279.445 683.937 279.842 684.2 280.535 684.194C281.276 684.2 281.754 683.888 281.76 683.399C281.754 683.023 281.475 682.782 280.857 682.637L279.944 682.443C278.892 682.212 278.344 681.648 278.344 680.843C278.344 679.806 279.246 679.092 280.6 679.092C281.899 679.092 282.71 679.752 282.823 680.757H281.717ZM285.283 682.69C285.299 681.283 285.713 680.854 286.422 680.413C286.873 680.139 287.217 679.742 287.217 679.178C287.217 678.506 286.701 678.082 286.057 678.082C285.477 678.082 284.913 678.437 284.864 679.231H283.704C283.747 677.862 284.778 677.115 286.057 677.115C287.453 677.115 288.388 677.953 288.388 679.178C288.388 680.042 287.974 680.617 287.292 681.036C286.647 681.428 286.395 681.815 286.379 682.69V682.755H285.283V682.69ZM285.111 684.312C285.106 683.894 285.455 683.55 285.874 683.55C286.288 683.55 286.631 683.894 286.637 684.312C286.631 684.731 286.288 685.07 285.874 685.075C285.455 685.07 285.106 684.731 285.111 684.312Z" fill="#292E34" fill-opacity="0.6"/>
<path d="M38.7168 708L36.2031 698.809H37.3584L39.2754 706.248H39.3643L41.3066 698.809H42.5889L44.5439 706.248H44.6201L46.5371 698.809H47.6924L45.1787 708H43.998L41.9922 700.726H41.916L39.8975 708H38.7168ZM49.8633 703.861V708H48.7715V698.809H49.8633V702.186H49.9521C50.2759 701.475 50.8916 701.018 51.9834 701.018C53.3926 701.018 54.332 701.849 54.332 703.62V708H53.2402V703.696C53.2402 702.611 52.6436 701.995 51.6533 701.995C50.625 701.995 49.8633 702.668 49.8633 703.861ZM55.7539 706.045C55.7539 704.464 57.1504 704.103 58.3438 704.014C58.7881 703.982 59.8989 703.918 60.21 703.912V703.354C60.21 702.478 59.6895 701.97 58.6484 701.97C57.7788 701.97 57.252 702.37 57.0996 702.896H55.957C56.0967 701.786 57.1758 701.018 58.6992 701.018C59.6006 701.018 61.2954 701.284 61.2891 703.455V708H60.21V707.061H60.1592C59.9307 707.524 59.3022 708.159 58.1025 708.165C56.7949 708.159 55.7539 707.391 55.7539 706.045ZM56.8457 706.096C56.8521 706.826 57.4551 707.194 58.293 707.188C59.5244 707.194 60.21 706.369 60.21 705.499V704.807C59.8862 704.826 58.8008 704.909 58.4707 704.928C57.4805 704.991 56.8521 705.34 56.8457 706.096ZM66.0498 701.106V702.021H64.6025V706.02C64.5962 706.902 65.0405 707.048 65.5039 707.048C65.7007 707.048 65.9927 707.029 66.1514 707.022V708.038C65.98 708.063 65.7134 708.089 65.3896 708.089C64.4692 708.089 63.5044 707.518 63.498 706.299V702.021H62.457V701.106H63.498V699.456H64.6025V701.106H66.0498ZM73.3242 708.14C71.604 708.146 70.3916 706.762 70.3916 704.572C70.3916 702.389 71.604 701.018 73.3369 701.018C74.6763 701.018 75.0952 701.83 75.3301 702.198H75.4062V698.809H76.5107V708H75.4443V706.946H75.3301C75.0889 707.327 74.6382 708.146 73.3242 708.14ZM71.4961 704.547C71.4961 706.013 72.1689 707.162 73.4766 707.162C74.7397 707.162 75.438 706.096 75.4443 704.547C75.438 703.017 74.7588 701.995 73.4766 701.995C72.1499 701.995 71.4961 703.106 71.4961 704.547ZM81.2207 708.14C79.3418 708.146 78.0723 706.724 78.0723 704.585C78.0723 702.433 79.3418 701.018 81.2207 701.018C83.0933 701.018 84.3501 702.433 84.3438 704.585C84.3501 706.724 83.0933 708.146 81.2207 708.14ZM79.1641 704.585C79.1704 705.962 79.8179 707.175 81.2207 707.175C82.6108 707.175 83.252 705.962 83.252 704.585C83.252 703.214 82.6108 701.982 81.2207 701.982C79.8179 701.982 79.1704 703.214 79.1641 704.585ZM89.7393 710.59C89.5044 710.583 89.2695 710.577 89.1299 710.564V709.587C89.2441 709.6 89.4917 709.606 89.6631 709.612C90.1074 709.606 90.4819 709.581 90.8438 708.571L91.0469 708.051L88.4951 701.106H89.6885L91.5674 706.578H91.6436L93.5225 701.106H94.7158L91.7959 708.99C91.3896 710.076 90.7168 710.583 89.7393 710.59ZM98.4863 708.14C96.6074 708.146 95.3379 706.724 95.3379 704.585C95.3379 702.433 96.6074 701.018 98.4863 701.018C100.359 701.018 101.616 702.433 101.609 704.585C101.616 706.724 100.359 708.146 98.4863 708.14ZM96.4297 704.585C96.436 705.962 97.0835 707.175 98.4863 707.175C99.8765 707.175 100.518 705.962 100.518 704.585C100.518 703.214 99.8765 701.982 98.4863 701.982C97.0835 701.982 96.436 703.214 96.4297 704.585ZM107.398 705.169V701.106H108.478V708H107.398V706.832H107.322C106.999 707.53 106.313 708.089 105.278 708.089C103.971 708.089 103.038 707.238 103.044 705.486V701.106H104.136V705.41C104.136 706.4 104.751 707.042 105.634 707.035C106.415 707.042 107.392 706.458 107.398 705.169ZM115.041 708L112.946 701.106H114.102L115.574 706.362H115.638L117.098 701.106H118.266L119.7 706.337H119.776L121.249 701.106H122.392L120.297 708H119.218L117.72 702.744H117.618L116.133 708H115.041ZM123.268 706.045C123.268 704.464 124.664 704.103 125.857 704.014C126.302 703.982 127.413 703.918 127.724 703.912V703.354C127.724 702.478 127.203 701.97 126.162 701.97C125.292 701.97 124.766 702.37 124.613 702.896H123.471C123.61 701.786 124.689 701.018 126.213 701.018C127.114 701.018 128.809 701.284 128.803 703.455V708H127.724V707.061H127.673C127.444 707.524 126.816 708.159 125.616 708.165C124.309 708.159 123.268 707.391 123.268 706.045ZM124.359 706.096C124.366 706.826 124.969 707.194 125.807 707.188C127.038 707.194 127.724 706.369 127.724 705.499V704.807C127.4 704.826 126.314 704.909 125.984 704.928C124.994 704.991 124.366 705.34 124.359 706.096ZM131.646 703.861V708H130.555V701.106H131.608V702.186H131.697C132.021 701.481 132.668 701.018 133.716 701.018C135.112 701.018 136.045 701.868 136.039 703.62V708H134.947V703.696C134.947 702.63 134.363 701.995 133.386 701.995C132.383 701.995 131.646 702.668 131.646 703.861ZM140.8 701.106V702.021H139.353V706.02C139.346 706.902 139.791 707.048 140.254 707.048C140.451 707.048 140.743 707.029 140.901 707.022V708.038C140.73 708.063 140.463 708.089 140.14 708.089C139.219 708.089 138.254 707.518 138.248 706.299V702.021H137.207V701.106H138.248V699.456H139.353V701.106H140.8ZM148.48 701.106V702.021H147.033V706.02C147.027 706.902 147.471 707.048 147.935 707.048C148.131 707.048 148.423 707.029 148.582 707.022V708.038C148.411 708.063 148.144 708.089 147.82 708.089C146.9 708.089 145.935 707.518 145.929 706.299V702.021H144.888V701.106H145.929V699.456H147.033V701.106H148.48ZM152.632 708.14C150.753 708.146 149.483 706.724 149.483 704.585C149.483 702.433 150.753 701.018 152.632 701.018C154.504 701.018 155.761 702.433 155.755 704.585C155.761 706.724 154.504 708.146 152.632 708.14ZM150.575 704.585C150.582 705.962 151.229 707.175 152.632 707.175C154.022 707.175 154.663 705.962 154.663 704.585C154.663 703.214 154.022 701.982 152.632 701.982C151.229 701.982 150.582 703.214 150.575 704.585ZM164.286 702.896C164.134 702.325 163.696 701.951 162.89 701.944C162.039 701.951 161.436 702.408 161.43 702.985C161.436 703.442 161.804 703.753 162.61 703.95L163.639 704.204C164.87 704.496 165.473 705.112 165.479 706.07C165.473 707.264 164.502 708.146 162.775 708.14C161.227 708.146 160.306 707.454 160.122 706.197H161.265C161.392 706.87 161.88 707.194 162.75 707.188C163.734 707.194 164.35 706.781 164.35 706.134C164.35 705.645 164 705.328 163.22 705.144L162.179 704.902C160.979 704.623 160.338 703.969 160.338 703.049C160.338 701.868 161.373 701.018 162.89 701.018C164.318 701.018 165.213 701.779 165.353 702.896H164.286ZM166.571 706.045C166.571 704.464 167.968 704.103 169.161 704.014C169.605 703.982 170.716 703.918 171.027 703.912V703.354C171.027 702.478 170.507 701.97 169.466 701.97C168.596 701.97 168.069 702.37 167.917 702.896H166.774C166.914 701.786 167.993 701.018 169.517 701.018C170.418 701.018 172.113 701.284 172.106 703.455V708H171.027V707.061H170.977C170.748 707.524 170.12 708.159 168.92 708.165C167.612 708.159 166.571 707.391 166.571 706.045ZM167.663 706.096C167.669 706.826 168.272 707.194 169.11 707.188C170.342 707.194 171.027 706.369 171.027 705.499V704.807C170.704 704.826 169.618 704.909 169.288 704.928C168.298 704.991 167.669 705.34 167.663 706.096ZM174.303 710.59C174.068 710.583 173.833 710.577 173.693 710.564V709.587C173.808 709.6 174.055 709.606 174.227 709.612C174.671 709.606 175.045 709.581 175.407 708.571L175.61 708.051L173.059 701.106H174.252L176.131 706.578H176.207L178.086 701.106H179.279L176.359 708.99C175.953 710.076 175.28 710.583 174.303 710.59ZM186.757 701.106V702.021H185.31V706.02C185.303 706.902 185.748 707.048 186.211 707.048C186.408 707.048 186.7 707.029 186.858 707.022V708.038C186.687 708.063 186.42 708.089 186.097 708.089C185.176 708.089 184.211 707.518 184.205 706.299V702.021H183.164V701.106H184.205V699.456H185.31V701.106H186.757ZM190.908 708.14C189.029 708.146 187.76 706.724 187.76 704.585C187.76 702.433 189.029 701.018 190.908 701.018C192.781 701.018 194.038 702.433 194.031 704.585C194.038 706.724 192.781 708.146 190.908 708.14ZM188.852 704.585C188.858 705.962 189.505 707.175 190.908 707.175C192.298 707.175 192.939 705.962 192.939 704.585C192.939 703.214 192.298 701.982 190.908 701.982C189.505 701.982 188.858 703.214 188.852 704.585ZM199.427 710.59C199.192 710.583 198.957 710.577 198.817 710.564V709.587C198.932 709.6 199.179 709.606 199.351 709.612C199.795 709.606 200.169 709.581 200.531 708.571L200.734 708.051L198.183 701.106H199.376L201.255 706.578H201.331L203.21 701.106H204.403L201.483 708.99C201.077 710.076 200.404 710.583 199.427 710.59ZM208.174 708.14C206.295 708.146 205.025 706.724 205.025 704.585C205.025 702.433 206.295 701.018 208.174 701.018C210.046 701.018 211.303 702.433 211.297 704.585C211.303 706.724 210.046 708.146 208.174 708.14ZM206.117 704.585C206.124 705.962 206.771 707.175 208.174 707.175C209.564 707.175 210.205 705.962 210.205 704.585C210.205 703.214 209.564 701.982 208.174 701.982C206.771 701.982 206.124 703.214 206.117 704.585ZM217.086 705.169V701.106H218.165V708H217.086V706.832H217.01C216.686 707.53 216 708.089 214.966 708.089C213.658 708.089 212.725 707.238 212.731 705.486V701.106H213.823V705.41C213.823 706.4 214.439 707.042 215.321 707.035C216.102 707.042 217.08 706.458 217.086 705.169ZM219.917 708V701.106H220.971V702.16H221.047C221.294 701.462 222.012 700.999 222.824 700.992C222.989 700.999 223.269 701.005 223.396 701.018V702.122C223.313 702.103 223.021 702.046 222.735 702.046C221.745 702.046 221.009 702.731 221.009 703.658V708H219.917ZM231.559 702.896C231.406 702.325 230.968 701.951 230.162 701.944C229.312 701.951 228.708 702.408 228.702 702.985C228.708 703.442 229.077 703.753 229.883 703.95L230.911 704.204C232.143 704.496 232.746 705.112 232.752 706.07C232.746 707.264 231.774 708.146 230.048 708.14C228.499 708.146 227.579 707.454 227.395 706.197H228.537C228.664 706.87 229.153 707.194 230.022 707.188C231.006 707.194 231.622 706.781 231.622 706.134C231.622 705.645 231.273 705.328 230.492 705.144L229.451 704.902C228.251 704.623 227.61 703.969 227.61 703.049C227.61 701.868 228.645 701.018 230.162 701.018C231.59 701.018 232.485 701.779 232.625 702.896H231.559ZM234.174 710.59V701.106H235.228V702.198H235.354C235.589 701.83 236.008 701.018 237.348 701.018C239.081 701.018 240.28 702.389 240.28 704.572C240.28 706.762 239.081 708.146 237.36 708.14C236.046 708.146 235.589 707.327 235.354 706.946H235.266V710.59H234.174ZM235.24 704.547C235.247 706.096 235.938 707.162 237.208 707.162C238.516 707.162 239.188 706.013 239.188 704.547C239.188 703.106 238.535 701.995 237.208 701.995C235.919 701.995 235.247 703.017 235.24 704.547ZM244.521 708.14C242.642 708.146 241.372 706.724 241.372 704.585C241.372 702.433 242.642 701.018 244.521 701.018C246.393 701.018 247.65 702.433 247.644 704.585C247.65 706.724 246.393 708.146 244.521 708.14ZM242.464 704.585C242.47 705.962 243.118 707.175 244.521 707.175C245.911 707.175 246.552 705.962 246.552 704.585C246.552 703.214 245.911 701.982 244.521 701.982C243.118 701.982 242.47 703.214 242.464 704.585ZM253.433 705.169V701.106H254.512V708H253.433V706.832H253.356C253.033 707.53 252.347 708.089 251.312 708.089C250.005 708.089 249.072 707.238 249.078 705.486V701.106H250.17V705.41C250.17 706.4 250.786 707.042 251.668 707.035C252.449 707.042 253.426 706.458 253.433 705.169ZM260.098 702.896C259.945 702.325 259.507 701.951 258.701 701.944C257.851 701.951 257.248 702.408 257.241 702.985C257.248 703.442 257.616 703.753 258.422 703.95L259.45 704.204C260.682 704.496 261.285 705.112 261.291 706.07C261.285 707.264 260.313 708.146 258.587 708.14C257.038 708.146 256.118 707.454 255.934 706.197H257.076C257.203 706.87 257.692 707.194 258.562 707.188C259.545 707.194 260.161 706.781 260.161 706.134C260.161 705.645 259.812 705.328 259.031 705.144L257.99 704.902C256.791 704.623 256.149 703.969 256.149 703.049C256.149 701.868 257.184 701.018 258.701 701.018C260.129 701.018 261.024 701.779 261.164 702.896H260.098ZM265.607 708.14C263.614 708.146 262.383 706.724 262.383 704.61C262.383 702.49 263.633 701.018 265.506 701.018C266.953 701.018 268.483 701.906 268.477 704.458V704.915H263.475C263.532 706.375 264.382 707.175 265.607 707.175C266.433 707.175 266.953 706.813 267.207 706.388H268.375C268.051 707.435 267.029 708.146 265.607 708.14ZM263.481 703.988H267.372C267.366 702.839 266.642 701.982 265.506 701.982C264.312 701.982 263.557 702.922 263.481 703.988ZM271.282 705.347C271.295 703.646 271.815 703.125 272.691 702.592C273.218 702.274 273.618 701.767 273.618 701.056C273.618 700.192 272.945 699.64 272.107 699.646C271.384 699.64 270.654 700.072 270.584 701.119H269.429C269.492 699.577 270.654 698.682 272.107 698.682C273.701 698.682 274.735 699.704 274.735 701.106C274.735 702.103 274.266 702.795 273.479 703.277C272.685 703.76 272.399 704.249 272.374 705.347V705.41H271.282V705.347ZM271.054 707.251C271.041 706.807 271.422 706.438 271.866 706.438C272.317 706.438 272.685 706.807 272.679 707.251C272.685 707.702 272.317 708.07 271.866 708.076C271.422 708.07 271.041 707.702 271.054 707.251Z" fill="#292E34"/>
</g>
<g filter="url(#filter1_d_108_889)">
<rect x="313.5" y="662.5" width="268" height="61" rx="11.5" stroke="#E9E9E9" shape-rendering="crispEdges"/>
<path d="M327.331 685L325.172 677.223H326.418L327.933 683.238H327.997L329.576 677.223H330.801L332.38 683.238H332.444L333.959 677.223H335.205L333.046 685H331.854L330.221 679.188H330.156L328.523 685H327.331ZM337.225 681.541V685H336.075V677.223H337.203V680.123H337.278C337.552 679.489 338.1 679.092 339.008 679.092C340.206 679.092 341.006 679.833 341.006 681.294V685H339.856V681.434C339.856 680.574 339.395 680.08 338.621 680.08C337.81 680.08 337.225 680.612 337.225 681.541ZM342.886 687.191C342.649 687.186 342.418 687.181 342.273 687.159V686.203C342.402 686.214 342.628 686.219 342.789 686.225C343.144 686.219 343.439 686.198 343.713 685.462L343.853 685.075L341.715 679.167H342.939L344.411 683.689H344.476L345.947 679.167H347.183L344.776 685.773C344.438 686.697 343.847 687.186 342.886 687.191ZM352.983 685.118C351.576 685.113 350.545 683.979 350.545 682.1C350.545 680.198 351.592 679.092 352.994 679.092C354.079 679.092 354.471 679.747 354.681 680.112H354.734V677.223H355.884V685H354.767V684.087H354.681C354.466 684.468 354.047 685.113 352.983 685.118ZM351.716 682.078C351.71 683.249 352.237 684.135 353.241 684.141C354.219 684.135 354.767 683.303 354.767 682.078C354.767 680.864 354.229 680.064 353.241 680.069C352.226 680.064 351.71 680.929 351.716 682.078ZM359.848 685.118C358.193 685.118 357.114 683.915 357.119 682.11C357.114 680.295 358.193 679.092 359.848 679.092C361.491 679.092 362.565 680.295 362.565 682.11C362.565 683.915 361.491 685.118 359.848 685.118ZM358.269 682.11C358.269 683.222 358.779 684.162 359.848 684.162C360.9 684.162 361.405 683.222 361.405 682.11C361.405 680.993 360.9 680.042 359.848 680.037C358.779 680.042 358.269 680.993 358.269 682.11ZM364.843 681.541V685H363.693V679.167H364.8V680.123H364.864C365.138 679.495 365.713 679.092 366.583 679.092C367.781 679.092 368.576 679.849 368.57 681.294V685H367.432V681.434C367.426 680.585 366.97 680.08 366.196 680.08C365.407 680.08 364.843 680.612 364.843 681.541ZM370.837 677.223V679.994H369.892V677.223H370.837ZM374.897 679.167V680.08H373.705V683.281C373.71 683.942 374.033 684.06 374.403 684.065C374.57 684.065 374.822 684.049 374.983 684.033V685.032C374.828 685.054 374.581 685.075 374.264 685.075C373.367 685.075 372.556 684.581 372.566 683.518V680.08H371.707V679.167H372.566V677.771H373.705V679.167H374.897ZM379.409 687.191C379.173 687.186 378.942 687.181 378.797 687.159V686.203C378.926 686.214 379.151 686.219 379.312 686.225C379.667 686.219 379.962 686.198 380.236 685.462L380.376 685.075L378.238 679.167H379.463L380.935 683.689H380.999L382.471 679.167H383.706L381.3 685.773C380.961 686.697 380.371 687.186 379.409 687.191ZM386.907 685.118C385.253 685.118 384.173 683.915 384.179 682.11C384.173 680.295 385.253 679.092 386.907 679.092C388.551 679.092 389.625 680.295 389.625 682.11C389.625 683.915 388.551 685.118 386.907 685.118ZM385.328 682.11C385.328 683.222 385.838 684.162 386.907 684.162C387.96 684.162 388.465 683.222 388.465 682.11C388.465 680.993 387.96 680.042 386.907 680.037C385.838 680.042 385.328 680.993 385.328 682.11ZM394.459 682.572V679.167H395.598V685H394.48V683.99H394.416C394.147 684.613 393.551 685.075 392.676 685.075C391.548 685.075 390.753 684.318 390.753 682.873V679.167H391.902V682.733C391.902 683.528 392.386 684.033 393.084 684.033C393.723 684.033 394.459 683.566 394.459 682.572ZM400.937 685L399.229 679.167H400.41L401.549 683.442H401.613L402.752 679.167H403.934L405.062 683.421H405.126L406.254 679.167H407.436L405.728 685H404.557L403.375 680.8H403.289L402.118 685H400.937ZM408.381 685V679.167H409.487V680.091H409.552C409.767 679.468 410.352 679.076 411.034 679.081C411.174 679.076 411.399 679.092 411.518 679.103V680.198C411.421 680.177 411.152 680.128 410.916 680.134C410.121 680.128 409.53 680.682 409.53 681.444V685H408.381ZM412.377 685V679.167H413.526V685H412.377ZM412.227 677.588C412.232 677.212 412.56 676.911 412.957 676.911C413.349 676.911 413.677 677.212 413.677 677.588C413.677 677.964 413.349 678.27 412.957 678.265C412.56 678.27 412.232 677.964 412.227 677.588ZM417.651 679.167V680.08H416.459V683.281C416.464 683.942 416.787 684.06 417.157 684.065C417.324 684.065 417.576 684.049 417.737 684.033V685.032C417.582 685.054 417.334 685.075 417.018 685.075C416.121 685.075 415.31 684.581 415.32 683.518V680.08H414.461V679.167H415.32V677.771H416.459V679.167H417.651ZM421.218 685.118C419.499 685.118 418.441 683.931 418.446 682.121C418.441 680.327 419.515 679.092 421.143 679.092C422.469 679.092 423.731 679.914 423.731 682.024V682.433H419.585C419.617 683.544 420.272 684.173 421.229 684.173C421.878 684.173 422.303 683.894 422.496 683.539H423.656C423.398 684.484 422.501 685.118 421.218 685.118ZM419.59 681.573H422.604C422.604 680.687 422.029 680.032 421.153 680.037C420.235 680.032 419.639 680.751 419.59 681.573ZM429.736 685.118C428.329 685.113 427.298 683.979 427.298 682.1C427.298 680.198 428.345 679.092 429.747 679.092C430.832 679.092 431.224 679.747 431.434 680.112H431.487V677.223H432.637V685H431.52V684.087H431.434C431.219 684.468 430.8 685.113 429.736 685.118ZM428.469 682.078C428.463 683.249 428.99 684.135 429.994 684.141C430.972 684.135 431.52 683.303 431.52 682.078C431.52 680.864 430.982 680.064 429.994 680.069C428.979 680.064 428.463 680.929 428.469 682.078ZM436.601 685.118C434.946 685.118 433.867 683.915 433.872 682.11C433.867 680.295 434.946 679.092 436.601 679.092C438.244 679.092 439.318 680.295 439.318 682.11C439.318 683.915 438.244 685.118 436.601 685.118ZM435.021 682.11C435.021 683.222 435.532 684.162 436.601 684.162C437.653 684.162 438.158 683.222 438.158 682.11C438.158 680.993 437.653 680.042 436.601 680.037C435.532 680.042 435.021 680.993 435.021 682.11ZM441.521 685L439.812 679.167H440.994L442.133 683.442H442.197L443.336 679.167H444.518L445.646 683.421H445.71L446.838 679.167H448.02L446.312 685H445.141L443.959 680.8H443.873L442.702 685H441.521ZM450.114 681.541V685H448.965V679.167H450.071V680.123H450.136C450.41 679.495 450.984 679.092 451.854 679.092C453.052 679.092 453.847 679.849 453.842 681.294V685H452.703V681.434C452.698 680.585 452.241 680.08 451.468 680.08C450.678 680.08 450.114 680.612 450.114 681.541ZM457.655 683.356C457.65 682.024 458.783 681.681 459.836 681.605C460.223 681.584 461.098 681.536 461.367 681.525L461.361 681.058C461.367 680.397 460.958 680.016 460.18 680.016C459.503 680.016 459.095 680.327 458.977 680.757H457.838C457.94 679.79 458.842 679.092 460.223 679.092C461.152 679.092 462.505 679.43 462.511 681.122V685H461.394V684.205H461.351C461.125 684.64 460.588 685.129 459.621 685.129C458.515 685.129 457.65 684.495 457.655 683.356ZM458.772 683.367C458.772 683.926 459.234 684.21 459.879 684.216C460.813 684.21 461.372 683.587 461.372 682.895L461.367 682.363C461.104 682.379 460.271 682.438 459.997 682.454C459.245 682.508 458.772 682.792 458.772 683.367ZM465.046 681.541V685H463.896V679.167H465.003V680.123H465.067C465.341 679.495 465.916 679.092 466.786 679.092C467.984 679.092 468.779 679.849 468.773 681.294V685H467.635V681.434C467.629 680.585 467.173 680.08 466.399 680.08C465.61 680.08 465.046 680.612 465.046 681.541ZM475.369 685.118C473.65 685.118 472.592 683.931 472.598 682.121C472.592 680.327 473.667 679.092 475.294 679.092C476.621 679.092 477.883 679.914 477.883 682.024V682.433H473.736C473.769 683.544 474.424 684.173 475.38 684.173C476.03 684.173 476.454 683.894 476.647 683.539H477.808C477.55 684.484 476.653 685.118 475.369 685.118ZM473.742 681.573H476.755C476.755 680.687 476.18 680.032 475.305 680.037C474.386 680.032 473.79 680.751 473.742 681.573ZM480.171 681.541V685H479.021V679.167H480.128V680.123H480.192C480.466 679.495 481.041 679.092 481.911 679.092C483.109 679.092 483.904 679.849 483.898 681.294V685H482.76V681.434C482.754 680.585 482.298 680.08 481.524 680.08C480.735 680.08 480.171 680.612 480.171 681.541ZM487.476 685.118C486.068 685.113 485.037 683.979 485.037 682.1C485.037 680.198 486.084 679.092 487.486 679.092C488.571 679.092 488.963 679.747 489.173 680.112H489.227V677.223H490.376V685H489.259V684.087H489.173C488.958 684.468 488.539 685.113 487.476 685.118ZM486.208 682.078C486.203 683.249 486.729 684.135 487.733 684.141C488.711 684.135 489.259 683.303 489.259 682.078C489.259 680.864 488.722 680.064 487.733 680.069C486.718 680.064 486.203 680.929 486.208 682.078ZM491.869 685V679.167H493.019V685H491.869ZM491.719 677.588C491.724 677.212 492.052 676.911 492.449 676.911C492.841 676.911 493.169 677.212 493.169 677.588C493.169 677.964 492.841 678.27 492.449 678.265C492.052 678.27 491.724 677.964 491.719 677.588ZM495.564 681.541V685H494.415V679.167H495.521V680.123H495.586C495.86 679.495 496.435 679.092 497.305 679.092C498.502 679.092 499.297 679.849 499.292 681.294V685H498.153V681.434C498.148 680.585 497.691 680.08 496.918 680.08C496.128 680.08 495.564 680.612 495.564 681.541ZM503.138 687.31C501.666 687.31 500.694 686.66 500.592 685.569H501.763C501.875 686.123 502.391 686.391 503.148 686.386C504.062 686.391 504.636 685.994 504.642 685.086V683.937H504.566C504.362 684.312 503.943 684.914 502.869 684.914C501.494 684.914 500.431 683.888 500.431 682.024C500.431 680.161 501.478 679.092 502.88 679.092C503.965 679.092 504.362 679.747 504.577 680.112H504.652V679.167H505.77V685.129C505.775 686.627 504.642 687.31 503.138 687.31ZM501.602 682.046C501.596 683.19 502.123 683.963 503.127 683.969C504.104 683.963 504.652 683.249 504.652 682.046C504.652 680.864 504.115 680.064 503.127 680.069C502.112 680.064 501.596 680.929 501.602 682.046ZM511.001 681.541V685H509.852V679.167H510.958V680.123H511.022C511.296 679.495 511.871 679.092 512.741 679.092C513.939 679.092 514.734 679.849 514.729 681.294V685H513.59V681.434C513.584 680.585 513.128 680.08 512.354 680.08C511.565 680.08 511.001 680.612 511.001 681.541ZM518.596 685.118C516.941 685.118 515.862 683.915 515.867 682.11C515.862 680.295 516.941 679.092 518.596 679.092C520.239 679.092 521.313 680.295 521.313 682.11C521.313 683.915 520.239 685.118 518.596 685.118ZM517.017 682.11C517.017 683.222 517.527 684.162 518.596 684.162C519.648 684.162 520.153 683.222 520.153 682.11C520.153 680.993 519.648 680.042 518.596 680.037C517.527 680.042 517.017 680.993 517.017 682.11ZM525.17 679.167V680.08H523.978V683.281C523.983 683.942 524.305 684.06 524.676 684.065C524.842 684.065 525.095 684.049 525.256 684.033V685.032C525.1 685.054 524.853 685.075 524.536 685.075C523.639 685.075 522.828 684.581 522.839 683.518V680.08H521.979V679.167H522.839V677.771H523.978V679.167H525.17ZM528.736 685.118C527.018 685.118 525.959 683.931 525.965 682.121C525.959 680.327 527.034 679.092 528.661 679.092C529.988 679.092 531.25 679.914 531.25 682.024V682.433H527.104C527.136 683.544 527.791 684.173 528.747 684.173C529.397 684.173 529.821 683.894 530.015 683.539H531.175C530.917 684.484 530.02 685.118 528.736 685.118ZM527.109 681.573H530.122C530.122 680.687 529.547 680.032 528.672 680.037C527.753 680.032 527.157 680.751 527.109 681.573ZM536.224 677.223V685H535.074V677.223H536.224ZM537.62 685V679.167H538.77V685H537.62ZM537.47 677.588C537.475 677.212 537.803 676.911 538.2 676.911C538.592 676.911 538.92 677.212 538.92 677.588C538.92 677.964 538.592 678.27 538.2 678.265C537.803 678.27 537.475 677.964 537.47 677.588ZM540.166 685V677.223H541.315V681.627H541.412L543.722 679.167H545.097L542.739 681.67L545.258 685H543.851L541.869 682.379L541.315 682.927V685H540.166ZM548.266 685.118C546.547 685.118 545.489 683.931 545.494 682.121C545.489 680.327 546.563 679.092 548.19 679.092C549.517 679.092 550.779 679.914 550.779 682.024V682.433H546.633C546.665 683.544 547.32 684.173 548.276 684.173C548.926 684.173 549.351 683.894 549.544 683.539H550.704C550.446 684.484 549.549 685.118 548.266 685.118ZM546.638 681.573H549.651C549.651 680.687 549.077 680.032 548.201 680.037C547.283 680.032 546.687 680.751 546.638 681.573ZM557.332 679.167V680.08H556.14V683.281C556.145 683.942 556.467 684.06 556.838 684.065C557.004 684.065 557.257 684.049 557.418 684.033V685.032C557.262 685.054 557.015 685.075 556.698 685.075C555.801 685.075 554.99 684.581 555.001 683.518V680.08H554.142V679.167H555.001V677.771H556.14V679.167H557.332ZM559.728 681.541V685H558.578V677.223H559.706V680.123H559.781C560.055 679.489 560.603 679.092 561.511 679.092C562.708 679.092 563.509 679.833 563.509 681.294V685H562.359V681.434C562.359 680.574 561.897 680.08 561.124 680.08C560.313 680.08 559.728 680.612 559.728 681.541ZM564.895 685V679.167H566.044V685H564.895ZM564.744 677.588C564.75 677.212 565.077 676.911 565.475 676.911C565.867 676.911 566.194 677.212 566.194 677.588C566.194 677.964 565.867 678.27 565.475 678.265C565.077 678.27 564.75 677.964 564.744 677.588ZM570.717 680.757C570.609 680.295 570.244 679.994 569.61 679.994C568.955 679.994 568.488 680.333 568.493 680.778C568.488 681.122 568.762 681.369 569.406 681.52L570.33 681.734C571.404 681.976 571.925 682.486 571.931 683.313C571.925 684.366 571.034 685.118 569.546 685.118C568.144 685.118 567.317 684.495 567.172 683.41H568.343C568.445 683.937 568.842 684.2 569.535 684.194C570.276 684.2 570.754 683.888 570.76 683.399C570.754 683.023 570.475 682.782 569.857 682.637L568.944 682.443C567.892 682.212 567.344 681.648 567.344 680.843C567.344 679.806 568.246 679.092 569.6 679.092C570.899 679.092 571.71 679.752 571.823 680.757H570.717ZM574.283 682.69C574.299 681.283 574.713 680.854 575.422 680.413C575.873 680.139 576.217 679.742 576.217 679.178C576.217 678.506 575.701 678.082 575.057 678.082C574.477 678.082 573.913 678.437 573.864 679.231H572.704C572.747 677.862 573.778 677.115 575.057 677.115C576.453 677.115 577.388 677.953 577.388 679.178C577.388 680.042 576.974 680.617 576.292 681.036C575.647 681.428 575.395 681.815 575.379 682.69V682.755H574.283V682.69ZM574.111 684.312C574.106 683.894 574.455 683.55 574.874 683.55C575.288 683.55 575.631 683.894 575.637 684.312C575.631 684.731 575.288 685.07 574.874 685.075C574.455 685.07 574.106 684.731 574.111 684.312Z" fill="#606060"/>
<path d="M327.717 708L325.203 698.809H326.358L328.275 706.248H328.364L330.307 698.809H331.589L333.544 706.248H333.62L335.537 698.809H336.692L334.179 708H332.998L330.992 700.726H330.916L328.897 708H327.717ZM338.863 703.861V708H337.771V698.809H338.863V702.186H338.952C339.276 701.475 339.892 701.018 340.983 701.018C342.393 701.018 343.332 701.849 343.332 703.62V708H342.24V703.696C342.24 702.611 341.644 701.995 340.653 701.995C339.625 701.995 338.863 702.668 338.863 703.861ZM344.754 706.045C344.754 704.464 346.15 704.103 347.344 704.014C347.788 703.982 348.899 703.918 349.21 703.912V703.354C349.21 702.478 348.689 701.97 347.648 701.97C346.779 701.97 346.252 702.37 346.1 702.896H344.957C345.097 701.786 346.176 701.018 347.699 701.018C348.601 701.018 350.295 701.284 350.289 703.455V708H349.21V707.061H349.159C348.931 707.524 348.302 708.159 347.103 708.165C345.795 708.159 344.754 707.391 344.754 706.045ZM345.846 706.096C345.852 706.826 346.455 707.194 347.293 707.188C348.524 707.194 349.21 706.369 349.21 705.499V704.807C348.886 704.826 347.801 704.909 347.471 704.928C346.48 704.991 345.852 705.34 345.846 706.096ZM355.05 701.106V702.021H353.603V706.02C353.596 706.902 354.041 707.048 354.504 707.048C354.701 707.048 354.993 707.029 355.151 707.022V708.038C354.98 708.063 354.713 708.089 354.39 708.089C353.469 708.089 352.504 707.518 352.498 706.299V702.021H351.457V701.106H352.498V699.456H353.603V701.106H355.05ZM362.324 708.14C360.604 708.146 359.392 706.762 359.392 704.572C359.392 702.389 360.604 701.018 362.337 701.018C363.676 701.018 364.095 701.83 364.33 702.198H364.406V698.809H365.511V708H364.444V706.946H364.33C364.089 707.327 363.638 708.146 362.324 708.14ZM360.496 704.547C360.496 706.013 361.169 707.162 362.477 707.162C363.74 707.162 364.438 706.096 364.444 704.547C364.438 703.017 363.759 701.995 362.477 701.995C361.15 701.995 360.496 703.106 360.496 704.547ZM370.221 708.14C368.342 708.146 367.072 706.724 367.072 704.585C367.072 702.433 368.342 701.018 370.221 701.018C372.093 701.018 373.35 702.433 373.344 704.585C373.35 706.724 372.093 708.146 370.221 708.14ZM368.164 704.585C368.17 705.962 368.818 707.175 370.221 707.175C371.611 707.175 372.252 705.962 372.252 704.585C372.252 703.214 371.611 701.982 370.221 701.982C368.818 701.982 368.17 703.214 368.164 704.585ZM378.739 710.59C378.504 710.583 378.27 710.577 378.13 710.564V709.587C378.244 709.6 378.492 709.606 378.663 709.612C379.107 709.606 379.482 709.581 379.844 708.571L380.047 708.051L377.495 701.106H378.688L380.567 706.578H380.644L382.522 701.106H383.716L380.796 708.99C380.39 710.076 379.717 710.583 378.739 710.59ZM387.486 708.14C385.607 708.146 384.338 706.724 384.338 704.585C384.338 702.433 385.607 701.018 387.486 701.018C389.359 701.018 390.616 702.433 390.609 704.585C390.616 706.724 389.359 708.146 387.486 708.14ZM385.43 704.585C385.436 705.962 386.083 707.175 387.486 707.175C388.876 707.175 389.518 705.962 389.518 704.585C389.518 703.214 388.876 701.982 387.486 701.982C386.083 701.982 385.436 703.214 385.43 704.585ZM396.398 705.169V701.106H397.478V708H396.398V706.832H396.322C395.999 707.53 395.313 708.089 394.278 708.089C392.971 708.089 392.038 707.238 392.044 705.486V701.106H393.136V705.41C393.136 706.4 393.751 707.042 394.634 707.035C395.415 707.042 396.392 706.458 396.398 705.169ZM404.041 708L401.946 701.106H403.102L404.574 706.362H404.638L406.098 701.106H407.266L408.7 706.337H408.776L410.249 701.106H411.392L409.297 708H408.218L406.72 702.744H406.618L405.133 708H404.041ZM412.268 706.045C412.268 704.464 413.664 704.103 414.857 704.014C415.302 703.982 416.413 703.918 416.724 703.912V703.354C416.724 702.478 416.203 701.97 415.162 701.97C414.292 701.97 413.766 702.37 413.613 702.896H412.471C412.61 701.786 413.689 701.018 415.213 701.018C416.114 701.018 417.809 701.284 417.803 703.455V708H416.724V707.061H416.673C416.444 707.524 415.816 708.159 414.616 708.165C413.309 708.159 412.268 707.391 412.268 706.045ZM413.359 706.096C413.366 706.826 413.969 707.194 414.807 707.188C416.038 707.194 416.724 706.369 416.724 705.499V704.807C416.4 704.826 415.314 704.909 414.984 704.928C413.994 704.991 413.366 705.34 413.359 706.096ZM420.646 703.861V708H419.555V701.106H420.608V702.186H420.697C421.021 701.481 421.668 701.018 422.716 701.018C424.112 701.018 425.045 701.868 425.039 703.62V708H423.947V703.696C423.947 702.63 423.363 701.995 422.386 701.995C421.383 701.995 420.646 702.668 420.646 703.861ZM429.8 701.106V702.021H428.353V706.02C428.346 706.902 428.791 707.048 429.254 707.048C429.451 707.048 429.743 707.029 429.901 707.022V708.038C429.73 708.063 429.463 708.089 429.14 708.089C428.219 708.089 427.254 707.518 427.248 706.299V702.021H426.207V701.106H427.248V699.456H428.353V701.106H429.8ZM437.48 701.106V702.021H436.033V706.02C436.027 706.902 436.471 707.048 436.935 707.048C437.131 707.048 437.423 707.029 437.582 707.022V708.038C437.411 708.063 437.144 708.089 436.82 708.089C435.9 708.089 434.935 707.518 434.929 706.299V702.021H433.888V701.106H434.929V699.456H436.033V701.106H437.48ZM441.632 708.14C439.753 708.146 438.483 706.724 438.483 704.585C438.483 702.433 439.753 701.018 441.632 701.018C443.504 701.018 444.761 702.433 444.755 704.585C444.761 706.724 443.504 708.146 441.632 708.14ZM439.575 704.585C439.582 705.962 440.229 707.175 441.632 707.175C443.022 707.175 443.663 705.962 443.663 704.585C443.663 703.214 443.022 701.982 441.632 701.982C440.229 701.982 439.582 703.214 439.575 704.585ZM452.461 701.106V702.021H451.014V706.02C451.007 706.902 451.452 707.048 451.915 707.048C452.112 707.048 452.404 707.029 452.562 707.022V708.038C452.391 708.063 452.125 708.089 451.801 708.089C450.88 708.089 449.916 707.518 449.909 706.299V702.021H448.868V701.106H449.909V699.456H451.014V701.106H452.461ZM456.688 708.14C454.695 708.146 453.464 706.724 453.464 704.61C453.464 702.49 454.714 701.018 456.587 701.018C458.034 701.018 459.564 701.906 459.558 704.458V704.915H454.556C454.613 706.375 455.463 707.175 456.688 707.175C457.514 707.175 458.034 706.813 458.288 706.388H459.456C459.132 707.435 458.11 708.146 456.688 708.14ZM454.562 703.988H458.453C458.447 702.839 457.723 701.982 456.587 701.982C455.394 701.982 454.638 702.922 454.562 703.988ZM462.071 698.809V708H460.979V698.809H462.071ZM464.902 698.809V708H463.811V698.809H464.902ZM470.603 710.59C470.368 710.583 470.133 710.577 469.993 710.564V709.587C470.107 709.6 470.355 709.606 470.526 709.612C470.971 709.606 471.345 709.581 471.707 708.571L471.91 708.051L469.358 701.106H470.552L472.431 706.578H472.507L474.386 701.106H475.579L472.659 708.99C472.253 710.076 471.58 710.583 470.603 710.59ZM479.35 708.14C477.471 708.146 476.201 706.724 476.201 704.585C476.201 702.433 477.471 701.018 479.35 701.018C481.222 701.018 482.479 702.433 482.473 704.585C482.479 706.724 481.222 708.146 479.35 708.14ZM477.293 704.585C477.299 705.962 477.947 707.175 479.35 707.175C480.74 707.175 481.381 705.962 481.381 704.585C481.381 703.214 480.74 701.982 479.35 701.982C477.947 701.982 477.299 703.214 477.293 704.585ZM488.262 705.169V701.106H489.341V708H488.262V706.832H488.186C487.862 707.53 487.176 708.089 486.142 708.089C484.834 708.089 483.901 707.238 483.907 705.486V701.106H484.999V705.41C484.999 706.4 485.615 707.042 486.497 707.035C487.278 707.042 488.255 706.458 488.262 705.169ZM491.093 708V701.106H492.146V702.16H492.223C492.47 701.462 493.188 700.999 494 700.992C494.165 700.999 494.444 701.005 494.571 701.018V702.122C494.489 702.103 494.197 702.046 493.911 702.046C492.921 702.046 492.185 702.731 492.185 703.658V708H491.093ZM498.9 708V698.809H499.992V704.153H500.119L503.103 701.106H504.448L501.541 704.058L504.664 708H503.28L500.722 704.75L499.992 705.429V708H498.9ZM505.616 708V701.106H506.708V708H505.616ZM505.4 699.24C505.394 698.834 505.743 698.51 506.162 698.517C506.581 698.51 506.93 698.834 506.937 699.24C506.93 699.64 506.581 699.964 506.162 699.964C505.743 699.964 505.394 699.64 505.4 699.24ZM511.05 708.14C509.33 708.146 508.117 706.762 508.117 704.572C508.117 702.389 509.33 701.018 511.062 701.018C512.402 701.018 512.821 701.83 513.056 702.198H513.132V698.809H514.236V708H513.17V706.946H513.056C512.814 707.327 512.364 708.146 511.05 708.14ZM509.222 704.547C509.222 706.013 509.895 707.162 511.202 707.162C512.465 707.162 513.164 706.096 513.17 704.547C513.164 703.017 512.484 701.995 511.202 701.995C509.875 701.995 509.222 703.106 509.222 704.547ZM519.962 702.896C519.81 702.325 519.372 701.951 518.565 701.944C517.715 701.951 517.112 702.408 517.105 702.985C517.112 703.442 517.48 703.753 518.286 703.95L519.314 704.204C520.546 704.496 521.149 705.112 521.155 706.07C521.149 707.264 520.178 708.146 518.451 708.14C516.902 708.146 515.982 707.454 515.798 706.197H516.94C517.067 706.87 517.556 707.194 518.426 707.188C519.41 707.194 520.025 706.781 520.025 706.134C520.025 705.645 519.676 705.328 518.896 705.144L517.854 704.902C516.655 704.623 516.014 703.969 516.014 703.049C516.014 701.868 517.048 701.018 518.565 701.018C519.994 701.018 520.889 701.779 521.028 702.896H519.962ZM523.961 705.347C523.974 703.646 524.494 703.125 525.37 702.592C525.897 702.274 526.297 701.767 526.297 701.056C526.297 700.192 525.624 699.64 524.786 699.646C524.062 699.64 523.333 700.072 523.263 701.119H522.107C522.171 699.577 523.333 698.682 524.786 698.682C526.379 698.682 527.414 699.704 527.414 701.106C527.414 702.103 526.944 702.795 526.157 703.277C525.364 703.76 525.078 704.249 525.053 705.347V705.41H523.961V705.347ZM523.732 707.251C523.72 706.807 524.101 706.438 524.545 706.438C524.996 706.438 525.364 706.807 525.357 707.251C525.364 707.702 524.996 708.07 524.545 708.076C524.101 708.07 523.72 707.702 523.732 707.251Z" fill="#292E34"/>
</g>
<circle cx="179" cy="746" r="2" fill="#00A3FF"/>
<circle cx="193" cy="746" r="2" fill="#D9D9D9"/>
<circle cx="207" cy="746" r="2" fill="#D9D9D9"/>
<circle cx="221" cy="746" r="2" fill="#D9D9D9"/>
<circle cx="235" cy="746" r="2" fill="#D9D9D9"/>
<rect width="390" height="103" transform="translate(12 757)" fill="white"/>
<path d="M48.6822 788.399V799.548H61.3185V788.399M45.709 790.629L55.0004 782.452L64.2918 790.629" stroke="#D2D6D8" stroke-width="1.85828" stroke-linecap="round" stroke-linejoin="round"/>
<path d="M37.0117 821V811.102H38.5156V815.395H43.4375V811.102H44.9414V821H43.4375V816.68H38.5156V821H37.0117ZM49.9863 821.15C47.8809 821.15 46.5068 819.619 46.5137 817.322C46.5068 815.012 47.8809 813.48 49.9863 813.48C52.0781 813.48 53.4453 815.012 53.4453 817.322C53.4453 819.619 52.0781 821.15 49.9863 821.15ZM47.9766 817.322C47.9766 818.737 48.626 819.934 49.9863 819.934C51.3262 819.934 51.9688 818.737 51.9688 817.322C51.9688 815.9 51.3262 814.69 49.9863 814.684C48.626 814.69 47.9766 815.9 47.9766 817.322ZM54.8809 821V813.576H56.2891V814.793H56.3711C56.6855 813.966 57.417 813.48 58.3945 813.48C59.3857 813.48 60.0762 813.966 60.3906 814.793H60.4727C60.8213 813.993 61.6279 813.48 62.7012 813.48C64.041 813.48 64.9912 814.321 64.998 816.023V821H63.5352V816.16C63.5352 815.155 62.9062 814.738 62.1406 814.738C61.2041 814.738 60.6641 815.381 60.6641 816.27V821H59.2148V816.078C59.2148 815.265 58.6611 814.738 57.8613 814.738C57.041 814.738 56.3438 815.422 56.3438 816.42V821H54.8809ZM69.9609 821.15C67.7734 821.15 66.4268 819.64 66.4336 817.336C66.4268 815.053 67.7939 813.48 69.8652 813.48C71.5537 813.48 73.1602 814.526 73.1602 817.213V817.732H67.8828C67.9238 819.147 68.7578 819.947 69.9746 819.947C70.8018 819.947 71.3418 819.592 71.5879 819.141H73.0645C72.7363 820.344 71.5947 821.15 69.9609 821.15ZM67.8896 816.639H71.7246C71.7246 815.511 70.9932 814.677 69.8789 814.684C68.71 814.677 67.9512 815.593 67.8896 816.639Z" fill="#D2D6D8"/>
<mask id="path-29-inside-1_108_889" fill="white">
<rect x="117.5" y="780.167" width="20" height="21.6667" rx="2.08333"/>
</mask>
<rect x="117.5" y="780.167" width="20" height="21.6667" rx="2.08333" stroke="#292E34" stroke-width="5" mask="url(#path-29-inside-1_108_889)"/>
<rect x="122.5" y="785.375" width="10" height="2.08333" rx="1.04167" fill="#292E34"/>
<rect x="122.5" y="789.958" width="10" height="2.08333" rx="1.04167" fill="#292E34"/>
<rect x="122.5" y="794.542" width="10" height="2.08333" rx="1.04167" fill="#292E34"/>
<path d="M90.5117 821V811.102H96.7188V812.4H92.0156V815.395H96.3906V816.68H92.0156V819.701H96.7734V821H90.5117ZM99.9043 816.598V821H98.4414V813.576H99.8496V814.793H99.9316C100.28 813.993 101.012 813.48 102.119 813.48C103.644 813.48 104.655 814.444 104.648 816.283V821H103.199V816.461C103.192 815.381 102.611 814.738 101.627 814.738C100.622 814.738 99.9043 815.415 99.9043 816.598ZM109.201 821.15C107.41 821.144 106.098 819.701 106.098 817.309C106.098 814.889 107.431 813.48 109.215 813.48C110.596 813.48 111.095 814.314 111.361 814.779H111.43V811.102H112.893V821H111.471V819.838H111.361C111.088 820.323 110.555 821.144 109.201 821.15ZM107.588 817.281C107.581 818.771 108.251 819.899 109.529 819.906C110.773 819.899 111.471 818.84 111.471 817.281C111.471 815.736 110.787 814.718 109.529 814.725C108.237 814.718 107.581 815.818 107.588 817.281ZM114.793 821V813.576H116.256V821H114.793ZM114.602 811.566C114.608 811.088 115.025 810.705 115.531 810.705C116.03 810.705 116.447 811.088 116.447 811.566C116.447 812.045 116.03 812.435 115.531 812.428C115.025 812.435 114.608 812.045 114.602 811.566ZM119.496 816.598V821H118.033V813.576H119.441V814.793H119.523C119.872 813.993 120.604 813.48 121.711 813.48C123.235 813.48 124.247 814.444 124.24 816.283V821H122.791V816.461C122.784 815.381 122.203 814.738 121.219 814.738C120.214 814.738 119.496 815.415 119.496 816.598ZM129.135 823.939C127.262 823.939 126.024 823.112 125.895 821.725H127.385C127.528 822.429 128.185 822.771 129.148 822.764C130.311 822.771 131.042 822.265 131.049 821.109V819.646H130.953C130.693 820.125 130.16 820.891 128.793 820.891C127.043 820.891 125.689 819.585 125.689 817.213C125.689 814.841 127.022 813.48 128.807 813.48C130.188 813.48 130.693 814.314 130.967 814.779H131.062V813.576H132.484V821.164C132.491 823.071 131.049 823.939 129.135 823.939ZM127.18 817.24C127.173 818.696 127.843 819.681 129.121 819.688C130.365 819.681 131.062 818.771 131.062 817.24C131.062 815.736 130.379 814.718 129.121 814.725C127.829 814.718 127.173 815.818 127.18 817.24ZM139.143 816.598V821H137.68V813.576H139.088V814.793H139.17C139.519 813.993 140.25 813.48 141.357 813.48C142.882 813.48 143.894 814.444 143.887 816.283V821H142.438V816.461C142.431 815.381 141.85 814.738 140.865 814.738C139.86 814.738 139.143 815.415 139.143 816.598ZM148.809 821.15C146.703 821.15 145.329 819.619 145.336 817.322C145.329 815.012 146.703 813.48 148.809 813.48C150.9 813.48 152.268 815.012 152.268 817.322C152.268 819.619 150.9 821.15 148.809 821.15ZM146.799 817.322C146.799 818.737 147.448 819.934 148.809 819.934C150.148 819.934 150.791 818.737 150.791 817.322C150.791 815.9 150.148 814.69 148.809 814.684C147.448 814.69 146.799 815.9 146.799 817.322ZM157.176 813.576V814.738H155.658V818.812C155.665 819.653 156.075 819.804 156.547 819.811C156.759 819.811 157.08 819.79 157.285 819.77V821.041C157.087 821.068 156.772 821.096 156.369 821.096C155.228 821.096 154.195 820.467 154.209 819.113V814.738H153.115V813.576H154.209V811.799H155.658V813.576H157.176ZM161.715 821.15C159.527 821.15 158.181 819.64 158.188 817.336C158.181 815.053 159.548 813.48 161.619 813.48C163.308 813.48 164.914 814.526 164.914 817.213V817.732H159.637C159.678 819.147 160.512 819.947 161.729 819.947C162.556 819.947 163.096 819.592 163.342 819.141H164.818C164.49 820.344 163.349 821.15 161.715 821.15ZM159.644 816.639H163.479C163.479 815.511 162.747 814.677 161.633 814.684C160.464 814.677 159.705 815.593 159.644 816.639Z" fill="#292E34"/>
<path d="M225.502 796.843C224.942 796.843 224.522 796.636 224.242 796.222C223.962 795.808 223.772 795.198 223.671 794.392C223.582 793.575 223.537 792.439 223.537 790.984C223.537 789.584 223.571 788.493 223.638 787.71C223.716 786.926 223.895 786.299 224.175 785.829C224.466 785.359 224.914 785.124 225.518 785.124C226.123 785.124 226.565 785.359 226.845 785.829C227.136 786.299 227.315 786.926 227.382 787.71C227.46 788.493 227.499 789.584 227.499 790.984C227.499 792.36 227.438 793.474 227.315 794.325C227.203 795.164 227.001 795.796 226.71 796.222C226.419 796.636 226.016 796.843 225.502 796.843Z" fill="#D2D6D8"/>
<path d="M220.698 796.843C220.138 796.843 219.718 796.636 219.439 796.222C219.159 795.808 218.968 795.198 218.868 794.392C218.778 793.575 218.733 792.439 218.733 790.984C218.733 789.584 218.767 788.493 218.834 787.71C218.912 786.926 219.092 786.299 219.371 785.829C219.662 785.359 220.11 785.124 220.715 785.124C221.319 785.124 221.761 785.359 222.041 785.829C222.332 786.299 222.511 786.926 222.578 787.71C222.657 788.493 222.696 789.584 222.696 790.984C222.696 792.36 222.634 793.474 222.511 794.325C222.399 795.164 222.198 795.796 221.907 796.222C221.616 796.636 221.213 796.843 220.698 796.843Z" fill="#D2D6D8"/>
<path d="M214.389 796.877C213.561 796.877 212.828 796.715 212.19 796.39C211.552 796.066 211.053 795.613 210.695 795.031C210.348 794.437 210.175 793.771 210.175 793.033C210.175 792.305 210.348 791.633 210.695 791.018C211.053 790.402 211.546 789.91 212.173 789.54C212.8 789.171 213.51 788.986 214.305 788.986C215.021 788.986 215.654 789.132 216.202 789.423C216.751 789.714 217.171 790.1 217.462 790.581C217.753 791.051 217.898 791.544 217.898 792.059C217.898 792.898 217.579 793.514 216.941 793.906C216.314 794.286 215.564 794.476 214.691 794.476C214.109 794.476 213.617 794.404 213.214 794.258C213.55 794.807 214.104 795.081 214.876 795.081C215.189 795.081 215.525 795.042 215.883 794.963C216.018 794.93 216.146 794.913 216.269 794.913C216.516 794.913 216.712 794.975 216.857 795.098C217.014 795.221 217.092 795.389 217.092 795.601C217.092 795.948 216.88 796.251 216.454 796.508C216.029 796.754 215.34 796.877 214.389 796.877ZM213.264 792.21C213.365 792.367 213.499 792.484 213.667 792.562C213.846 792.63 214.042 792.663 214.255 792.663C214.501 792.663 214.714 792.607 214.893 792.495C215.083 792.383 215.178 792.238 215.178 792.059C215.178 791.857 215.094 791.684 214.926 791.538C214.77 791.393 214.54 791.32 214.238 791.32C213.936 791.32 213.695 791.415 213.516 791.605C213.348 791.785 213.264 791.986 213.264 792.21Z" fill="#D2D6D8"/>
<path d="M199.916 796.877C199.02 796.877 198.237 796.631 197.565 796.138C196.905 795.646 196.395 794.946 196.037 794.04C195.679 793.133 195.5 792.064 195.5 790.833C195.5 790.116 195.618 789.35 195.853 788.533C196.099 787.716 196.446 787.027 196.894 786.468C197.352 785.897 197.884 785.611 198.489 785.611C198.981 785.611 199.39 785.79 199.714 786.149C200.039 786.507 200.201 786.949 200.201 787.475C200.201 787.632 200.162 787.844 200.084 788.113C200.016 788.37 199.938 788.639 199.849 788.919C199.681 789.4 199.552 789.825 199.462 790.195C199.373 790.553 199.328 790.9 199.328 791.236C199.328 791.728 199.401 792.086 199.546 792.31C199.692 792.534 199.871 792.646 200.084 792.646C200.363 792.646 200.559 792.506 200.671 792.226C200.794 791.935 200.856 791.404 200.856 790.631L200.839 789.473C200.839 788.577 200.957 787.867 201.192 787.341C201.427 786.803 201.897 786.535 202.602 786.535C203.128 786.535 203.526 786.68 203.794 786.971C204.063 787.262 204.236 787.632 204.315 788.079C204.393 788.516 204.432 789.048 204.432 789.674V790.531C204.432 791.348 204.499 791.93 204.634 792.277C204.779 792.612 205.009 792.78 205.322 792.78C205.535 792.78 205.697 792.674 205.809 792.461C205.932 792.238 205.994 791.907 205.994 791.471C205.994 791.146 205.954 790.822 205.876 790.497C205.798 790.172 205.675 789.758 205.507 789.255C205.361 788.773 205.255 788.415 205.188 788.18C205.132 787.934 205.104 787.699 205.104 787.475C205.104 786.949 205.272 786.512 205.607 786.165C205.954 785.818 206.357 785.645 206.816 785.645C207.477 785.645 208.031 785.925 208.478 786.484C208.937 787.033 209.279 787.71 209.503 788.516C209.727 789.322 209.838 790.094 209.838 790.833C209.838 792.064 209.659 793.133 209.301 794.04C208.943 794.946 208.428 795.646 207.757 796.138C207.096 796.62 206.318 796.86 205.423 796.86C204.93 796.86 204.449 796.748 203.979 796.524C203.509 796.301 203.072 795.965 202.669 795.517C202.266 795.965 201.824 796.306 201.343 796.541C200.873 796.765 200.397 796.877 199.916 796.877Z" fill="#D2D6D8"/>
<path d="M183.792 820L181.241 810.809H182.713L184.503 817.918H184.58L186.446 810.809H187.893L189.759 817.918H189.835L191.625 810.809H193.098L190.546 820H189.137L187.208 813.132H187.131L185.202 820H183.792ZM196.412 820.14C194.38 820.14 193.13 818.737 193.136 816.598C193.13 814.478 194.399 813.018 196.323 813.018C197.891 813.018 199.382 813.989 199.382 816.483V816.966H194.482C194.52 818.28 195.294 819.022 196.424 819.022C197.192 819.022 197.694 818.692 197.922 818.273H199.293C198.989 819.391 197.929 820.14 196.412 820.14ZM194.488 815.95H198.049C198.049 814.903 197.37 814.128 196.335 814.135C195.25 814.128 194.545 814.979 194.488 815.95ZM202.086 810.809V820H200.728V810.809H202.086ZM205.095 810.809V820H203.737V810.809H205.095ZM212.497 820.14C210.833 820.133 209.615 818.794 209.615 816.572C209.615 814.325 210.853 813.018 212.509 813.018C213.792 813.018 214.255 813.792 214.502 814.224H214.566V810.809H215.924V820H214.604V818.921H214.502C214.249 819.372 213.753 820.133 212.497 820.14ZM210.999 816.547C210.992 817.931 211.614 818.978 212.801 818.984C213.957 818.978 214.604 817.994 214.604 816.547C214.604 815.112 213.969 814.167 212.801 814.173C211.602 814.167 210.992 815.188 210.999 816.547ZM218.527 822.59C218.248 822.583 217.975 822.577 217.803 822.552V821.422C217.956 821.435 218.222 821.441 218.413 821.447C218.832 821.441 219.181 821.416 219.504 820.546L219.669 820.089L217.143 813.106H218.59L220.33 818.451H220.406L222.145 813.106H223.605L220.761 820.914C220.361 822.006 219.663 822.583 218.527 822.59ZM224.709 820V813.106H226.068V820H224.709ZM224.532 811.24C224.538 810.796 224.925 810.44 225.395 810.44C225.858 810.44 226.246 810.796 226.246 811.24C226.246 811.685 225.858 812.046 225.395 812.04C224.925 812.046 224.538 811.685 224.532 811.24ZM229.077 815.912V820H227.718V813.106H229.026V814.236H229.102C229.426 813.494 230.105 813.018 231.133 813.018C232.549 813.018 233.488 813.913 233.482 815.62V820H232.136V815.785C232.13 814.782 231.59 814.186 230.676 814.186C229.743 814.186 229.077 814.814 229.077 815.912ZM238.027 822.729C236.288 822.729 235.139 821.961 235.018 820.673H236.402C236.535 821.327 237.145 821.644 238.04 821.638C239.119 821.644 239.798 821.174 239.804 820.102V818.743H239.715C239.474 819.188 238.979 819.898 237.709 819.898C236.084 819.898 234.828 818.686 234.828 816.483C234.828 814.281 236.065 813.018 237.722 813.018C239.004 813.018 239.474 813.792 239.728 814.224H239.817V813.106H241.137V820.152C241.144 821.923 239.804 822.729 238.027 822.729ZM236.211 816.509C236.205 817.861 236.827 818.775 238.014 818.781C239.169 818.775 239.817 817.931 239.817 816.509C239.817 815.112 239.182 814.167 238.014 814.173C236.814 814.167 236.205 815.188 236.211 816.509Z" fill="#D2D6D8"/>
<path d="M300.072 788.484C298.837 785.227 295.691 782.911 292.005 782.911C288.319 782.911 285.173 785.224 283.938 788.481C281.628 789.088 279.921 791.191 279.921 793.696C279.921 796.675 282.334 799.088 285.311 799.088H298.689C301.665 799.088 304.079 796.675 304.079 793.696C304.079 791.196 302.377 789.093 300.072 788.484ZM301.051 796.06C300.741 796.372 300.373 796.618 299.968 796.786C299.562 796.954 299.128 797.04 298.689 797.039H285.311C284.418 797.039 283.58 796.691 282.949 796.06C282.637 795.75 282.391 795.382 282.223 794.976C282.055 794.57 281.969 794.135 281.97 793.696C281.97 792.941 282.215 792.232 282.676 791.639C283.128 791.064 283.753 790.651 284.459 790.46L285.48 790.193L285.855 789.207C286.087 788.592 286.411 788.018 286.818 787.497C287.22 786.982 287.696 786.528 288.23 786.152C289.339 785.373 290.644 784.96 292.005 784.96C293.367 784.96 294.672 785.373 295.78 786.152C296.316 786.529 296.791 786.982 297.193 787.497C297.6 788.018 297.923 788.595 298.155 789.207L298.527 790.191L299.546 790.46C301.01 790.851 302.029 792.181 302.029 793.696C302.029 794.588 301.682 795.429 301.051 796.06Z" fill="#D2D6D8"/>
<path d="M264.66 813.805C264.438 812.618 263.454 811.958 262.286 811.964C260.699 811.958 259.525 813.176 259.519 815.404C259.525 817.645 260.706 818.851 262.286 818.845C263.441 818.851 264.419 818.204 264.66 817.029L266.069 817.042C265.777 818.857 264.298 820.127 262.273 820.127C259.88 820.127 258.135 818.343 258.135 815.404C258.135 812.465 259.893 810.682 262.273 810.682C264.216 810.682 265.758 811.831 266.069 813.805H264.66ZM270.386 820.14C268.431 820.14 267.155 818.718 267.161 816.585C267.155 814.439 268.431 813.018 270.386 813.018C272.328 813.018 273.598 814.439 273.598 816.585C273.598 818.718 272.328 820.14 270.386 820.14ZM268.52 816.585C268.52 817.899 269.123 819.01 270.386 819.01C271.63 819.01 272.227 817.899 272.227 816.585C272.227 815.265 271.63 814.141 270.386 814.135C269.123 814.141 268.52 815.265 268.52 816.585ZM274.931 820V813.106H276.238V814.236H276.314C276.606 813.468 277.286 813.018 278.193 813.018C279.114 813.018 279.755 813.468 280.047 814.236H280.123C280.447 813.494 281.196 813.018 282.192 813.018C283.437 813.018 284.319 813.798 284.325 815.379V820H282.967V815.506C282.967 814.573 282.383 814.186 281.672 814.186C280.802 814.186 280.301 814.782 280.301 815.607V820H278.955V815.43C278.955 814.674 278.441 814.186 277.698 814.186C276.937 814.186 276.289 814.82 276.289 815.747V820H274.931ZM285.963 820V813.106H287.271V814.236H287.347C287.639 813.468 288.318 813.018 289.226 813.018C290.146 813.018 290.787 813.468 291.079 814.236H291.155C291.479 813.494 292.228 813.018 293.225 813.018C294.469 813.018 295.351 813.798 295.357 815.379V820H293.999V815.506C293.999 814.573 293.415 814.186 292.704 814.186C291.834 814.186 291.333 814.782 291.333 815.607V820H289.987V815.43C289.987 814.674 289.473 814.186 288.73 814.186C287.969 814.186 287.321 814.82 287.321 815.747V820H285.963ZM301.375 817.131V813.106H302.721V820H301.4V818.807H301.324C301.007 819.543 300.302 820.089 299.268 820.089C297.935 820.089 296.995 819.194 296.995 817.486V813.106H298.354V817.321C298.354 818.261 298.925 818.857 299.75 818.857C300.505 818.857 301.375 818.305 301.375 817.131ZM305.729 815.912V820H304.371V813.106H305.679V814.236H305.755C306.079 813.494 306.758 813.018 307.786 813.018C309.202 813.018 310.141 813.913 310.135 815.62V820H308.789V815.785C308.783 814.782 308.243 814.186 307.329 814.186C306.396 814.186 305.729 814.814 305.729 815.912ZM311.785 820V813.106H313.144V820H311.785ZM311.607 811.24C311.614 810.796 312.001 810.44 312.471 810.44C312.934 810.44 313.321 810.796 313.321 811.24C313.321 811.685 312.934 812.046 312.471 812.04C312.001 812.046 311.614 811.685 311.607 811.24ZM318.019 813.106V814.186H316.609V817.969C316.616 818.75 316.997 818.889 317.435 818.896C317.631 818.896 317.93 818.876 318.12 818.857V820.038C317.936 820.063 317.644 820.089 317.27 820.089C316.209 820.089 315.251 819.505 315.264 818.248V814.186H314.248V813.106H315.264V811.456H316.609V813.106H318.019ZM320.177 822.59C319.897 822.583 319.625 822.577 319.453 822.552V821.422C319.605 821.435 319.872 821.441 320.062 821.447C320.481 821.441 320.831 821.416 321.154 820.546L321.319 820.089L318.793 813.106H320.24L321.979 818.451H322.056L323.795 813.106H325.255L322.411 820.914C322.011 822.006 321.313 822.583 320.177 822.59Z" fill="#D2D6D8"/>
<path d="M352.853 793.144C352.284 793.144 351.739 792.918 351.337 792.516C350.935 792.114 350.709 791.568 350.709 791C350.709 790.431 350.935 789.886 351.337 789.483C351.739 789.081 352.284 788.855 352.853 788.855C353.422 788.855 353.967 789.081 354.369 789.483C354.771 789.886 354.997 790.431 354.997 791C354.997 791.568 354.771 792.114 354.369 792.516C353.967 792.918 353.422 793.144 352.853 793.144ZM360 793.144C359.432 793.144 358.886 792.918 358.484 792.516C358.082 792.114 357.856 791.568 357.856 791C357.856 790.431 358.082 789.886 358.484 789.483C358.886 789.081 359.432 788.855 360 788.855C360.569 788.855 361.114 789.081 361.517 789.483C361.919 789.886 362.145 790.431 362.145 791C362.145 791.568 361.919 792.114 361.517 792.516C361.114 792.918 360.569 793.144 360 793.144ZM367.148 793.144C366.579 793.144 366.034 792.918 365.631 792.516C365.229 792.114 365.003 791.568 365.003 791C365.003 790.431 365.229 789.886 365.631 789.483C366.034 789.081 366.579 788.855 367.148 788.855C367.716 788.855 368.262 789.081 368.664 789.483C369.066 789.886 369.292 790.431 369.292 791C369.292 791.568 369.066 792.114 368.664 792.516C368.262 792.918 367.716 793.144 367.148 793.144Z" fill="#D2D6D8"/>
<path d="M351.925 815.404C351.925 818.343 350.16 820.127 347.786 820.127C345.393 820.127 343.635 818.337 343.635 815.404C343.635 812.465 345.393 810.682 347.786 810.682C350.16 810.682 351.925 812.465 351.925 815.404ZM345.019 815.404C345.025 817.639 346.199 818.851 347.786 818.845C349.36 818.851 350.535 817.639 350.541 815.404C350.535 813.17 349.36 811.958 347.786 811.964C346.199 811.958 345.025 813.17 345.019 815.404ZM356.609 813.106V814.186H355.2V817.969C355.207 818.75 355.587 818.889 356.025 818.896C356.222 818.896 356.521 818.876 356.711 818.857V820.038C356.527 820.063 356.235 820.089 355.86 820.089C354.8 820.089 353.842 819.505 353.854 818.248V814.186H352.839V813.106H353.854V811.456H355.2V813.106H356.609ZM359.44 815.912V820H358.082V810.809H359.415V814.236H359.504C359.828 813.487 360.475 813.018 361.548 813.018C362.963 813.018 363.909 813.894 363.909 815.62V820H362.551V815.785C362.551 814.77 362.005 814.186 361.091 814.186C360.132 814.186 359.44 814.814 359.44 815.912ZM368.518 820.14C366.486 820.14 365.236 818.737 365.242 816.598C365.236 814.478 366.505 813.018 368.429 813.018C369.997 813.018 371.488 813.989 371.488 816.483V816.966H366.588C366.626 818.28 367.4 819.022 368.53 819.022C369.298 819.022 369.8 818.692 370.028 818.273H371.399C371.095 819.391 370.035 820.14 368.518 820.14ZM366.594 815.95H370.155C370.155 814.903 369.476 814.128 368.441 814.135C367.356 814.128 366.651 814.979 366.594 815.95ZM372.834 820V813.106H374.142V814.198H374.218C374.472 813.462 375.164 812.999 375.97 813.005C376.135 812.999 376.401 813.018 376.541 813.03V814.325C376.427 814.3 376.109 814.243 375.83 814.249C374.891 814.243 374.192 814.896 374.192 815.798V820H372.834Z" fill="#D2D6D8"/>
<path d="M64.1963 43.8145C66.4043 43.8311 68.7202 45.1592 68.7285 49.5586C68.7285 53.7754 66.9106 56.166 64.0303 56.166C61.814 56.166 60.27 54.7964 59.9795 52.8457H61.7891C62.0381 53.8584 62.8184 54.564 64.0303 54.5723C65.8813 54.564 66.9688 52.9536 66.9854 50.2061H66.8359C66.1885 51.2188 65.0596 51.833 63.7646 51.833C61.6064 51.833 59.8799 50.1812 59.8799 47.8818C59.8799 45.5908 61.5815 43.7979 64.1963 43.8145ZM61.6562 47.8486C61.6646 49.2432 62.7021 50.3472 64.1631 50.3389C65.6157 50.3472 66.7363 49.1602 66.7363 47.832C66.7363 46.5288 65.6655 45.3418 64.1963 45.3418C62.7437 45.3418 61.6479 46.4707 61.6562 47.8486ZM71.153 54.4561C70.5055 54.4478 69.966 53.9248 69.9743 53.2773C69.966 52.6299 70.5055 52.0986 71.153 52.0986C71.7922 52.0986 72.3234 52.6299 72.3317 53.2773C72.3234 53.9248 71.7922 54.4478 71.153 54.4561ZM69.9743 46.7197C69.966 46.0723 70.5055 45.541 71.153 45.541C71.7922 45.541 72.3234 46.0723 72.3317 46.7197C72.3234 47.3672 71.7922 47.8901 71.153 47.8984C70.5055 47.8901 69.966 47.3672 69.9743 46.7197ZM73.5111 53.6592V52.1816L78.8236 43.9805H81.0814V52.1152H82.725V53.6592H81.0814V56H79.3548V53.6592H73.5111ZM75.4369 52.1152H79.3548V46.1553H79.222L75.4369 52.0156V52.1152ZM88.2871 43.9805V56H86.4444V45.8066H86.378L83.5059 47.6826V45.9395L86.4942 43.9805H88.2871Z" fill="black"/>
<rect x="318.35" y="43" width="3.2" height="12" rx="1" fill="black"/>
<rect x="313.05" y="45.4004" width="3.2" height="9.6" rx="1" fill="black"/>
<rect x="307.75" y="48" width="3.2" height="7" rx="1" fill="black"/>
<rect x="302.45" y="50.4004" width="3.2" height="4.6" rx="1" fill="black"/>
<path d="M336.008 51.1338C336.711 51.1338 337.395 51.3186 337.997 51.6711L338.241 51.8139C338.426 51.9222 338.458 52.1756 338.307 52.3268L336.223 54.4045C336.095 54.5322 335.888 54.5322 335.76 54.4045L333.69 52.3402C333.539 52.1896 333.57 51.9375 333.754 51.8284L333.995 51.685C334.603 51.3236 335.295 51.1338 336.008 51.1338Z" fill="black"/>
<path d="M336.008 47.3164C337.758 47.3164 339.438 47.8969 340.806 48.972L341 49.1239C341.154 49.245 341.168 49.4733 341.029 49.6117L339.785 50.8521C339.67 50.9668 339.488 50.98 339.357 50.8831L339.206 50.7704C338.281 50.0833 337.167 49.7148 336.008 49.7148C334.841 49.7148 333.72 50.0879 332.793 50.7828L332.641 50.8966C332.511 50.9943 332.328 50.9814 332.212 50.8664L330.969 49.6264C330.831 49.4883 330.844 49.2606 330.997 49.1393L331.19 48.9872C332.561 47.9026 334.249 47.3164 336.008 47.3164Z" fill="black"/>
<path d="M336.008 43.5C338.785 43.5 341.441 44.4796 343.543 46.2752L343.723 46.4285C343.868 46.5524 343.876 46.7731 343.741 46.9078L342.501 48.1441C342.381 48.2639 342.189 48.2723 342.059 48.1635L341.906 48.0351C340.25 46.6512 338.176 45.8984 336.008 45.8984C333.833 45.8984 331.752 46.6564 330.094 48.049L329.941 48.178C329.81 48.2873 329.618 48.2791 329.498 48.1591L328.258 46.9229C328.123 46.7885 328.132 46.5681 328.276 46.4441L328.455 46.2908C330.56 44.4855 333.223 43.5 336.008 43.5Z" fill="black"/>
<rect x="352" y="44.5" width="21" height="9" rx="1.33" fill="black"/>
<path opacity="0.4" fill-rule="evenodd" clip-rule="evenodd" d="M355.6 43.5H369.4C370.397 43.5 371.084 43.5008 371.617 43.5444C372.139 43.587 372.425 43.6655 372.635 43.7725C373.105 44.0122 373.488 44.3946 373.728 44.865C373.834 45.0749 373.913 45.3608 373.956 45.8826C373.999 46.4161 374 47.1034 374 48.1V49.9C374 50.8966 373.999 51.5839 373.956 52.1174C373.913 52.6392 373.834 52.9251 373.728 53.135C373.488 53.6054 373.105 53.9878 372.635 54.2275C372.425 54.3345 372.139 54.413 371.617 54.4556C371.084 54.4992 370.397 54.5 369.4 54.5H355.6C354.603 54.5 353.916 54.4992 353.383 54.4556C352.861 54.413 352.575 54.3345 352.365 54.2275C351.895 53.9878 351.512 53.6054 351.272 53.135C351.166 52.9251 351.087 52.6392 351.044 52.1174C351.001 51.5839 351 50.8966 351 49.9V48.1C351 47.1034 351.001 46.4161 351.044 45.8826C351.087 45.3608 351.166 45.0749 351.272 44.865C351.512 44.3946 351.895 44.0122 352.365 43.7725C352.575 43.6655 352.861 43.587 353.383 43.5444C353.916 43.5008 354.603 43.5 355.6 43.5ZM350 48.1C350 46.1398 350 45.1597 350.381 44.411C350.717 43.7525 351.252 43.217 351.911 42.8815C352.66 42.5 353.64 42.5 355.6 42.5H369.4C371.36 42.5 372.34 42.5 373.089 42.8815C373.748 43.217 374.283 43.7525 374.619 44.411C375 45.1597 375 46.1398 375 48.1V49.9C375 51.8602 375 52.8403 374.619 53.589C374.283 54.2475 373.748 54.783 373.089 55.1185C372.34 55.5 371.36 55.5 369.4 55.5H355.6C353.64 55.5 352.66 55.5 351.911 55.1185C351.252 54.783 350.717 54.2475 350.381 53.589C350 52.8403 350 51.8602 350 49.9V48.1ZM376 51C376.828 50.8 377.5 50.1046 377.5 49C377.5 47.8954 376.828 47.2 376 47L376 49L376 51Z" fill="black"/>
<rect x="170" y="40" width="74" height="20" rx="10" fill="black"/>
<rect x="137" y="841" width="140" height="6" rx="3" fill="black"/>
</g>
<rect x="6" y="6" width="402" height="856" rx="66" stroke="black" stroke-width="12"/>
<defs>
<filter id="filter0_d_108_889" x="12" y="650" width="301" height="86" filterUnits="userSpaceOnUse" color-interpolation-filters="sRGB">
<feFlood flood-opacity="0" result="BackgroundImageFix"/>
<feColorMatrix in="SourceAlpha" type="matrix" values="0 0 0 0 0 0 0 0 0 0 0 0 0 0 0 0 0 0 127 0" result="hardAlpha"/>
<feOffset/>
<feGaussianBlur stdDeviation="6"/>
<feComposite in2="hardAlpha" operator="out"/>
<feColorMatrix type="matrix" values="0 0 0 0 0.00784314 0 0 0 0 0.635294 0 0 0 0 0.992157 0 0 0 0.25 0"/>
<feBlend mode="normal" in2="BackgroundImageFix" result="effect1_dropShadow_108_889"/>
<feBlend mode="normal" in="SourceGraphic" in2="effect1_dropShadow_108_889" result="shape"/>
</filter>
<filter id="filter1_d_108_889" x="301" y="650" width="293" height="86" filterUnits="userSpaceOnUse" color-interpolation-filters="sRGB">
<feFlood flood-opacity="0" result="BackgroundImageFix"/>
<feColorMatrix in="SourceAlpha" type="matrix" values="0 0 0 0 0 0 0 0 0 0 0 0 0 0 0 0 0 0 127 0" result="hardAlpha"/>
<feOffset/>
<feGaussianBlur stdDeviation="6"/>
<feComposite in2="hardAlpha" operator="out"/>
<feColorMatrix type="matrix" values="0 0 0 0 0.00784314 0 0 0 0 0.635294 0 0 0 0 0.992157 0 0 0 0.25 0"/>
<feBlend mode="normal" in2="BackgroundImageFix" result="effect1_dropShadow_108_889"/>
<feBlend mode="normal" in="SourceGraphic" in2="effect1_dropShadow_108_889" result="shape"/>
</filter>
<radialGradient id="paint0_radial_108_889" cx="0" cy="0" r="1" gradientUnits="userSpaceOnUse" gradientTransform="translate(207 427) rotate(90) scale(164)">
<stop stop-color="#63C7FF"/>
<stop offset="1" stop-color="#A6DFFF" stop-opacity="0"/>
</radialGradient>
<clipPath id="clip0_108_889">
<rect x="12" y="12" width="390" height="844" rx="60" fill="white"/>
</clipPath>
</defs>
</svg>
