<svg width="406" height="199" viewBox="0 0 406 199" fill="none" xmlns="http://www.w3.org/2000/svg">
<path d="M0.833008 119.453C8.88577 115.954 14.583 114.768 23.333 114.768C32.083 114.768 36.6663 111.361 45.833 111.361C54.6859 111.361 58.6473 118.081 67.4997 118.175C76.6636 118.273 81.2497 111.361 89.9997 111.361C101.865 111.361 100.637 132.458 112.5 132.23C124.124 132.006 124.166 114.768 134.166 111.361C143.856 108.06 146.453 97.7324 156.666 97.7324C167.083 97.7324 168.4 111.59 178.333 111.361C189.873 111.094 189.29 91.7699 200.833 91.7699C212.376 91.7699 211.79 111.361 223.333 111.361C238.75 111.361 234.399 83.0864 245 67.0681C254.583 52.5878 252.5 23.2012 267.5 23.2012C279.166 23.2012 276.666 29.5896 289.166 33.4226C303.444 37.8007 299.583 57.2726 311.666 64.9387C322.031 71.5141 322.5 87.0851 334.166 87.0851C347.209 87.0851 344.889 63.7691 355.833 61.1056C364.583 58.9762 366.6 63.661 378.333 63.661C390.416 63.661 396.841 52.3383 400 39.811" stroke="#0075FF" stroke-width="1.70357"/>
<path d="M23.333 114.768C14.583 114.768 8.88577 115.954 0.833008 119.453V175.076H400V39.811C396.841 52.3383 390.416 63.661 378.333 63.661C366.6 63.661 364.583 58.9762 355.833 61.1056C344.889 63.7691 347.209 87.0851 334.166 87.0851C322.5 87.0851 322.031 71.5141 311.666 64.9387C299.583 57.2726 303.444 37.8007 289.166 33.4226C276.666 29.5896 279.166 23.2012 267.5 23.2012C252.5 23.2012 254.583 52.5878 245 67.0681C234.399 83.0864 238.75 111.361 223.333 111.361C211.79 111.361 212.376 91.7699 200.833 91.7699C189.29 91.7699 189.873 111.094 178.333 111.361C168.4 111.59 167.083 97.7324 156.666 97.7324C146.453 97.7324 143.856 108.06 134.166 111.361C124.166 114.768 124.124 132.006 112.5 132.23C100.637 132.458 101.865 111.361 89.9997 111.361C81.2497 111.361 76.6636 118.273 67.4997 118.175C58.6473 118.081 54.6859 111.361 45.833 111.361C36.6663 111.361 32.083 114.768 23.333 114.768Z" fill="url(#paint0_linear_108_1071)"/>
<circle opacity="0.2" cx="400" cy="41.4047" r="5.11071" fill="#4285F4"/>
<circle cx="400" cy="41.404" r="2.55536" fill="#4285F4"/>
<defs>
<linearGradient id="paint0_linear_108_1071" x1="200.416" y1="23.2012" x2="200.416" y2="175.076" gradientUnits="userSpaceOnUse">
<stop stop-color="#00A3FF" stop-opacity="0.6"/>
<stop offset="1" stop-color="#FFB800" stop-opacity="0"/>
</linearGradient>
</defs>
</svg>
