<svg width="503" height="236" viewBox="0 0 503 236" fill="none" xmlns="http://www.w3.org/2000/svg">
<rect width="503" height="236" rx="20" fill="white"/>
<path d="M28.3555 44L24.3125 29.8594H27.5156L29.8984 39.7422H30.0156L32.6133 29.8594H35.3672L37.9648 39.7617H38.082L40.4648 29.8594H43.668L39.625 44H36.7539L34.0586 34.6641H33.9414L31.2266 44H28.3555ZM48.7656 44.2148C45.5137 44.2051 43.5215 42.1055 43.5312 38.7461C43.5215 35.4746 45.543 33.2578 48.6484 33.2578C51.4316 33.2578 53.6289 35.0156 53.6289 38.6289V39.4492H46.3828C46.3828 41.0508 47.3301 42.0371 48.8242 42.0469C49.8105 42.0371 50.5137 41.6074 50.7969 40.9727H53.5508C53.1406 42.9355 51.3828 44.2051 48.7656 44.2148ZM46.3828 37.6328H50.8945C50.8848 36.3438 49.9961 35.416 48.707 35.4258C47.3789 35.416 46.4414 36.4121 46.3828 37.6328ZM57.3203 29.8594V35.2109H55.2305V29.8594H57.3203ZM59.3906 44V33.3945H62.1836V35.2305H62.3008C62.6816 33.9316 63.668 33.2383 64.8594 33.2383C65.1523 33.2383 65.5234 33.2773 65.7773 33.3359V35.9141C65.5039 35.8262 64.9473 35.7578 64.5469 35.7578C63.2383 35.7578 62.2715 36.666 62.2812 37.9648V44H59.3906ZM71.6562 44.2148C68.4043 44.2051 66.4121 42.1055 66.4219 38.7461C66.4121 35.4746 68.4336 33.2578 71.5391 33.2578C74.3223 33.2578 76.5195 35.0156 76.5195 38.6289V39.4492H69.2734C69.2734 41.0508 70.2207 42.0371 71.7148 42.0469C72.7012 42.0371 73.4043 41.6074 73.6875 40.9727H76.4414C76.0312 42.9355 74.2734 44.2051 71.6562 44.2148ZM69.2734 37.6328H73.7852C73.7754 36.3438 72.8867 35.416 71.5977 35.4258C70.2695 35.416 69.332 36.4121 69.2734 37.6328ZM82.4375 41.0312C82.4473 38.668 84.3418 37.8965 86.3828 37.7695C87.1445 37.7207 88.5703 37.6523 89.0195 37.6328V36.7734C89.0098 35.8848 88.4043 35.377 87.3203 35.3672C86.334 35.377 85.7188 35.8164 85.5625 36.5391H82.8086C82.9844 34.7031 84.5859 33.2578 87.3984 33.2578C89.7129 33.2578 91.9004 34.293 91.8906 36.8516V44H89.1562V42.5352H89.0781C88.5605 43.5117 87.5449 44.2051 85.9727 44.1953C83.9414 44.2051 82.4473 43.1309 82.4375 41.0312ZM85.2109 40.9531C85.2109 41.7637 85.8652 42.1934 86.793 42.2031C88.1113 42.1934 89.0293 41.334 89.0195 40.2109V39.4395C88.5801 39.459 87.3398 39.5273 86.8516 39.5664C85.8457 39.6543 85.2109 40.1328 85.2109 40.9531ZM94.0977 44V33.3945H96.8906V35.2305H97.0078C97.3887 33.9316 98.375 33.2383 99.5664 33.2383C99.8594 33.2383 100.23 33.2773 100.484 33.3359V35.9141C100.211 35.8262 99.6543 35.7578 99.2539 35.7578C97.9453 35.7578 96.9785 36.666 96.9883 37.9648V44H94.0977ZM106.324 44.2148C103.072 44.2051 101.119 41.959 101.129 38.7266C101.119 35.4844 103.111 33.2578 106.324 33.2578C109.059 33.2578 110.914 34.8496 111.031 37.2812H108.316C108.141 36.2363 107.457 35.5137 106.363 35.5039C104.977 35.5137 104.059 36.6758 104.059 38.6875C104.059 40.7383 104.957 41.9102 106.363 41.9102C107.379 41.9102 108.131 41.2754 108.316 40.1523H111.031C110.904 42.5547 109.137 44.2051 106.324 44.2148ZM115.719 37.8672V44H112.828V29.8594H115.641V35.25H115.758C116.246 34.0098 117.311 33.2578 118.922 33.2578C121.139 33.2578 122.594 34.752 122.594 37.2422V44H119.703V37.75C119.703 36.4316 119 35.6602 117.789 35.6602C116.568 35.6602 115.719 36.4707 115.719 37.8672ZM124.82 44V33.3945H127.711V44H124.82ZM124.684 30.543C124.684 29.7227 125.396 29.0684 126.266 29.0586C127.125 29.0684 127.838 29.7227 127.828 30.543C127.838 31.3438 127.125 32.0078 126.266 32.0078C125.396 32.0078 124.684 31.3438 124.684 30.543ZM139.801 33.3945L136.07 44H132.828L129.117 33.3945H132.164L134.391 41.0117H134.508L136.734 33.3945H139.801ZM141.207 44V33.3945H144.098V44H141.207ZM141.07 30.543C141.07 29.7227 141.783 29.0684 142.652 29.0586C143.512 29.0684 144.225 29.7227 144.215 30.543C144.225 31.3438 143.512 32.0078 142.652 32.0078C141.783 32.0078 141.07 31.3438 141.07 30.543ZM149.234 37.8672V44H146.344V33.3945H149.098V35.25H149.215C149.693 34.0293 150.826 33.2578 152.398 33.2578C154.615 33.2578 156.061 34.7715 156.051 37.2422V44H153.18V37.75C153.17 36.4414 152.467 35.6602 151.266 35.6602C150.064 35.6602 149.234 36.4707 149.234 37.8672ZM163.062 48.1992C160.133 48.1992 158.326 46.8809 158.16 44.8789H161.012C161.168 45.7285 161.969 46.1094 163.121 46.1094C164.459 46.1094 165.357 45.5332 165.367 44.0586V42.125H165.23C164.85 42.9844 163.912 43.8535 162.203 43.8438C159.811 43.8535 157.887 42.1641 157.887 38.6289C157.887 35.0449 159.859 33.2578 162.203 33.2578C163.98 33.2578 164.84 34.3125 165.23 35.1719H165.348V33.3945H168.219V44.1172C168.209 46.8223 166.08 48.1992 163.062 48.1992ZM160.855 38.668C160.846 40.5039 161.637 41.666 163.102 41.6758C164.547 41.666 165.367 40.5527 165.367 38.668C165.367 36.7832 164.557 35.5625 163.102 35.5625C161.627 35.5625 160.846 36.8418 160.855 38.668ZM176.773 47.9844C176.207 47.9746 175.68 47.9648 175.309 47.9258V45.6797C175.68 45.709 176.119 45.7188 176.48 45.7188C177.057 45.7188 177.516 45.6602 177.867 44.7422L178.043 44.293L174.234 33.3945H177.262L179.488 41.207H179.605L181.852 33.3945H184.918L180.777 45.1719C180.172 46.8809 179.01 47.9746 176.773 47.9844ZM190.738 44.2148C187.535 44.2051 185.533 42.0078 185.543 38.7266C185.533 35.4551 187.535 33.2578 190.738 33.2578C193.951 33.2578 195.943 35.4551 195.953 38.7266C195.943 42.0078 193.951 44.2051 190.738 44.2148ZM188.473 38.7266C188.473 40.582 189.244 41.959 190.758 41.9688C192.232 41.959 193.014 40.582 193.004 38.7266C193.014 36.8613 192.232 35.4648 190.758 35.4648C189.244 35.4648 188.473 36.8613 188.473 38.7266ZM204.566 39.4883V33.3945H207.457V44H204.684V42.0859H204.566C204.088 43.3164 202.945 44.1367 201.344 44.1367C199.225 44.1367 197.77 42.6328 197.77 40.1523V33.3945H200.66V39.6445C200.66 40.9043 201.383 41.6855 202.516 41.6953C203.57 41.6855 204.566 40.9336 204.566 39.4883ZM209.703 44V33.3945H212.496V35.2305H212.613C212.994 33.9316 213.98 33.2383 215.172 33.2383C215.465 33.2383 215.836 33.2773 216.09 33.3359V35.9141C215.816 35.8262 215.26 35.7578 214.859 35.7578C213.551 35.7578 212.584 36.666 212.594 37.9648V44H209.703ZM226.012 44.1758C223.59 44.1758 221.695 42.252 221.695 38.707C221.695 35.0742 223.668 33.2578 226.012 33.2578C227.789 33.2578 228.639 34.3125 229.02 35.1719H229.117V29.8594H232.008V44H229.156V42.3008H229.02C228.619 43.1797 227.74 44.1758 226.012 44.1758ZM224.664 38.6875C224.654 40.5625 225.445 41.8613 226.91 41.8711C228.355 41.8613 229.176 40.6016 229.176 38.6875C229.176 36.7832 228.365 35.5625 226.91 35.5625C225.436 35.5625 224.654 36.8418 224.664 38.6875ZM234.332 44V33.3945H237.223V44H234.332ZM234.195 30.543C234.195 29.7227 234.908 29.0684 235.777 29.0586C236.637 29.0684 237.35 29.7227 237.34 30.543C237.35 31.3438 236.637 32.0078 235.777 32.0078C234.908 32.0078 234.195 31.3438 234.195 30.543ZM244.234 48.1992C241.305 48.1992 239.498 46.8809 239.332 44.8789H242.184C242.34 45.7285 243.141 46.1094 244.293 46.1094C245.631 46.1094 246.529 45.5332 246.539 44.0586V42.125H246.402C246.021 42.9844 245.084 43.8535 243.375 43.8438C240.982 43.8535 239.059 42.1641 239.059 38.6289C239.059 35.0449 241.031 33.2578 243.375 33.2578C245.152 33.2578 246.012 34.3125 246.402 35.1719H246.52V33.3945H249.391V44.1172C249.381 46.8223 247.252 48.1992 244.234 48.1992ZM242.027 38.668C242.018 40.5039 242.809 41.666 244.273 41.6758C245.719 41.666 246.539 40.5527 246.539 38.668C246.539 36.7832 245.729 35.5625 244.273 35.5625C242.799 35.5625 242.018 36.8418 242.027 38.668ZM251.637 44V33.3945H254.527V44H251.637ZM251.5 30.543C251.5 29.7227 252.213 29.0684 253.082 29.0586C253.941 29.0684 254.654 29.7227 254.645 30.543C254.654 31.3438 253.941 32.0078 253.082 32.0078C252.213 32.0078 251.5 31.3438 251.5 30.543ZM262.359 33.3945V35.5625H260.367V40.7383C260.357 41.5879 260.777 41.793 261.363 41.8125C261.656 41.8125 262.164 41.7832 262.516 41.7539V44.0391C262.203 44.0879 261.686 44.1465 260.973 44.1367C258.883 44.1465 257.457 43.209 257.477 41.1484V35.5625H256.012V33.3945H257.477V30.8555H260.367V33.3945H262.359ZM263.668 41.0312C263.678 38.668 265.572 37.8965 267.613 37.7695C268.375 37.7207 269.801 37.6523 270.25 37.6328V36.7734C270.24 35.8848 269.635 35.377 268.551 35.3672C267.564 35.377 266.949 35.8164 266.793 36.5391H264.039C264.215 34.7031 265.816 33.2578 268.629 33.2578C270.943 33.2578 273.131 34.293 273.121 36.8516V44H270.387V42.5352H270.309C269.791 43.5117 268.775 44.2051 267.203 44.1953C265.172 44.2051 263.678 43.1309 263.668 41.0312ZM266.441 40.9531C266.441 41.7637 267.096 42.1934 268.023 42.2031C269.342 42.1934 270.26 41.334 270.25 40.2109V39.4395C269.811 39.459 268.57 39.5273 268.082 39.5664C267.076 39.6543 266.441 40.1328 266.441 40.9531ZM278.219 29.8594V44H275.328V29.8594H278.219ZM284.566 41.0312C284.576 38.668 286.471 37.8965 288.512 37.7695C289.273 37.7207 290.699 37.6523 291.148 37.6328V36.7734C291.139 35.8848 290.533 35.377 289.449 35.3672C288.463 35.377 287.848 35.8164 287.691 36.5391H284.938C285.113 34.7031 286.715 33.2578 289.527 33.2578C291.842 33.2578 294.029 34.293 294.02 36.8516V44H291.285V42.5352H291.207C290.689 43.5117 289.674 44.2051 288.102 44.1953C286.07 44.2051 284.576 43.1309 284.566 41.0312ZM287.34 40.9531C287.34 41.7637 287.994 42.1934 288.922 42.2031C290.24 42.1934 291.158 41.334 291.148 40.2109V39.4395C290.709 39.459 289.469 39.5273 288.98 39.5664C287.975 39.6543 287.34 40.1328 287.34 40.9531ZM302.281 36.5391C302.154 35.7969 301.51 35.3184 300.543 35.3086C299.605 35.3184 298.893 35.7578 298.902 36.4023C298.893 36.8809 299.264 37.252 300.27 37.457L302.164 37.8477C304.225 38.2773 305.221 39.1953 305.23 40.7188C305.221 42.8086 303.346 44.2051 300.523 44.2148C297.662 44.2051 295.982 42.9258 295.738 40.8555H298.648C298.785 41.6855 299.459 42.1152 300.523 42.125C301.578 42.1152 302.281 41.6953 302.281 41.0117C302.281 40.4648 301.832 40.123 300.836 39.918L299.078 39.5664C297.057 39.166 296.021 38.1309 296.031 36.5586C296.021 34.5273 297.77 33.2578 300.504 33.2578C303.18 33.2578 304.84 34.5273 304.996 36.5391H302.281ZM313.062 36.5391C312.936 35.7969 312.291 35.3184 311.324 35.3086C310.387 35.3184 309.674 35.7578 309.684 36.4023C309.674 36.8809 310.045 37.252 311.051 37.457L312.945 37.8477C315.006 38.2773 316.002 39.1953 316.012 40.7188C316.002 42.8086 314.127 44.2051 311.305 44.2148C308.443 44.2051 306.764 42.9258 306.52 40.8555H309.43C309.566 41.6855 310.24 42.1152 311.305 42.125C312.359 42.1152 313.062 41.6953 313.062 41.0117C313.062 40.4648 312.613 40.123 311.617 39.918L309.859 39.5664C307.838 39.166 306.803 38.1309 306.812 36.5586C306.803 34.5273 308.551 33.2578 311.285 33.2578C313.961 33.2578 315.621 34.5273 315.777 36.5391H313.062ZM322.594 44.2148C319.342 44.2051 317.35 42.1055 317.359 38.7461C317.35 35.4746 319.371 33.2578 322.477 33.2578C325.26 33.2578 327.457 35.0156 327.457 38.6289V39.4492H320.211C320.211 41.0508 321.158 42.0371 322.652 42.0469C323.639 42.0371 324.342 41.6074 324.625 40.9727H327.379C326.969 42.9355 325.211 44.2051 322.594 44.2148ZM320.211 37.6328H324.723C324.713 36.3438 323.824 35.416 322.535 35.4258C321.207 35.416 320.27 36.4121 320.211 37.6328ZM334.859 33.3945V35.5625H332.867V40.7383C332.857 41.5879 333.277 41.793 333.863 41.8125C334.156 41.8125 334.664 41.7832 335.016 41.7539V44.0391C334.703 44.0879 334.186 44.1465 333.473 44.1367C331.383 44.1465 329.957 43.209 329.977 41.1484V35.5625H328.512V33.3945H329.977V30.8555H332.867V33.3945H334.859ZM342.574 36.5391C342.447 35.7969 341.803 35.3184 340.836 35.3086C339.898 35.3184 339.186 35.7578 339.195 36.4023C339.186 36.8809 339.557 37.252 340.562 37.457L342.457 37.8477C344.518 38.2773 345.514 39.1953 345.523 40.7188C345.514 42.8086 343.639 44.2051 340.816 44.2148C337.955 44.2051 336.275 42.9258 336.031 40.8555H338.941C339.078 41.6855 339.752 42.1152 340.816 42.125C341.871 42.1152 342.574 41.6953 342.574 41.0117C342.574 40.4648 342.125 40.123 341.129 39.918L339.371 39.5664C337.35 39.166 336.314 38.1309 336.324 36.5586C336.314 34.5273 338.062 33.2578 340.797 33.2578C343.473 33.2578 345.133 34.5273 345.289 36.5391H342.574Z" fill="#292E34"/>
<path d="M26.7168 87L24.2031 77.8086H25.3584L27.2754 85.248H27.3643L29.3066 77.8086H30.5889L32.5439 85.248H32.6201L34.5371 77.8086H35.6924L33.1787 87H31.998L29.9922 79.7256H29.916L27.8975 87H26.7168ZM39.0059 87.1396C37.0127 87.146 35.7812 85.7241 35.7812 83.6104C35.7812 81.4902 37.0317 80.0176 38.9043 80.0176C40.3516 80.0176 41.8813 80.9062 41.875 83.458V83.915H36.873C36.9302 85.375 37.7808 86.1748 39.0059 86.1748C39.8311 86.1748 40.3516 85.813 40.6055 85.3877H41.7734C41.4497 86.4351 40.4277 87.146 39.0059 87.1396ZM36.8794 82.9883H40.7705C40.7642 81.8394 40.0405 80.9824 38.9043 80.9824C37.7109 80.9824 36.9556 81.9219 36.8794 82.9883ZM44.2236 77.8086V80.9824H43.2207V77.8086H44.2236ZM47.0039 77.8086V87H45.9121V77.8086H47.0039ZM49.835 77.8086V87H48.7432V77.8086H49.835ZM54.8369 89.5898V80.1064H55.8906V81.1982H56.0176C56.2524 80.8301 56.6714 80.0176 58.0107 80.0176C59.7437 80.0176 60.9434 81.3887 60.9434 83.5723C60.9434 85.7622 59.7437 87.146 58.0234 87.1396C56.7095 87.146 56.2524 86.3271 56.0176 85.9463H55.9287V89.5898H54.8369ZM55.9033 83.5469C55.9097 85.0957 56.6016 86.1621 57.8711 86.1621C59.1787 86.1621 59.8516 85.0132 59.8516 83.5469C59.8516 82.106 59.1978 80.9951 57.8711 80.9951C56.5825 80.9951 55.9097 82.0171 55.9033 83.5469ZM62.3652 87V80.1064H63.4189V81.1602H63.4951C63.7427 80.4619 64.46 79.9985 65.2725 79.9922C65.4375 79.9985 65.7168 80.0049 65.8438 80.0176V81.1221C65.7612 81.103 65.4692 81.0459 65.1836 81.0459C64.1934 81.0459 63.457 81.7314 63.457 82.6582V87H62.3652ZM69.5 87.1396C67.6211 87.146 66.3516 85.7241 66.3516 83.585C66.3516 81.4331 67.6211 80.0176 69.5 80.0176C71.3726 80.0176 72.6294 81.4331 72.623 83.585C72.6294 85.7241 71.3726 87.146 69.5 87.1396ZM67.4434 83.585C67.4497 84.9624 68.0972 86.1748 69.5 86.1748C70.8901 86.1748 71.5312 84.9624 71.5312 83.585C71.5312 82.2139 70.8901 80.9824 69.5 80.9824C68.0972 80.9824 67.4497 82.2139 67.4434 83.585ZM77.0664 80.1064V81.0205H75.6191V85.0195C75.6128 85.9019 76.0571 86.0479 76.5205 86.0479C76.7173 86.0479 77.0093 86.0288 77.168 86.0225V87.0381C76.9966 87.0635 76.73 87.0889 76.4062 87.0889C75.4858 87.0889 74.521 86.5176 74.5146 85.2988V81.0205H73.4736V80.1064H74.5146V78.4561H75.6191V80.1064H77.0664ZM81.2939 87.1396C79.3008 87.146 78.0693 85.7241 78.0693 83.6104C78.0693 81.4902 79.3198 80.0176 81.1924 80.0176C82.6396 80.0176 84.1694 80.9062 84.1631 83.458V83.915H79.1611C79.2183 85.375 80.0688 86.1748 81.2939 86.1748C82.1191 86.1748 82.6396 85.813 82.8936 85.3877H84.0615C83.7378 86.4351 82.7158 87.146 81.2939 87.1396ZM79.1675 82.9883H83.0586C83.0522 81.8394 82.3286 80.9824 81.1924 80.9824C79.999 80.9824 79.2437 81.9219 79.1675 82.9883ZM88.4033 87.1396C86.4482 87.146 85.2549 85.6543 85.2549 83.585C85.2549 81.4902 86.5054 80.0176 88.3779 80.0176C89.8442 80.0176 90.9487 80.8872 91.1201 82.1885H90.0283C89.8696 81.5601 89.3237 80.9824 88.4033 80.9824C87.1719 80.9824 86.353 81.998 86.3467 83.5469C86.353 85.1401 87.1528 86.1621 88.4033 86.1621C89.2158 86.1621 89.8379 85.7241 90.0283 84.9688H91.1201C90.9487 86.2002 89.9331 87.146 88.4033 87.1396ZM95.4746 80.1064V81.0205H94.0273V85.0195C94.021 85.9019 94.4653 86.0479 94.9287 86.0479C95.1255 86.0479 95.4175 86.0288 95.5762 86.0225V87.0381C95.4048 87.0635 95.1382 87.0889 94.8145 87.0889C93.894 87.0889 92.9292 86.5176 92.9229 85.2988V81.0205H91.8818V80.1064H92.9229V78.4561H94.0273V80.1064H95.4746ZM100.845 89.5898C100.61 89.5835 100.375 89.5771 100.235 89.5645V88.5869C100.35 88.5996 100.597 88.606 100.769 88.6123C101.213 88.606 101.587 88.5806 101.949 87.5713L102.152 87.0508L99.6006 80.1064H100.794L102.673 85.5781H102.749L104.628 80.1064H105.821L102.901 87.9902C102.495 89.0757 101.822 89.5835 100.845 89.5898ZM109.592 87.1396C107.713 87.146 106.443 85.7241 106.443 83.585C106.443 81.4331 107.713 80.0176 109.592 80.0176C111.464 80.0176 112.721 81.4331 112.715 83.585C112.721 85.7241 111.464 87.146 109.592 87.1396ZM107.535 83.585C107.542 84.9624 108.189 86.1748 109.592 86.1748C110.982 86.1748 111.623 84.9624 111.623 83.585C111.623 82.2139 110.982 80.9824 109.592 80.9824C108.189 80.9824 107.542 82.2139 107.535 83.585ZM118.504 84.1689V80.1064H119.583V87H118.504V85.832H118.428C118.104 86.5303 117.418 87.0889 116.384 87.0889C115.076 87.0889 114.143 86.2383 114.149 84.4863V80.1064H115.241V84.4102C115.241 85.4004 115.857 86.0415 116.739 86.0352C117.52 86.0415 118.498 85.4575 118.504 84.1689ZM121.335 87V80.1064H122.389V81.1602H122.465C122.712 80.4619 123.43 79.9985 124.242 79.9922C124.407 79.9985 124.687 80.0049 124.813 80.0176V81.1221C124.731 81.103 124.439 81.0459 124.153 81.0459C123.163 81.0459 122.427 81.7314 122.427 82.6582V87H121.335ZM131.745 87.1396C130.025 87.146 128.812 85.7622 128.812 83.5723C128.812 81.3887 130.025 80.0176 131.758 80.0176C133.097 80.0176 133.516 80.8301 133.751 81.1982H133.827V77.8086H134.932V87H133.865V85.9463H133.751C133.51 86.3271 133.059 87.146 131.745 87.1396ZM129.917 83.5469C129.917 85.0132 130.59 86.1621 131.897 86.1621C133.161 86.1621 133.859 85.0957 133.865 83.5469C133.859 82.0171 133.18 80.9951 131.897 80.9951C130.571 80.9951 129.917 82.106 129.917 83.5469ZM136.823 87V80.1064H137.915V87H136.823ZM136.607 78.2402C136.601 77.834 136.95 77.5103 137.369 77.5166C137.788 77.5103 138.137 77.834 138.144 78.2402C138.137 78.6401 137.788 78.9639 137.369 78.9639C136.95 78.9639 136.601 78.6401 136.607 78.2402ZM142.447 89.7295C140.778 89.7295 139.648 88.9995 139.527 87.7236H140.67C140.816 88.4282 141.47 88.7773 142.447 88.7773C143.628 88.7773 144.352 88.2632 144.352 87.127V85.7305H144.263C144.028 86.1113 143.59 86.8921 142.257 86.8984C140.581 86.8921 139.324 85.6289 139.324 83.458C139.324 81.3379 140.537 80.0176 142.27 80.0176C143.609 80.0176 144.041 80.8301 144.288 81.1982H144.377V80.1064H145.443V87.1904C145.437 88.9678 144.129 89.7295 142.447 89.7295ZM140.429 83.4961C140.429 84.9243 141.102 85.9209 142.409 85.9209C143.672 85.9209 144.371 85.0132 144.377 83.4961C144.371 82.0171 143.691 80.9951 142.409 80.9951C141.083 80.9951 140.429 82.106 140.429 83.4961ZM147.183 87V80.1064H148.274V87H147.183ZM146.967 78.2402C146.96 77.834 147.31 77.5103 147.729 77.5166C148.147 77.5103 148.497 77.834 148.503 78.2402C148.497 78.6401 148.147 78.9639 147.729 78.9639C147.31 78.9639 146.96 78.6401 146.967 78.2402ZM153.022 80.1064V81.0205H151.575V85.0195C151.569 85.9019 152.013 86.0479 152.477 86.0479C152.673 86.0479 152.965 86.0288 153.124 86.0225V87.0381C152.953 87.0635 152.686 87.0889 152.362 87.0889C151.442 87.0889 150.477 86.5176 150.471 85.2988V81.0205H149.43V80.1064H150.471V78.4561H151.575V80.1064H153.022ZM154.102 85.0449C154.102 83.4644 155.498 83.1025 156.691 83.0137C157.136 82.9819 158.247 82.9185 158.558 82.9121V82.3535C158.558 81.4775 158.037 80.9697 156.996 80.9697C156.126 80.9697 155.6 81.3696 155.447 81.8965H154.305C154.444 80.7856 155.523 80.0176 157.047 80.0176C157.948 80.0176 159.643 80.2842 159.637 82.4551V87H158.558V86.0605H158.507C158.278 86.5239 157.65 87.1587 156.45 87.165C155.143 87.1587 154.102 86.3906 154.102 85.0449ZM155.193 85.0957C155.2 85.8257 155.803 86.1938 156.641 86.1875C157.872 86.1938 158.558 85.3687 158.558 84.499V83.8071C158.234 83.8262 157.148 83.9087 156.818 83.9277C155.828 83.9912 155.2 84.3403 155.193 85.0957ZM162.48 77.8086V87H161.389V77.8086H162.48ZM167.152 85.0449C167.152 83.4644 168.549 83.1025 169.742 83.0137C170.187 82.9819 171.297 82.9185 171.608 82.9121V82.3535C171.608 81.4775 171.088 80.9697 170.047 80.9697C169.177 80.9697 168.65 81.3696 168.498 81.8965H167.355C167.495 80.7856 168.574 80.0176 170.098 80.0176C170.999 80.0176 172.694 80.2842 172.688 82.4551V87H171.608V86.0605H171.558C171.329 86.5239 170.701 87.1587 169.501 87.165C168.193 87.1587 167.152 86.3906 167.152 85.0449ZM168.244 85.0957C168.25 85.8257 168.854 86.1938 169.691 86.1875C170.923 86.1938 171.608 85.3687 171.608 84.499V83.8071C171.285 83.8262 170.199 83.9087 169.869 83.9277C168.879 83.9912 168.25 84.3403 168.244 85.0957ZM178.273 81.8965C178.121 81.3252 177.683 80.9507 176.877 80.9443C176.026 80.9507 175.423 81.4077 175.417 81.9854C175.423 82.4424 175.792 82.7534 176.598 82.9502L177.626 83.2041C178.857 83.4961 179.46 84.1118 179.467 85.0703C179.46 86.2637 178.489 87.146 176.763 87.1396C175.214 87.146 174.293 86.4541 174.109 85.1973H175.252C175.379 85.8701 175.868 86.1938 176.737 86.1875C177.721 86.1938 178.337 85.7812 178.337 85.1338C178.337 84.645 177.988 84.3276 177.207 84.1436L176.166 83.9023C174.966 83.623 174.325 82.9692 174.325 82.0488C174.325 80.8682 175.36 80.0176 176.877 80.0176C178.305 80.0176 179.2 80.7793 179.34 81.8965H178.273ZM184.723 81.8965C184.57 81.3252 184.132 80.9507 183.326 80.9443C182.476 80.9507 181.873 81.4077 181.866 81.9854C181.873 82.4424 182.241 82.7534 183.047 82.9502L184.075 83.2041C185.307 83.4961 185.91 84.1118 185.916 85.0703C185.91 86.2637 184.938 87.146 183.212 87.1396C181.663 87.146 180.743 86.4541 180.559 85.1973H181.701C181.828 85.8701 182.317 86.1938 183.187 86.1875C184.17 86.1938 184.786 85.7812 184.786 85.1338C184.786 84.645 184.437 84.3276 183.656 84.1436L182.615 83.9023C181.416 83.623 180.774 82.9692 180.774 82.0488C180.774 80.8682 181.809 80.0176 183.326 80.0176C184.754 80.0176 185.649 80.7793 185.789 81.8965H184.723ZM190.232 87.1396C188.239 87.146 187.008 85.7241 187.008 83.6104C187.008 81.4902 188.258 80.0176 190.131 80.0176C191.578 80.0176 193.108 80.9062 193.102 83.458V83.915H188.1C188.157 85.375 189.007 86.1748 190.232 86.1748C191.058 86.1748 191.578 85.813 191.832 85.3877H193C192.676 86.4351 191.654 87.146 190.232 87.1396ZM188.106 82.9883H191.997C191.991 81.8394 191.267 80.9824 190.131 80.9824C188.938 80.9824 188.182 81.9219 188.106 82.9883ZM197.532 80.1064V81.0205H196.085V85.0195C196.079 85.9019 196.523 86.0479 196.986 86.0479C197.183 86.0479 197.475 86.0288 197.634 86.0225V87.0381C197.462 87.0635 197.196 87.0889 196.872 87.0889C195.952 87.0889 194.987 86.5176 194.98 85.2988V81.0205H193.939V80.1064H194.98V78.4561H196.085V80.1064H197.532ZM202.648 81.8965C202.496 81.3252 202.058 80.9507 201.252 80.9443C200.401 80.9507 199.798 81.4077 199.792 81.9854C199.798 82.4424 200.167 82.7534 200.973 82.9502L202.001 83.2041C203.232 83.4961 203.835 84.1118 203.842 85.0703C203.835 86.2637 202.864 87.146 201.138 87.1396C199.589 87.146 198.668 86.4541 198.484 85.1973H199.627C199.754 85.8701 200.243 86.1938 201.112 86.1875C202.096 86.1938 202.712 85.7812 202.712 85.1338C202.712 84.645 202.363 84.3276 201.582 84.1436L200.541 83.9023C199.341 83.623 198.7 82.9692 198.7 82.0488C198.7 80.8682 199.735 80.0176 201.252 80.0176C202.68 80.0176 203.575 80.7793 203.715 81.8965H202.648ZM211.611 80.1064V81.0205H210.088V87H208.983V81.0205H207.879V80.1064H208.983V79.167C208.99 78.0498 209.732 77.377 210.951 77.377C211.218 77.377 211.535 77.4087 211.764 77.4531V78.4307C211.529 78.3926 211.332 78.3799 211.192 78.3799C210.424 78.3799 210.082 78.6973 210.088 79.4082V80.1064H211.611ZM215.433 87.1396C213.554 87.146 212.284 85.7241 212.284 83.585C212.284 81.4331 213.554 80.0176 215.433 80.0176C217.305 80.0176 218.562 81.4331 218.556 83.585C218.562 85.7241 217.305 87.146 215.433 87.1396ZM213.376 83.585C213.382 84.9624 214.03 86.1748 215.433 86.1748C216.823 86.1748 217.464 84.9624 217.464 83.585C217.464 82.2139 216.823 80.9824 215.433 80.9824C214.03 80.9824 213.382 82.2139 213.376 83.585ZM219.99 87V80.1064H221.044V81.1602H221.12C221.368 80.4619 222.085 79.9985 222.897 79.9922C223.062 79.9985 223.342 80.0049 223.469 80.0176V81.1221C223.386 81.103 223.094 81.0459 222.809 81.0459C221.818 81.0459 221.082 81.7314 221.082 82.6582V87H219.99ZM231.035 77.8086V87H229.88V79.002H229.829L227.595 80.4873V79.332L229.88 77.8086H231.035ZM236.494 87.127C234.457 87.127 233.276 85.4131 233.282 82.4043C233.276 79.4209 234.469 77.6816 236.494 77.6816C238.513 77.6816 239.706 79.4209 239.706 82.4043C239.706 85.4131 238.532 87.127 236.494 87.127ZM234.387 82.4043C234.393 84.7847 235.161 86.1113 236.494 86.1113C237.821 86.1113 238.595 84.7847 238.589 82.4043C238.595 80.0239 237.814 78.6782 236.494 78.6719C235.174 78.6782 234.393 80.0239 234.387 82.4043ZM244.238 87.127C242.201 87.127 241.02 85.4131 241.026 82.4043C241.02 79.4209 242.213 77.6816 244.238 77.6816C246.257 77.6816 247.45 79.4209 247.45 82.4043C247.45 85.4131 246.276 87.127 244.238 87.127ZM242.131 82.4043C242.137 84.7847 242.905 86.1113 244.238 86.1113C245.565 86.1113 246.339 84.7847 246.333 82.4043C246.339 80.0239 245.559 78.6782 244.238 78.6719C242.918 78.6782 242.137 80.0239 242.131 82.4043ZM252.947 89.5898C252.712 89.5835 252.478 89.5771 252.338 89.5645V88.5869C252.452 88.5996 252.7 88.606 252.871 88.6123C253.315 88.606 253.69 88.5806 254.052 87.5713L254.255 87.0508L251.703 80.1064H252.896L254.775 85.5781H254.852L256.73 80.1064H257.924L255.004 87.9902C254.598 89.0757 253.925 89.5835 252.947 89.5898ZM261.771 87.1396C259.777 87.146 258.546 85.7241 258.546 83.6104C258.546 81.4902 259.796 80.0176 261.669 80.0176C263.116 80.0176 264.646 80.9062 264.64 83.458V83.915H259.638C259.695 85.375 260.545 86.1748 261.771 86.1748C262.596 86.1748 263.116 85.813 263.37 85.3877H264.538C264.214 86.4351 263.192 87.146 261.771 87.1396ZM259.644 82.9883H263.535C263.529 81.8394 262.805 80.9824 261.669 80.9824C260.476 80.9824 259.72 81.9219 259.644 82.9883ZM265.731 85.0449C265.731 83.4644 267.128 83.1025 268.321 83.0137C268.766 82.9819 269.876 82.9185 270.188 82.9121V82.3535C270.188 81.4775 269.667 80.9697 268.626 80.9697C267.756 80.9697 267.229 81.3696 267.077 81.8965H265.935C266.074 80.7856 267.153 80.0176 268.677 80.0176C269.578 80.0176 271.273 80.2842 271.267 82.4551V87H270.188V86.0605H270.137C269.908 86.5239 269.28 87.1587 268.08 87.165C266.772 87.1587 265.731 86.3906 265.731 85.0449ZM266.823 85.0957C266.83 85.8257 267.433 86.1938 268.271 86.1875C269.502 86.1938 270.188 85.3687 270.188 84.499V83.8071C269.864 83.8262 268.778 83.9087 268.448 83.9277C267.458 83.9912 266.83 84.3403 266.823 85.0957ZM273.019 87V80.1064H274.072V81.1602H274.148C274.396 80.4619 275.113 79.9985 275.926 79.9922C276.091 79.9985 276.37 80.0049 276.497 80.0176V81.1221C276.415 81.103 276.123 81.0459 275.837 81.0459C274.847 81.0459 274.11 81.7314 274.11 82.6582V87H273.019ZM281.397 81.8965C281.245 81.3252 280.807 80.9507 280.001 80.9443C279.15 80.9507 278.547 81.4077 278.541 81.9854C278.547 82.4424 278.916 82.7534 279.722 82.9502L280.75 83.2041C281.981 83.4961 282.584 84.1118 282.591 85.0703C282.584 86.2637 281.613 87.146 279.887 87.1396C278.338 87.146 277.417 86.4541 277.233 85.1973H278.376C278.503 85.8701 278.992 86.1938 279.861 86.1875C280.845 86.1938 281.461 85.7812 281.461 85.1338C281.461 84.645 281.112 84.3276 280.331 84.1436L279.29 83.9023C278.09 83.623 277.449 82.9692 277.449 82.0488C277.449 80.8682 278.484 80.0176 280.001 80.0176C281.429 80.0176 282.324 80.7793 282.464 81.8965H281.397ZM286.945 85.0449C286.945 83.4644 288.342 83.1025 289.535 83.0137C289.979 82.9819 291.09 82.9185 291.401 82.9121V82.3535C291.401 81.4775 290.881 80.9697 289.84 80.9697C288.97 80.9697 288.443 81.3696 288.291 81.8965H287.148C287.288 80.7856 288.367 80.0176 289.891 80.0176C290.792 80.0176 292.487 80.2842 292.48 82.4551V87H291.401V86.0605H291.351C291.122 86.5239 290.494 87.1587 289.294 87.165C287.986 87.1587 286.945 86.3906 286.945 85.0449ZM288.037 85.0957C288.043 85.8257 288.646 86.1938 289.484 86.1875C290.716 86.1938 291.401 85.3687 291.401 84.499V83.8071C291.078 83.8262 289.992 83.9087 289.662 83.9277C288.672 83.9912 288.043 84.3403 288.037 85.0957ZM297.317 80.1064V81.0205H295.794V87H294.689V81.0205H293.585V80.1064H294.689V79.167C294.696 78.0498 295.438 77.377 296.657 77.377C296.924 77.377 297.241 77.4087 297.47 77.4531V78.4307C297.235 78.3926 297.038 78.3799 296.898 78.3799C296.13 78.3799 295.788 78.6973 295.794 79.4082V80.1064H297.317ZM301.621 80.1064V81.0205H300.174V85.0195C300.167 85.9019 300.612 86.0479 301.075 86.0479C301.272 86.0479 301.564 86.0288 301.723 86.0225V87.0381C301.551 87.0635 301.285 87.0889 300.961 87.0889C300.041 87.0889 299.076 86.5176 299.069 85.2988V81.0205H298.028V80.1064H299.069V78.4561H300.174V80.1064H301.621ZM305.849 87.1396C303.855 87.146 302.624 85.7241 302.624 83.6104C302.624 81.4902 303.875 80.0176 305.747 80.0176C307.194 80.0176 308.724 80.9062 308.718 83.458V83.915H303.716C303.773 85.375 304.624 86.1748 305.849 86.1748C306.674 86.1748 307.194 85.813 307.448 85.3877H308.616C308.292 86.4351 307.271 87.146 305.849 87.1396ZM303.722 82.9883H307.613C307.607 81.8394 306.883 80.9824 305.747 80.9824C304.554 80.9824 303.798 81.9219 303.722 82.9883ZM310.14 87V80.1064H311.193V81.1602H311.27C311.517 80.4619 312.234 79.9985 313.047 79.9922C313.212 79.9985 313.491 80.0049 313.618 80.0176V81.1221C313.536 81.103 313.244 81.0459 312.958 81.0459C311.968 81.0459 311.231 81.7314 311.231 82.6582V87H310.14ZM318.646 89.5898C318.411 89.5835 318.176 89.5771 318.036 89.5645V88.5869C318.15 88.5996 318.398 88.606 318.569 88.6123C319.014 88.606 319.388 88.5806 319.75 87.5713L319.953 87.0508L317.401 80.1064H318.595L320.474 85.5781H320.55L322.429 80.1064H323.622L320.702 87.9902C320.296 89.0757 319.623 89.5835 318.646 89.5898ZM327.393 87.1396C325.514 87.146 324.244 85.7241 324.244 83.585C324.244 81.4331 325.514 80.0176 327.393 80.0176C329.265 80.0176 330.522 81.4331 330.516 83.585C330.522 85.7241 329.265 87.146 327.393 87.1396ZM325.336 83.585C325.342 84.9624 325.99 86.1748 327.393 86.1748C328.783 86.1748 329.424 84.9624 329.424 83.585C329.424 82.2139 328.783 80.9824 327.393 80.9824C325.99 80.9824 325.342 82.2139 325.336 83.585ZM336.305 84.1689V80.1064H337.384V87H336.305V85.832H336.229C335.905 86.5303 335.219 87.0889 334.185 87.0889C332.877 87.0889 331.944 86.2383 331.95 84.4863V80.1064H333.042V84.4102C333.042 85.4004 333.658 86.0415 334.54 86.0352C335.321 86.0415 336.298 85.4575 336.305 84.1689ZM340.062 77.8086V80.9824H339.06V77.8086H340.062ZM341.751 87V80.1064H342.805V81.1602H342.881C343.128 80.4619 343.846 79.9985 344.658 79.9922C344.823 79.9985 345.103 80.0049 345.229 80.0176V81.1221C345.147 81.103 344.855 81.0459 344.569 81.0459C343.579 81.0459 342.843 81.7314 342.843 82.6582V87H341.751ZM348.962 87.1396C346.969 87.146 345.737 85.7241 345.737 83.6104C345.737 81.4902 346.988 80.0176 348.86 80.0176C350.308 80.0176 351.837 80.9062 351.831 83.458V83.915H346.829C346.886 85.375 347.737 86.1748 348.962 86.1748C349.787 86.1748 350.308 85.813 350.562 85.3877H351.729C351.406 86.4351 350.384 87.146 348.962 87.1396ZM346.835 82.9883H350.727C350.72 81.8394 349.997 80.9824 348.86 80.9824C347.667 80.9824 346.912 81.9219 346.835 82.9883ZM359.309 89.7295C357.639 89.7295 356.509 88.9995 356.389 87.7236H357.531C357.677 88.4282 358.331 88.7773 359.309 88.7773C360.489 88.7773 361.213 88.2632 361.213 87.127V85.7305H361.124C360.889 86.1113 360.451 86.8921 359.118 86.8984C357.442 86.8921 356.186 85.6289 356.186 83.458C356.186 81.3379 357.398 80.0176 359.131 80.0176C360.47 80.0176 360.902 80.8301 361.149 81.1982H361.238V80.1064H362.305V87.1904C362.298 88.9678 360.991 89.7295 359.309 89.7295ZM357.29 83.4961C357.29 84.9243 357.963 85.9209 359.271 85.9209C360.534 85.9209 361.232 85.0132 361.238 83.4961C361.232 82.0171 360.553 80.9951 359.271 80.9951C357.944 80.9951 357.29 82.106 357.29 83.4961ZM366.862 87.1396C364.983 87.146 363.714 85.7241 363.714 83.585C363.714 81.4331 364.983 80.0176 366.862 80.0176C368.735 80.0176 369.992 81.4331 369.985 83.585C369.992 85.7241 368.735 87.146 366.862 87.1396ZM364.806 83.585C364.812 84.9624 365.459 86.1748 366.862 86.1748C368.252 86.1748 368.894 84.9624 368.894 83.585C368.894 82.2139 368.252 80.9824 366.862 80.9824C365.459 80.9824 364.812 82.2139 364.806 83.585ZM372.512 82.8613V87H371.42V80.1064H372.474V81.1855H372.562C372.886 80.481 373.534 80.0176 374.581 80.0176C375.978 80.0176 376.911 80.8682 376.904 82.6201V87H375.812V82.6963C375.812 81.6299 375.229 80.9951 374.251 80.9951C373.248 80.9951 372.512 81.668 372.512 82.8613ZM381.551 87.1396C379.558 87.146 378.326 85.7241 378.326 83.6104C378.326 81.4902 379.577 80.0176 381.449 80.0176C382.896 80.0176 384.426 80.9062 384.42 83.458V83.915H379.418C379.475 85.375 380.326 86.1748 381.551 86.1748C382.376 86.1748 382.896 85.813 383.15 85.3877H384.318C383.995 86.4351 382.973 87.146 381.551 87.1396ZM379.424 82.9883H383.315C383.309 81.8394 382.585 80.9824 381.449 80.9824C380.256 80.9824 379.5 81.9219 379.424 82.9883ZM26.1582 94.8086V104H25.0156V94.8086H26.1582ZM31.0586 97.1064V98.0205H29.6113V102.02C29.605 102.902 30.0493 103.048 30.5127 103.048C30.7095 103.048 31.0015 103.029 31.1602 103.022V104.038C30.9888 104.063 30.7222 104.089 30.3984 104.089C29.478 104.089 28.5132 103.518 28.5068 102.299V98.0205H27.4658V97.1064H28.5068V95.4561H29.6113V97.1064H31.0586ZM37.2793 104L35.1846 97.1064H36.3398L37.8125 102.362H37.876L39.3359 97.1064H40.5039L41.9385 102.337H42.0146L43.4873 97.1064H44.6299L42.5352 104H41.4561L39.958 98.7441H39.8564L38.3711 104H37.2793ZM45.8359 104V97.1064H46.9277V104H45.8359ZM45.6201 95.2402C45.6138 94.834 45.9629 94.5103 46.3818 94.5166C46.8008 94.5103 47.1499 94.834 47.1562 95.2402C47.1499 95.6401 46.8008 95.9639 46.3818 95.9639C45.9629 95.9639 45.6138 95.6401 45.6201 95.2402ZM49.7588 94.8086V104H48.667V94.8086H49.7588ZM52.5898 94.8086V104H51.498V94.8086H52.5898ZM57.7314 104V94.8086H58.8232V98.1982H58.9121C59.147 97.8301 59.5596 97.0176 60.9053 97.0176C62.6318 97.0176 63.8442 98.3887 63.8506 100.572C63.8442 102.762 62.6318 104.146 60.918 104.14C59.5977 104.146 59.147 103.327 58.9121 102.946H58.7852V104H57.7314ZM58.7979 100.547C58.7979 102.096 59.4961 103.162 60.7529 103.162C62.0669 103.162 62.7397 102.013 62.7461 100.547C62.7397 99.106 62.0859 97.9951 60.7529 97.9951C59.4834 97.9951 58.7979 99.0171 58.7979 100.547ZM68.167 104.14C66.1738 104.146 64.9424 102.724 64.9424 100.61C64.9424 98.4902 66.1929 97.0176 68.0654 97.0176C69.5127 97.0176 71.0425 97.9062 71.0361 100.458V100.915H66.0342C66.0913 102.375 66.9419 103.175 68.167 103.175C68.9922 103.175 69.5127 102.813 69.7666 102.388H70.9346C70.6108 103.435 69.5889 104.146 68.167 104.14ZM66.0405 99.9883H69.9316C69.9253 98.8394 69.2017 97.9824 68.0654 97.9824C66.8721 97.9824 66.1167 98.9219 66.0405 99.9883ZM79.5547 98.8965C79.4023 98.3252 78.9644 97.9507 78.1582 97.9443C77.3076 97.9507 76.7046 98.4077 76.6982 98.9854C76.7046 99.4424 77.0728 99.7534 77.8789 99.9502L78.9072 100.204C80.1387 100.496 80.7417 101.112 80.748 102.07C80.7417 103.264 79.7705 104.146 78.0439 104.14C76.4951 104.146 75.5747 103.454 75.3906 102.197H76.5332C76.6602 102.87 77.1489 103.194 78.0186 103.188C79.0024 103.194 79.6182 102.781 79.6182 102.134C79.6182 101.645 79.269 101.328 78.4883 101.144L77.4473 100.902C76.2476 100.623 75.6064 99.9692 75.6064 99.0488C75.6064 97.8682 76.6411 97.0176 78.1582 97.0176C79.5864 97.0176 80.4814 97.7793 80.6211 98.8965H79.5547ZM83.2617 99.8613V104H82.1699V94.8086H83.2617V98.1855H83.3506C83.6743 97.4746 84.29 97.0176 85.3818 97.0176C86.791 97.0176 87.7305 97.8491 87.7305 99.6201V104H86.6387V99.6963C86.6387 98.6108 86.042 97.9951 85.0518 97.9951C84.0234 97.9951 83.2617 98.668 83.2617 99.8613ZM89.1523 102.045C89.1523 100.464 90.5488 100.103 91.7422 100.014C92.1865 99.9819 93.2974 99.9185 93.6084 99.9121V99.3535C93.6084 98.4775 93.0879 97.9697 92.0469 97.9697C91.1772 97.9697 90.6504 98.3696 90.498 98.8965H89.3555C89.4951 97.7856 90.5742 97.0176 92.0977 97.0176C92.999 97.0176 94.6938 97.2842 94.6875 99.4551V104H93.6084V103.061H93.5576C93.3291 103.524 92.7007 104.159 91.501 104.165C90.1934 104.159 89.1523 103.391 89.1523 102.045ZM90.2441 102.096C90.2505 102.826 90.8535 103.194 91.6914 103.188C92.9229 103.194 93.6084 102.369 93.6084 101.499V100.807C93.2847 100.826 92.1992 100.909 91.8691 100.928C90.8789 100.991 90.2505 101.34 90.2441 102.096ZM96.4395 104V97.1064H97.4932V98.1602H97.5693C97.8169 97.4619 98.5342 96.9985 99.3467 96.9922C99.5117 96.9985 99.791 97.0049 99.918 97.0176V98.1221C99.8354 98.103 99.5435 98.0459 99.2578 98.0459C98.2676 98.0459 97.5312 98.7314 97.5312 99.6582V104H96.4395ZM103.65 104.14C101.657 104.146 100.426 102.724 100.426 100.61C100.426 98.4902 101.676 97.0176 103.549 97.0176C104.996 97.0176 106.526 97.9062 106.52 100.458V100.915H101.518C101.575 102.375 102.425 103.175 103.65 103.175C104.476 103.175 104.996 102.813 105.25 102.388H106.418C106.094 103.435 105.072 104.146 103.65 104.14ZM101.524 99.9883H105.415C105.409 98.8394 104.685 97.9824 103.549 97.9824C102.355 97.9824 101.6 98.9219 101.524 99.9883ZM110.544 104.14C108.824 104.146 107.611 102.762 107.611 100.572C107.611 98.3887 108.824 97.0176 110.557 97.0176C111.896 97.0176 112.315 97.8301 112.55 98.1982H112.626V94.8086H113.73V104H112.664V102.946H112.55C112.309 103.327 111.858 104.146 110.544 104.14ZM108.716 100.547C108.716 102.013 109.389 103.162 110.696 103.162C111.959 103.162 112.658 102.096 112.664 100.547C112.658 99.0171 111.979 97.9951 110.696 97.9951C109.37 97.9951 108.716 99.106 108.716 100.547ZM120.434 104L118.339 97.1064H119.494L120.967 102.362H121.03L122.49 97.1064H123.658L125.093 102.337H125.169L126.642 97.1064H127.784L125.689 104H124.61L123.112 98.7441H123.011L121.525 104H120.434ZM128.99 104V97.1064H130.082V104H128.99ZM128.774 95.2402C128.768 94.834 129.117 94.5103 129.536 94.5166C129.955 94.5103 130.304 94.834 130.311 95.2402C130.304 95.6401 129.955 95.9639 129.536 95.9639C129.117 95.9639 128.768 95.6401 128.774 95.2402ZM134.83 97.1064V98.0205H133.383V102.02C133.376 102.902 133.821 103.048 134.284 103.048C134.481 103.048 134.773 103.029 134.932 103.022V104.038C134.76 104.063 134.494 104.089 134.17 104.089C133.25 104.089 132.285 103.518 132.278 102.299V98.0205H131.237V97.1064H132.278V95.4561H133.383V97.1064H134.83ZM137.483 99.8613V104H136.392V94.8086H137.483V98.1855H137.572C137.896 97.4746 138.512 97.0176 139.604 97.0176C141.013 97.0176 141.952 97.8491 141.952 99.6201V104H140.86V99.6963C140.86 98.6108 140.264 97.9951 139.273 97.9951C138.245 97.9951 137.483 98.668 137.483 99.8613ZM147.665 106.59C147.43 106.583 147.195 106.577 147.056 106.564V105.587C147.17 105.6 147.417 105.606 147.589 105.612C148.033 105.606 148.408 105.581 148.77 104.571L148.973 104.051L146.421 97.1064H147.614L149.493 102.578H149.569L151.448 97.1064H152.642L149.722 104.99C149.315 106.076 148.643 106.583 147.665 106.59ZM156.412 104.14C154.533 104.146 153.264 102.724 153.264 100.585C153.264 98.4331 154.533 97.0176 156.412 97.0176C158.285 97.0176 159.542 98.4331 159.535 100.585C159.542 102.724 158.285 104.146 156.412 104.14ZM154.355 100.585C154.362 101.962 155.009 103.175 156.412 103.175C157.802 103.175 158.443 101.962 158.443 100.585C158.443 99.2139 157.802 97.9824 156.412 97.9824C155.009 97.9824 154.362 99.2139 154.355 100.585ZM165.324 101.169V97.1064H166.403V104H165.324V102.832H165.248C164.924 103.53 164.239 104.089 163.204 104.089C161.896 104.089 160.963 103.238 160.97 101.486V97.1064H162.062V101.41C162.062 102.4 162.677 103.042 163.56 103.035C164.34 103.042 165.318 102.458 165.324 101.169ZM168.155 104V97.1064H169.209V98.1602H169.285C169.533 97.4619 170.25 96.9985 171.062 96.9922C171.228 96.9985 171.507 97.0049 171.634 97.0176V98.1221C171.551 98.103 171.259 98.0459 170.974 98.0459C169.983 98.0459 169.247 98.7314 169.247 99.6582V104H168.155ZM179.048 97.1064V98.0205H177.524V104H176.42V98.0205H175.315V97.1064H176.42V96.167C176.426 95.0498 177.169 94.377 178.388 94.377C178.654 94.377 178.972 94.4087 179.2 94.4531V95.4307C178.965 95.3926 178.769 95.3799 178.629 95.3799C177.861 95.3799 177.518 95.6973 177.524 96.4082V97.1064H179.048ZM179.81 102.045C179.81 100.464 181.206 100.103 182.399 100.014C182.844 99.9819 183.955 99.9185 184.266 99.9121V99.3535C184.266 98.4775 183.745 97.9697 182.704 97.9697C181.834 97.9697 181.308 98.3696 181.155 98.8965H180.013C180.152 97.7856 181.231 97.0176 182.755 97.0176C183.656 97.0176 185.351 97.2842 185.345 99.4551V104H184.266V103.061H184.215C183.986 103.524 183.358 104.159 182.158 104.165C180.851 104.159 179.81 103.391 179.81 102.045ZM180.901 102.096C180.908 102.826 181.511 103.194 182.349 103.188C183.58 103.194 184.266 102.369 184.266 101.499V100.807C183.942 100.826 182.856 100.909 182.526 100.928C181.536 100.991 180.908 101.34 180.901 102.096ZM187.097 104V97.1064H188.15V98.1855H188.239C188.525 97.4492 189.191 97.0176 190.093 97.0176C190.994 97.0176 191.61 97.4492 191.934 98.1855H192.01C192.359 97.4746 193.089 97.0176 194.079 97.0176C195.304 97.0176 196.187 97.7666 196.187 99.3916V104H195.095V99.4043C195.088 98.3887 194.454 97.9951 193.698 97.9951C192.74 97.9951 192.194 98.6426 192.188 99.5186V104H191.083V99.29C191.089 98.5156 190.531 97.9951 189.737 97.9951C188.912 97.9951 188.188 98.6934 188.188 99.6963V104H187.097ZM197.938 104V97.1064H199.03V104H197.938ZM197.723 95.2402C197.716 94.834 198.065 94.5103 198.484 94.5166C198.903 94.5103 199.252 94.834 199.259 95.2402C199.252 95.6401 198.903 95.9639 198.484 95.9639C198.065 95.9639 197.716 95.6401 197.723 95.2402ZM201.861 94.8086V104H200.77V94.8086H201.861ZM204.299 106.59C204.064 106.583 203.829 106.577 203.689 106.564V105.587C203.804 105.6 204.051 105.606 204.223 105.612C204.667 105.606 205.042 105.581 205.403 104.571L205.606 104.051L203.055 97.1064H204.248L206.127 102.578H206.203L208.082 97.1064H209.275L206.355 104.99C205.949 106.076 205.276 106.583 204.299 106.59ZM213.414 102.045C213.414 100.464 214.811 100.103 216.004 100.014C216.448 99.9819 217.559 99.9185 217.87 99.9121V99.3535C217.87 98.4775 217.35 97.9697 216.309 97.9697C215.439 97.9697 214.912 98.3696 214.76 98.8965H213.617C213.757 97.7856 214.836 97.0176 216.359 97.0176C217.261 97.0176 218.956 97.2842 218.949 99.4551V104H217.87V103.061H217.819C217.591 103.524 216.962 104.159 215.763 104.165C214.455 104.159 213.414 103.391 213.414 102.045ZM214.506 102.096C214.512 102.826 215.115 103.194 215.953 103.188C217.185 103.194 217.87 102.369 217.87 101.499V100.807C217.546 100.826 216.461 100.909 216.131 100.928C215.141 100.991 214.512 101.34 214.506 102.096ZM221.793 99.8613V104H220.701V97.1064H221.755V98.1855H221.844C222.167 97.481 222.815 97.0176 223.862 97.0176C225.259 97.0176 226.192 97.8682 226.186 99.6201V104H225.094V99.6963C225.094 98.6299 224.51 97.9951 223.532 97.9951C222.529 97.9951 221.793 98.668 221.793 99.8613ZM230.54 104.14C228.82 104.146 227.607 102.762 227.607 100.572C227.607 98.3887 228.82 97.0176 230.553 97.0176C231.892 97.0176 232.311 97.8301 232.546 98.1982H232.622V94.8086H233.727V104H232.66V102.946H232.546C232.305 103.327 231.854 104.146 230.54 104.14ZM228.712 100.547C228.712 102.013 229.385 103.162 230.692 103.162C231.956 103.162 232.654 102.096 232.66 100.547C232.654 99.0171 231.975 97.9951 230.692 97.9951C229.366 97.9951 228.712 99.106 228.712 100.547ZM241.966 97.1064V98.0205H240.442V104H239.338V98.0205H238.233V97.1064H239.338V96.167C239.344 95.0498 240.087 94.377 241.306 94.377C241.572 94.377 241.89 94.4087 242.118 94.4531V95.4307C241.883 95.3926 241.687 95.3799 241.547 95.3799C240.779 95.3799 240.436 95.6973 240.442 96.4082V97.1064H241.966ZM243.261 104V97.1064H244.314V98.1602H244.391C244.638 97.4619 245.355 96.9985 246.168 96.9922C246.333 96.9985 246.612 97.0049 246.739 97.0176V98.1221C246.657 98.103 246.365 98.0459 246.079 98.0459C245.089 98.0459 244.353 98.7314 244.353 99.6582V104H243.261ZM247.806 104V97.1064H248.897V104H247.806ZM247.59 95.2402C247.583 94.834 247.933 94.5103 248.352 94.5166C248.771 94.5103 249.12 94.834 249.126 95.2402C249.12 95.6401 248.771 95.9639 248.352 95.9639C247.933 95.9639 247.583 95.6401 247.59 95.2402ZM253.531 104.14C251.538 104.146 250.307 102.724 250.307 100.61C250.307 98.4902 251.557 97.0176 253.43 97.0176C254.877 97.0176 256.407 97.9062 256.4 100.458V100.915H251.398C251.456 102.375 252.306 103.175 253.531 103.175C254.356 103.175 254.877 102.813 255.131 102.388H256.299C255.975 103.435 254.953 104.146 253.531 104.14ZM251.405 99.9883H255.296C255.29 98.8394 254.566 97.9824 253.43 97.9824C252.236 97.9824 251.481 98.9219 251.405 99.9883ZM258.914 99.8613V104H257.822V97.1064H258.876V98.1855H258.965C259.289 97.481 259.936 97.0176 260.983 97.0176C262.38 97.0176 263.313 97.8682 263.307 99.6201V104H262.215V99.6963C262.215 98.6299 261.631 97.9951 260.653 97.9951C259.65 97.9951 258.914 98.668 258.914 99.8613ZM267.661 104.14C265.941 104.146 264.729 102.762 264.729 100.572C264.729 98.3887 265.941 97.0176 267.674 97.0176C269.013 97.0176 269.432 97.8301 269.667 98.1982H269.743V94.8086H270.848V104H269.781V102.946H269.667C269.426 103.327 268.975 104.146 267.661 104.14ZM265.833 100.547C265.833 102.013 266.506 103.162 267.813 103.162C269.077 103.162 269.775 102.096 269.781 100.547C269.775 99.0171 269.096 97.9951 267.813 97.9951C266.487 97.9951 265.833 99.106 265.833 100.547ZM276.573 98.8965C276.421 98.3252 275.983 97.9507 275.177 97.9443C274.326 97.9507 273.723 98.4077 273.717 98.9854C273.723 99.4424 274.091 99.7534 274.897 99.9502L275.926 100.204C277.157 100.496 277.76 101.112 277.767 102.07C277.76 103.264 276.789 104.146 275.062 104.14C273.514 104.146 272.593 103.454 272.409 102.197H273.552C273.679 102.87 274.167 103.194 275.037 103.188C276.021 103.194 276.637 102.781 276.637 102.134C276.637 101.645 276.288 101.328 275.507 101.144L274.466 100.902C273.266 100.623 272.625 99.9692 272.625 99.0488C272.625 97.8682 273.66 97.0176 275.177 97.0176C276.605 97.0176 277.5 97.7793 277.64 98.8965H276.573ZM285.536 97.1064V98.0205H284.013V104H282.908V98.0205H281.804V97.1064H282.908V96.167C282.915 95.0498 283.657 94.377 284.876 94.377C285.143 94.377 285.46 94.4087 285.688 94.4531V95.4307C285.454 95.3926 285.257 95.3799 285.117 95.3799C284.349 95.3799 284.006 95.6973 284.013 96.4082V97.1064H285.536ZM286.831 104V97.1064H287.885V98.1602H287.961C288.208 97.4619 288.926 96.9985 289.738 96.9922C289.903 96.9985 290.183 97.0049 290.31 97.0176V98.1221C290.227 98.103 289.935 98.0459 289.649 98.0459C288.659 98.0459 287.923 98.7314 287.923 99.6582V104H286.831ZM293.966 104.14C292.087 104.146 290.817 102.724 290.817 100.585C290.817 98.4331 292.087 97.0176 293.966 97.0176C295.838 97.0176 297.095 98.4331 297.089 100.585C297.095 102.724 295.838 104.146 293.966 104.14ZM291.909 100.585C291.916 101.962 292.563 103.175 293.966 103.175C295.356 103.175 295.997 101.962 295.997 100.585C295.997 99.2139 295.356 97.9824 293.966 97.9824C292.563 97.9824 291.916 99.2139 291.909 100.585ZM298.523 104V97.1064H299.577V98.1855H299.666C299.952 97.4492 300.618 97.0176 301.52 97.0176C302.421 97.0176 303.037 97.4492 303.36 98.1855H303.437C303.786 97.4746 304.516 97.0176 305.506 97.0176C306.731 97.0176 307.613 97.7666 307.613 99.3916V104H306.521V99.4043C306.515 98.3887 305.88 97.9951 305.125 97.9951C304.167 97.9951 303.621 98.6426 303.614 99.5186V104H302.51V99.29C302.516 98.5156 301.958 97.9951 301.164 97.9951C300.339 97.9951 299.615 98.6934 299.615 99.6963V104H298.523ZM315.637 97.1064V98.0205H314.189V102.02C314.183 102.902 314.627 103.048 315.091 103.048C315.288 103.048 315.58 103.029 315.738 103.022V104.038C315.567 104.063 315.3 104.089 314.977 104.089C314.056 104.089 313.091 103.518 313.085 102.299V98.0205H312.044V97.1064H313.085V95.4561H314.189V97.1064H315.637ZM317.046 104V97.1064H318.138V104H317.046ZM316.83 95.2402C316.824 94.834 317.173 94.5103 317.592 94.5166C318.011 94.5103 318.36 94.834 318.366 95.2402C318.36 95.6401 318.011 95.9639 317.592 95.9639C317.173 95.9639 316.824 95.6401 316.83 95.2402ZM319.877 104V97.1064H320.931V98.1855H321.02C321.305 97.4492 321.972 97.0176 322.873 97.0176C323.774 97.0176 324.39 97.4492 324.714 98.1855H324.79C325.139 97.4746 325.869 97.0176 326.859 97.0176C328.084 97.0176 328.967 97.7666 328.967 99.3916V104H327.875V99.4043C327.869 98.3887 327.234 97.9951 326.479 97.9951C325.52 97.9951 324.974 98.6426 324.968 99.5186V104H323.863V99.29C323.87 98.5156 323.311 97.9951 322.518 97.9951C321.692 97.9951 320.969 98.6934 320.969 99.6963V104H319.877ZM333.613 104.14C331.62 104.146 330.389 102.724 330.389 100.61C330.389 98.4902 331.639 97.0176 333.512 97.0176C334.959 97.0176 336.489 97.9062 336.482 100.458V100.915H331.48C331.538 102.375 332.388 103.175 333.613 103.175C334.438 103.175 334.959 102.813 335.213 102.388H336.381C336.057 103.435 335.035 104.146 333.613 104.14ZM331.487 99.9883H335.378C335.372 98.8394 334.648 97.9824 333.512 97.9824C332.318 97.9824 331.563 98.9219 331.487 99.9883ZM344.176 97.1064V98.0205H342.729V102.02C342.722 102.902 343.167 103.048 343.63 103.048C343.827 103.048 344.119 103.029 344.277 103.022V104.038C344.106 104.063 343.839 104.089 343.516 104.089C342.595 104.089 341.63 103.518 341.624 102.299V98.0205H340.583V97.1064H341.624V95.4561H342.729V97.1064H344.176ZM348.327 104.14C346.448 104.146 345.179 102.724 345.179 100.585C345.179 98.4331 346.448 97.0176 348.327 97.0176C350.2 97.0176 351.457 98.4331 351.45 100.585C351.457 102.724 350.2 104.146 348.327 104.14ZM346.271 100.585C346.277 101.962 346.924 103.175 348.327 103.175C349.717 103.175 350.358 101.962 350.358 100.585C350.358 99.2139 349.717 97.9824 348.327 97.9824C346.924 97.9824 346.277 99.2139 346.271 100.585ZM359.156 97.1064V98.0205H357.709V102.02C357.703 102.902 358.147 103.048 358.61 103.048C358.807 103.048 359.099 103.029 359.258 103.022V104.038C359.086 104.063 358.82 104.089 358.496 104.089C357.576 104.089 356.611 103.518 356.604 102.299V98.0205H355.563V97.1064H356.604V95.4561H357.709V97.1064H359.156ZM360.565 104V97.1064H361.657V104H360.565ZM360.35 95.2402C360.343 94.834 360.692 94.5103 361.111 94.5166C361.53 94.5103 361.879 94.834 361.886 95.2402C361.879 95.6401 361.53 95.9639 361.111 95.9639C360.692 95.9639 360.343 95.6401 360.35 95.2402ZM363.396 104V97.1064H364.45V98.1855H364.539C364.825 97.4492 365.491 97.0176 366.393 97.0176C367.294 97.0176 367.91 97.4492 368.233 98.1855H368.31C368.659 97.4746 369.389 97.0176 370.379 97.0176C371.604 97.0176 372.486 97.7666 372.486 99.3916V104H371.395V99.4043C371.388 98.3887 370.753 97.9951 369.998 97.9951C369.04 97.9951 368.494 98.6426 368.487 99.5186V104H367.383V99.29C367.389 98.5156 366.831 97.9951 366.037 97.9951C365.212 97.9951 364.488 98.6934 364.488 99.6963V104H363.396ZM377.133 104.14C375.14 104.146 373.908 102.724 373.908 100.61C373.908 98.4902 375.159 97.0176 377.031 97.0176C378.479 97.0176 380.008 97.9062 380.002 100.458V100.915H375C375.057 102.375 375.908 103.175 377.133 103.175C377.958 103.175 378.479 102.813 378.732 102.388H379.9C379.577 103.435 378.555 104.146 377.133 104.14ZM375.006 99.9883H378.897C378.891 98.8394 378.167 97.9824 377.031 97.9824C375.838 97.9824 375.083 98.9219 375.006 99.9883ZM390.361 97.1064L387.81 104H386.68L384.141 97.1064H385.334L387.213 102.578H387.289L389.168 97.1064H390.361ZM391.567 104V97.1064H392.659V104H391.567ZM391.352 95.2402C391.345 94.834 391.694 94.5103 392.113 94.5166C392.532 94.5103 392.881 94.834 392.888 95.2402C392.881 95.6401 392.532 95.9639 392.113 95.9639C391.694 95.9639 391.345 95.6401 391.352 95.2402ZM394.068 102.045C394.068 100.464 395.465 100.103 396.658 100.014C397.103 99.9819 398.213 99.9185 398.524 99.9121V99.3535C398.524 98.4775 398.004 97.9697 396.963 97.9697C396.093 97.9697 395.566 98.3696 395.414 98.8965H394.271C394.411 97.7856 395.49 97.0176 397.014 97.0176C397.915 97.0176 399.61 97.2842 399.604 99.4551V104H398.524V103.061H398.474C398.245 103.524 397.617 104.159 396.417 104.165C395.109 104.159 394.068 103.391 394.068 102.045ZM395.16 102.096C395.167 102.826 395.77 103.194 396.607 103.188C397.839 103.194 398.524 102.369 398.524 101.499V100.807C398.201 100.826 397.115 100.909 396.785 100.928C395.795 100.991 395.167 101.34 395.16 102.096ZM405.164 104H403.971L407.335 94.8086H408.541L411.905 104H410.699L409.779 101.41H406.084L405.164 104ZM406.434 100.407H409.43L407.97 96.2939H407.894L406.434 100.407ZM414.292 94.8086V104H413.149V94.8086H414.292ZM416.958 104.076C416.514 104.07 416.133 103.702 416.146 103.251C416.133 102.807 416.514 102.438 416.958 102.438C417.409 102.438 417.777 102.807 417.771 103.251C417.777 103.702 417.409 104.07 416.958 104.076Z" fill="#777777"/>
<rect x="24" y="154" width="455" height="58" rx="12" fill="#00A3FF"/>
<path d="M207.332 175.859H210.633L213.895 181.953H214.031L217.273 175.859H220.574L215.418 184.961V190H212.488V184.961L207.332 175.859ZM224.656 190.215C221.404 190.205 219.412 188.105 219.422 184.746C219.412 181.475 221.434 179.258 224.539 179.258C227.322 179.258 229.52 181.016 229.52 184.629V185.449H222.273C222.273 187.051 223.221 188.037 224.715 188.047C225.701 188.037 226.404 187.607 226.688 186.973H229.441C229.031 188.936 227.273 190.205 224.656 190.215ZM222.273 183.633H226.785C226.775 182.344 225.887 181.416 224.598 181.426C223.27 181.416 222.332 182.412 222.273 183.633ZM237.391 182.539C237.264 181.797 236.619 181.318 235.652 181.309C234.715 181.318 234.002 181.758 234.012 182.402C234.002 182.881 234.373 183.252 235.379 183.457L237.273 183.848C239.334 184.277 240.33 185.195 240.34 186.719C240.33 188.809 238.455 190.205 235.633 190.215C232.771 190.205 231.092 188.926 230.848 186.855H233.758C233.895 187.686 234.568 188.115 235.633 188.125C236.688 188.115 237.391 187.695 237.391 187.012C237.391 186.465 236.941 186.123 235.945 185.918L234.188 185.566C232.166 185.166 231.131 184.131 231.141 182.559C231.131 180.527 232.879 179.258 235.613 179.258C238.289 179.258 239.949 180.527 240.105 182.539H237.391ZM245.262 188.555L243.582 194.121H241.512L242.488 188.555H245.262ZM256.59 190.215C253.387 190.205 251.385 188.008 251.395 184.727C251.385 181.455 253.387 179.258 256.59 179.258C259.803 179.258 261.795 181.455 261.805 184.727C261.795 188.008 259.803 190.205 256.59 190.215ZM254.324 184.727C254.324 186.582 255.096 187.959 256.609 187.969C258.084 187.959 258.865 186.582 258.855 184.727C258.865 182.861 258.084 181.465 256.609 181.465C255.096 181.465 254.324 182.861 254.324 184.727ZM263.621 190V175.859H266.512V183.457H266.668L270.105 179.395H273.426L269.471 183.984L273.641 190H270.242L267.322 185.684L266.512 186.602V190H263.621ZM274.266 187.031C274.275 184.668 276.17 183.896 278.211 183.77C278.973 183.721 280.398 183.652 280.848 183.633V182.773C280.838 181.885 280.232 181.377 279.148 181.367C278.162 181.377 277.547 181.816 277.391 182.539H274.637C274.812 180.703 276.414 179.258 279.227 179.258C281.541 179.258 283.729 180.293 283.719 182.852V190H280.984V188.535H280.906C280.389 189.512 279.373 190.205 277.801 190.195C275.77 190.205 274.275 189.131 274.266 187.031ZM277.039 186.953C277.039 187.764 277.693 188.193 278.621 188.203C279.939 188.193 280.857 187.334 280.848 186.211V185.439C280.408 185.459 279.168 185.527 278.68 185.566C277.674 185.654 277.039 186.133 277.039 186.953ZM287.234 193.984C286.668 193.975 286.141 193.965 285.77 193.926V191.68C286.141 191.709 286.58 191.719 286.941 191.719C287.518 191.719 287.977 191.66 288.328 190.742L288.504 190.293L284.695 179.395H287.723L289.949 187.207H290.066L292.312 179.395H295.379L291.238 191.172C290.633 192.881 289.471 193.975 287.234 193.984Z" fill="white"/>
</svg>
