<svg width="384" height="75" viewBox="0 0 384 75" fill="none" xmlns="http://www.w3.org/2000/svg">
<path d="M0.787867 62.6125C-0.106024 59.9645 2.26562 57.6364 5.0604 57.6364V57.6364C7.75933 57.6364 9.8545 59.9835 11.5975 62.0441C11.868 62.364 12.1703 62.67 12.5043 62.9623C14.2024 64.4032 16.3894 65.1236 19.0652 65.1236C21.6381 65.1236 23.7222 64.5318 25.3174 63.3483C26.9126 62.1647 27.7617 60.621 27.8646 58.717C27.9675 56.9675 27.4015 55.5009 26.1665 54.3174C24.9829 53.1338 23.1047 52.1819 20.5318 51.4614L13.9709 49.7633C5.01717 47.139 0.54031 42.199 0.54031 34.9434C0.54031 30.3121 2.26416 26.5814 5.71185 23.7512C9.21101 20.8181 13.4563 19.3516 18.4477 19.3516C23.5421 19.3516 27.7617 20.8181 31.1064 23.7512C33.2493 25.5974 34.7057 27.8553 35.4757 30.5251C36.2318 33.1465 33.9119 35.4065 31.1836 35.4065V35.4065C28.4553 35.4065 26.4582 32.8714 24.5945 30.8789C24.4353 30.7087 24.2646 30.5455 24.0824 30.3893C22.693 29.1029 20.7634 28.4596 18.2934 28.4596C15.9777 28.4596 14.0738 29.0514 12.5815 30.235C11.0892 31.367 10.3431 32.8593 10.3431 34.7118C10.3431 37.6449 12.4529 39.6775 16.6724 40.8096L23.2333 42.7393C28.5335 44.1801 32.3414 46.3156 34.6571 49.1458C37.0241 51.9246 38.0533 55.1922 37.7445 58.9486C37.4872 63.6313 35.5833 67.3105 32.0327 69.9864C28.5335 72.6622 24.211 74.0001 19.0652 74.0001C13.4048 74.0001 8.82507 72.4306 5.32592 69.2917C3.14093 67.3284 1.62825 65.102 0.787867 62.6125Z" fill="white"/>
<path d="M77.5846 54.3945V24.909C77.5846 22.1808 79.7963 19.9691 82.5246 19.9691V19.9691C85.2528 19.9691 87.4646 22.1808 87.4646 24.909V54.3945C87.4646 60.1579 85.4834 64.8663 81.5211 68.5198C77.6103 72.1219 72.8762 73.9229 67.3187 73.9229C61.6583 73.9229 56.8727 72.1219 52.9619 68.5198C49.0511 64.9177 47.0956 60.2093 47.0956 54.3945V24.9862C47.0956 22.2153 49.3419 19.9691 52.1128 19.9691V19.9691C54.8837 19.9691 57.13 22.2153 57.13 24.9862V54.3945C57.13 57.3277 58.1334 59.7719 60.1403 61.7273C62.0957 63.6313 64.4885 64.5833 67.3187 64.5833C70.1489 64.5833 72.5417 63.6313 74.4971 61.7273C76.5554 59.8234 77.5846 57.3791 77.5846 54.3945Z" fill="white"/>
<path d="M108.504 19.9691C110.629 19.9691 112.563 21.1948 113.47 23.1163L128.965 55.9383L144.361 23.1782C145.282 21.2195 147.251 19.9691 149.415 19.9691V19.9691C152.238 19.9691 154.617 22.0755 154.958 24.8775L160.844 73.151H150.964L146.873 37.7221L132.979 67.1304H125.106L111.135 37.7221L106.967 73.151H97.087L103.053 24.7884C103.393 22.0363 105.731 19.9691 108.504 19.9691V19.9691Z" fill="white"/>
<path d="M169.421 62.6125C168.527 59.9645 170.898 57.6364 173.693 57.6364V57.6364C176.392 57.6364 178.487 59.9835 180.23 62.0441C180.501 62.364 180.803 62.67 181.137 62.9623C182.835 64.4032 185.022 65.1236 187.698 65.1236C190.271 65.1236 192.355 64.5318 193.95 63.3483C195.545 62.1647 196.394 60.621 196.497 58.717C196.6 56.9675 196.034 55.5009 194.799 54.3174C193.616 53.1338 191.738 52.1819 189.165 51.4614L182.604 49.7633C173.65 47.139 169.173 42.199 169.173 34.9434C169.173 30.3121 170.897 26.5814 174.345 23.7512C177.844 20.8181 182.089 19.3516 187.081 19.3516C192.175 19.3516 196.394 20.8181 199.739 23.7512C201.882 25.5974 203.338 27.8553 204.109 30.5251C204.865 33.1465 202.545 35.4065 199.816 35.4065V35.4065C197.088 35.4065 195.091 32.8714 193.227 30.8789C193.068 30.7087 192.897 30.5455 192.715 30.3893C191.326 29.1029 189.396 28.4596 186.926 28.4596C184.611 28.4596 182.707 29.0514 181.214 30.235C179.722 31.367 178.976 32.8593 178.976 34.7118C178.976 37.6449 181.086 39.6775 185.305 40.8096L191.866 42.7393C197.166 44.1801 200.974 46.3156 203.29 49.1458C205.657 51.9246 206.686 55.1922 206.377 58.9486C206.12 63.6313 204.216 67.3105 200.665 69.9864C197.166 72.6622 192.844 74.0001 187.698 74.0001C182.038 74.0001 177.458 72.4306 173.959 69.2917C171.774 67.3284 170.261 65.102 169.421 62.6125Z" stroke="white" stroke-width="1.94737"/>
<path d="M246.217 54.3945V24.909C246.217 22.1808 248.429 19.9691 251.157 19.9691V19.9691C253.886 19.9691 256.097 22.1808 256.097 24.909V54.3945C256.097 60.1579 254.116 64.8663 250.154 68.5198C246.243 72.1219 241.509 73.9229 235.952 73.9229C230.291 73.9229 225.506 72.1219 221.595 68.5198C217.684 64.9177 215.728 60.2093 215.728 54.3945V24.9862C215.728 22.2153 217.975 19.9691 220.746 19.9691V19.9691C223.517 19.9691 225.763 22.2153 225.763 24.9862V54.3945C225.763 57.3277 226.766 59.7719 228.773 61.7273C230.729 63.6313 233.121 64.5833 235.952 64.5833C238.782 64.5833 241.175 63.6313 243.13 61.7273C245.188 59.8234 246.217 57.3791 246.217 54.3945Z" stroke="white" stroke-width="1.94737"/>
<path d="M277.137 19.9691C279.261 19.9691 281.196 21.1948 282.103 23.1163L297.598 55.9383L312.994 23.1782C313.914 21.2195 315.884 19.9691 318.048 19.9691V19.9691C320.871 19.9691 323.25 22.0755 323.591 24.8775L329.476 73.151H319.596L315.506 37.7221L301.612 67.1304H293.739L279.768 37.7221L275.6 73.151H265.72L271.686 24.7884C272.026 22.0363 274.364 19.9691 277.137 19.9691V19.9691Z" stroke="white" stroke-width="1.94737"/>
<path fill-rule="evenodd" clip-rule="evenodd" d="M360.635 46.7368C373.541 46.7368 384.003 36.2744 384.003 23.3684C384.003 10.4624 373.541 0 360.635 0C347.729 0 337.267 10.4624 337.267 23.3684C337.267 36.2744 347.729 46.7368 360.635 46.7368ZM364.288 17.5261C364.288 16.3162 365.269 15.3353 366.479 15.3353C367.689 15.3353 368.67 16.3162 368.67 17.5261C368.67 18.736 367.689 19.7169 366.479 19.7169H353.334C352.931 19.7169 352.604 20.0438 352.604 20.4472C352.604 20.8505 352.931 21.1774 353.334 21.1774H366.479C368.495 21.1774 370.13 19.5427 370.13 17.5261C370.13 15.5095 368.495 13.8748 366.479 13.8748C364.462 13.8748 362.828 15.5095 362.828 17.5261C362.828 17.9294 363.155 18.2564 363.558 18.2564C363.961 18.2564 364.288 17.9294 364.288 17.5261ZM370.861 29.9406C369.651 29.9406 368.67 28.9597 368.67 27.7498C368.67 27.3465 368.343 27.0195 367.939 27.0195C367.536 27.0195 367.209 27.3465 367.209 27.7498C367.209 29.7664 368.844 31.4011 370.861 31.4011C372.877 31.4011 374.512 29.7664 374.512 27.7498C374.512 25.7332 372.877 24.0985 370.861 24.0985H347.492C347.089 24.0985 346.762 24.4254 346.762 24.8287C346.762 25.2321 347.089 25.559 347.492 25.559H370.861C372.07 25.559 373.051 26.5399 373.051 27.7498C373.051 28.9597 372.07 29.9406 370.861 29.9406ZM350.413 29.2103C350.01 29.2103 349.683 29.5373 349.683 29.9406C349.683 30.3439 350.01 30.6708 350.413 30.6708H365.018C365.422 30.6708 365.749 30.3439 365.749 29.9406C365.749 29.5373 365.422 29.2103 365.018 29.2103H350.413Z" fill="white"/>
</svg>
