<svg width="52" height="52" viewBox="0 0 52 52" fill="none" xmlns="http://www.w3.org/2000/svg">
<path fill-rule="evenodd" clip-rule="evenodd" d="M26 52C40.3594 52 52 40.3594 52 26C52 11.6406 40.3594 0 26 0C11.6406 0 0 11.6406 0 26C0 40.3594 11.6406 52 26 52ZM30.0647 19.4998C30.0647 18.1536 31.156 17.0623 32.5022 17.0623C33.8484 17.0623 34.9397 18.1536 34.9397 19.4998C34.9397 20.846 33.8484 21.9373 32.5022 21.9373H17.8772C17.4285 21.9373 17.0647 22.301 17.0647 22.7498C17.0647 23.1985 17.4285 23.5623 17.8772 23.5623H32.5022C34.7459 23.5623 36.5647 21.7434 36.5647 19.4998C36.5647 17.2561 34.7459 15.4373 32.5022 15.4373C30.2586 15.4373 28.4397 17.2561 28.4397 19.4998C28.4397 19.9485 28.8035 20.3123 29.2522 20.3123C29.7009 20.3123 30.0647 19.9485 30.0647 19.4998ZM37.3772 33.3118C36.031 33.3118 34.9397 32.2205 34.9397 30.8743C34.9397 30.4255 34.5759 30.0618 34.1272 30.0618C33.6785 30.0618 33.3147 30.4255 33.3147 30.8743C33.3147 33.1179 35.1336 34.9368 37.3772 34.9368C39.6209 34.9368 41.4397 33.1179 41.4397 30.8743C41.4397 28.6306 39.6209 26.8118 37.3772 26.8118H11.3772C10.9285 26.8118 10.5647 27.1755 10.5647 27.6243C10.5647 28.073 10.9285 28.4368 11.3772 28.4368H37.3772C38.7234 28.4368 39.8147 29.5281 39.8147 30.8743C39.8147 32.2205 38.7234 33.3118 37.3772 33.3118ZM14.6272 32.4998C14.1785 32.4998 13.8147 32.8635 13.8147 33.3123C13.8147 33.761 14.1785 34.1248 14.6272 34.1248H30.8772C31.3259 34.1248 31.6897 33.761 31.6897 33.3123C31.6897 32.8635 31.3259 32.4998 30.8772 32.4998H14.6272Z" fill="white"/>
</svg>
