<svg width="389" height="85" viewBox="0 0 389 85" fill="none" xmlns="http://www.w3.org/2000/svg">
<path d="M21.5068 66.8838C10.6798 66.8838 3.1671 60.5496 3.1671 51.1957H14.7307C14.7307 54.4364 17.9714 56.9406 21.9487 56.9406C25.7051 56.9406 28.5775 55.0256 28.5775 51.7112C28.5775 49.7226 27.4727 47.8812 22.9799 46.4082L16.9403 44.5668C5.74497 41.5471 3.60902 34.6973 3.60902 29.9098C3.60902 20.7768 11.4163 14.3689 21.5068 14.3689C31.2291 14.3689 38.6681 20.1875 38.6681 30.0571H27.1045C27.1045 27.0373 25.2631 24.4594 21.2858 24.4594C17.6768 24.4594 15.3199 26.89 15.3199 29.6888C15.3199 30.72 15.6145 33.0032 20.3284 34.329L25.6314 36.023C32.8494 38.2326 40.2148 41.9153 40.2148 51.122C40.2148 62.0227 30.7871 66.8838 21.5068 66.8838ZM68.3441 66.8838C57.8853 66.8838 48.5313 59.5921 48.5313 47.8812V15.2528H60.0949V46.9974C60.0949 53.4053 64.1458 55.9095 68.3441 55.9095C72.4687 55.9095 76.5196 53.4053 76.5196 46.9974V15.2528H88.0832V47.8812C88.0832 59.5921 78.8029 66.8838 68.3441 66.8838ZM151.769 15.2528L157.956 66H146.097L142.783 37.1278L131.735 60.1814H122.897L111.849 37.2015L108.46 66H96.6023L102.863 15.2528H112.511L127.316 46.9974L141.899 15.2528H151.769Z" fill="white"/>
<mask id="path-2-outside-1_207_1396" maskUnits="userSpaceOnUse" x="163" y="12" width="160" height="57" fill="black">
<rect fill="white" x="163" y="12" width="160" height="57"/>
<path d="M183.507 66.8838C172.68 66.8838 165.167 60.5496 165.167 51.1957H176.731C176.731 54.4364 179.971 56.9406 183.949 56.9406C187.705 56.9406 190.578 55.0256 190.578 51.7112C190.578 49.7226 189.473 47.8812 184.98 46.4082L178.94 44.5668C167.745 41.5471 165.609 34.6973 165.609 29.9098C165.609 20.7768 173.416 14.3689 183.507 14.3689C193.229 14.3689 200.668 20.1875 200.668 30.0571H189.104C189.104 27.0373 187.263 24.4594 183.286 24.4594C179.677 24.4594 177.32 26.89 177.32 29.6888C177.32 30.72 177.615 33.0032 182.328 34.329L187.631 36.023C194.849 38.2326 202.215 41.9153 202.215 51.122C202.215 62.0227 192.787 66.8838 183.507 66.8838ZM230.344 66.8838C219.885 66.8838 210.531 59.5921 210.531 47.8812V15.2528H222.095V46.9974C222.095 53.4053 226.146 55.9095 230.344 55.9095C234.469 55.9095 238.52 53.4053 238.52 46.9974V15.2528H250.083V47.8812C250.083 59.5921 240.803 66.8838 230.344 66.8838ZM313.769 15.2528L319.956 66H308.097L304.783 37.1278L293.735 60.1814H284.897L273.849 37.2015L270.46 66H258.602L264.863 15.2528H274.511L289.316 46.9974L303.899 15.2528H313.769Z"/>
</mask>
<path d="M165.167 51.1957V49.1716H163.143V51.1957H165.167ZM176.731 51.1957H178.755V49.1716H176.731V51.1957ZM184.98 46.4082L185.61 44.4849L185.59 44.4783L185.57 44.4721L184.98 46.4082ZM178.94 44.5668L179.531 42.6308L179.499 42.6212L179.467 42.6126L178.94 44.5668ZM200.668 30.0571V32.0812H202.692V30.0571H200.668ZM189.104 30.0571H187.08V32.0812H189.104V30.0571ZM182.328 34.329L182.944 32.4009L182.91 32.3901L182.876 32.3805L182.328 34.329ZM187.631 36.023L187.015 37.9511L187.027 37.9549L187.039 37.9585L187.631 36.023ZM183.507 64.8598C178.478 64.8598 174.388 63.3905 171.589 61.0067C168.817 58.6452 167.191 55.2902 167.191 51.1957H163.143C163.143 56.4551 165.273 60.9441 168.964 64.0883C172.629 67.21 177.708 68.9079 183.507 68.9079V64.8598ZM165.167 53.2197H176.731V49.1716H165.167V53.2197ZM174.707 51.1957C174.707 55.9756 179.328 58.9647 183.949 58.9647V54.9166C180.615 54.9166 178.755 52.8972 178.755 51.1957H174.707ZM183.949 58.9647C186.145 58.9647 188.264 58.4077 189.888 57.1866C191.567 55.924 192.602 54.0257 192.602 51.7112H188.553C188.553 52.7112 188.152 53.4276 187.455 53.9511C186.704 54.516 185.509 54.9166 183.949 54.9166V58.9647ZM192.602 51.7112C192.602 50.2811 192.18 48.8034 190.94 47.4815C189.772 46.2372 188.01 45.2716 185.61 44.4849L184.349 48.3315C186.443 49.0179 187.479 49.7094 187.987 50.2512C188.423 50.7154 188.553 51.1527 188.553 51.7112H192.602ZM185.57 44.4721L179.531 42.6308L178.35 46.5029L184.39 48.3443L185.57 44.4721ZM179.467 42.6126C174.222 41.1977 171.327 38.9548 169.72 36.7194C168.1 34.4678 167.633 32.0097 167.633 29.9098H163.585C163.585 32.5974 164.186 35.9579 166.433 39.083C168.692 42.2243 172.463 44.9162 178.413 46.5211L179.467 42.6126ZM167.633 29.9098C167.633 22.1827 174.222 16.393 183.507 16.393V12.3449C172.61 12.3449 163.585 19.3708 163.585 29.9098H167.633ZM183.507 16.393C187.976 16.393 191.762 17.7288 194.401 20.0358C197.009 22.3161 198.644 25.6694 198.644 30.0571H202.692C202.692 24.5753 200.607 20.0845 197.065 16.9881C193.554 13.9184 188.76 12.3449 183.507 12.3449V16.393ZM200.668 28.033H189.104V32.0812H200.668V28.033ZM191.129 30.0571C191.129 28.1477 190.544 26.215 189.164 24.742C187.76 23.2433 185.733 22.4354 183.286 22.4354V26.4835C184.816 26.4835 185.699 26.9645 186.21 27.5098C186.744 28.0806 187.08 28.9467 187.08 30.0571H191.129ZM183.286 22.4354C178.72 22.4354 175.296 25.6173 175.296 29.6888H179.344C179.344 28.1628 180.633 26.4835 183.286 26.4835V22.4354ZM175.296 29.6888C175.296 30.4424 175.413 31.7755 176.45 33.1292C177.463 34.4518 179.158 35.54 181.78 36.2775L182.876 32.3805C180.785 31.7923 179.976 31.076 179.663 30.6677C179.374 30.2905 179.344 29.9664 179.344 29.6888H175.296ZM181.712 36.2571L187.015 37.9511L188.247 34.095L182.944 32.4009L181.712 36.2571ZM187.039 37.9585C190.576 39.0413 193.895 40.4165 196.314 42.4865C198.644 44.4807 200.191 47.1562 200.191 51.122H204.239C204.239 45.8811 202.103 42.112 198.946 39.4107C195.878 36.7853 191.905 35.2144 188.224 34.0876L187.039 37.9585ZM200.191 51.122C200.191 55.9025 198.162 59.2466 195.144 61.4582C192.056 63.7221 187.83 64.8598 183.507 64.8598V68.9079C188.464 68.9079 193.592 67.6151 197.538 64.7232C201.554 61.779 204.239 57.2422 204.239 51.122H200.191ZM210.531 15.2528V13.2287H208.507V15.2528H210.531ZM222.095 15.2528H224.119V13.2287H222.095V15.2528ZM238.52 15.2528V13.2287H236.496V15.2528H238.52ZM250.083 15.2528H252.107V13.2287H250.083V15.2528ZM230.344 64.8598C220.801 64.8598 212.555 58.282 212.555 47.8812H208.507C208.507 60.9023 218.97 68.9079 230.344 68.9079V64.8598ZM212.555 47.8812V15.2528H208.507V47.8812H212.555ZM210.531 17.2768H222.095V13.2287H210.531V17.2768ZM220.071 15.2528V46.9974H224.119V15.2528H220.071ZM220.071 46.9974C220.071 50.6487 221.24 53.4578 223.268 55.3399C225.264 57.1922 227.861 57.9335 230.344 57.9335V53.8854C228.628 53.8854 227.101 53.3746 226.022 52.3728C224.975 51.4009 224.119 49.7539 224.119 46.9974H220.071ZM230.344 57.9335C232.798 57.9335 235.377 57.1877 237.36 55.3358C239.374 53.4548 240.544 50.6486 240.544 46.9974H236.496C236.496 49.754 235.639 51.4039 234.597 52.377C233.524 53.3791 232.015 53.8854 230.344 53.8854V57.9335ZM240.544 46.9974V15.2528H236.496V46.9974H240.544ZM238.52 17.2768H250.083V13.2287H238.52V17.2768ZM248.059 15.2528V47.8812H252.107V15.2528H248.059ZM248.059 47.8812C248.059 58.2911 239.877 64.8598 230.344 64.8598V68.9079C241.728 68.9079 252.107 60.8932 252.107 47.8812H248.059ZM313.769 15.2528L315.778 15.0078L315.561 13.2287H313.769V15.2528ZM319.956 66V68.0241H322.241L321.965 65.755L319.956 66ZM308.097 66L306.087 66.2308L306.292 68.0241H308.097V66ZM304.783 37.1278L306.794 36.897L305.993 29.9197L302.958 36.2531L304.783 37.1278ZM293.735 60.1814V62.2054H295.009L295.56 61.0561L293.735 60.1814ZM284.897 60.1814L283.072 61.0584L283.624 62.2054H284.897V60.1814ZM273.849 37.2015L275.673 36.3245L272.653 30.0428L271.838 36.965L273.849 37.2015ZM270.46 66V68.0241H272.26L272.471 66.2365L270.46 66ZM258.602 66L256.593 65.7522L256.313 68.0241H258.602V66ZM264.863 15.2528V13.2287H263.073L262.854 15.0049L264.863 15.2528ZM274.511 15.2528L276.346 14.3973L275.801 13.2287H274.511V15.2528ZM289.316 46.9974L287.481 47.8529L289.33 51.8159L291.155 47.8424L289.316 46.9974ZM303.899 15.2528V13.2287H302.602L302.06 14.4078L303.899 15.2528ZM311.76 15.4977L317.946 66.245L321.965 65.755L315.778 15.0078L311.76 15.4977ZM319.956 63.9759H308.097V68.0241H319.956V63.9759ZM310.108 65.7692L306.794 36.897L302.772 37.3587L306.087 66.2308L310.108 65.7692ZM302.958 36.2531L291.91 59.3066L295.56 61.0561L306.608 38.0026L302.958 36.2531ZM293.735 58.1573H284.897V62.2054H293.735V58.1573ZM286.721 59.3044L275.673 36.3245L272.024 38.0785L283.072 61.0584L286.721 59.3044ZM271.838 36.965L268.45 65.7635L272.471 66.2365L275.859 37.438L271.838 36.965ZM270.46 63.9759H258.602V68.0241H270.46V63.9759ZM260.611 66.2478L266.872 15.5006L262.854 15.0049L256.593 65.7522L260.611 66.2478ZM264.863 17.2768H274.511V13.2287H264.863V17.2768ZM272.677 16.1082L287.481 47.8529L291.15 46.1419L276.346 14.3973L272.677 16.1082ZM291.155 47.8424L305.738 16.0977L302.06 14.4078L287.476 46.1525L291.155 47.8424ZM303.899 17.2768H313.769V13.2287H303.899V17.2768Z" fill="white" mask="url(#path-2-outside-1_207_1396)"/>
<path fill-rule="evenodd" clip-rule="evenodd" d="M362.85 52C377.209 52 388.85 40.3594 388.85 26C388.85 11.6406 377.209 0 362.85 0C348.49 0 336.85 11.6406 336.85 26C336.85 40.3594 348.49 52 362.85 52ZM366.914 19.4998C366.914 18.1536 368.006 17.0623 369.352 17.0623C370.698 17.0623 371.789 18.1536 371.789 19.4998C371.789 20.846 370.698 21.9373 369.352 21.9373H354.727C354.278 21.9373 353.914 22.301 353.914 22.7498C353.914 23.1985 354.278 23.5623 354.727 23.5623H369.352C371.595 23.5623 373.414 21.7434 373.414 19.4998C373.414 17.2561 371.595 15.4373 369.352 15.4373C367.108 15.4373 365.289 17.2561 365.289 19.4998C365.289 19.9485 365.653 20.3123 366.102 20.3123C366.551 20.3123 366.914 19.9485 366.914 19.4998ZM374.227 33.3118C372.881 33.3118 371.789 32.2205 371.789 30.8743C371.789 30.4256 371.426 30.0618 370.977 30.0618C370.528 30.0618 370.164 30.4256 370.164 30.8743C370.164 33.1179 371.983 34.9368 374.227 34.9368C376.47 34.9368 378.289 33.1179 378.289 30.8743C378.289 28.6306 376.47 26.8118 374.227 26.8118H348.227C347.778 26.8118 347.414 27.1756 347.414 27.6243C347.414 28.073 347.778 28.4368 348.227 28.4368H374.227C375.573 28.4368 376.664 29.5281 376.664 30.8743C376.664 32.2205 375.573 33.3118 374.227 33.3118ZM351.477 32.4998C351.028 32.4998 350.664 32.8635 350.664 33.3123C350.664 33.761 351.028 34.1248 351.477 34.1248H367.727C368.176 34.1248 368.539 33.761 368.539 33.3123C368.539 32.8635 368.176 32.4998 367.727 32.4998H351.477Z" fill="white"/>
</svg>
