<svg width="428" height="880" viewBox="0 0 428 880" fill="none" xmlns="http://www.w3.org/2000/svg">
<rect width="428" height="880" rx="73" fill="#585858"/>
<rect x="1" y="1" width="426" height="878" rx="72" stroke="black" stroke-opacity="0.2" stroke-width="2"/>
<rect x="13" y="13" width="402" height="856" rx="66" fill="white"/>
<rect x="13" y="13" width="402" height="856" rx="66" stroke="black" stroke-width="12"/>
<path d="M71.1963 50.8145C73.4043 50.8311 75.7202 52.1592 75.7285 56.5586C75.7285 60.7754 73.9106 63.166 71.0303 63.166C68.814 63.166 67.27 61.7964 66.9795 59.8457H68.7891C69.0381 60.8584 69.8184 61.564 71.0303 61.5723C72.8813 61.564 73.9688 59.9536 73.9854 57.2061H73.8359C73.1885 58.2188 72.0596 58.833 70.7646 58.833C68.6064 58.833 66.8799 57.1812 66.8799 54.8818C66.8799 52.5908 68.5815 50.7979 71.1963 50.8145ZM68.6562 54.8486C68.6646 56.2432 69.7021 57.3472 71.1631 57.3389C72.6157 57.3472 73.7363 56.1602 73.7363 54.832C73.7363 53.5288 72.6655 52.3418 71.1963 52.3418C69.7437 52.3418 68.6479 53.4707 68.6562 54.8486ZM78.153 61.4561C77.5055 61.4478 76.966 60.9248 76.9743 60.2773C76.966 59.6299 77.5055 59.0986 78.153 59.0986C78.7922 59.0986 79.3234 59.6299 79.3317 60.2773C79.3234 60.9248 78.7922 61.4478 78.153 61.4561ZM76.9743 53.7197C76.966 53.0723 77.5055 52.541 78.153 52.541C78.7922 52.541 79.3234 53.0723 79.3317 53.7197C79.3234 54.3672 78.7922 54.8901 78.153 54.8984C77.5055 54.8901 76.966 54.3672 76.9743 53.7197ZM80.5111 60.6592V59.1816L85.8236 50.9805H88.0814V59.1152H89.725V60.6592H88.0814V63H86.3548V60.6592H80.5111ZM82.4369 59.1152H86.3548V53.1553H86.222L82.4369 59.0156V59.1152ZM95.2871 50.9805V63H93.4444V52.8066H93.378L90.5059 54.6826V52.9395L93.4942 50.9805H95.2871Z" fill="black"/>
<rect x="325.35" y="50" width="3.2" height="12" rx="1" fill="black"/>
<rect x="320.05" y="52.4004" width="3.2" height="9.6" rx="1" fill="black"/>
<rect x="314.75" y="55" width="3.2" height="7" rx="1" fill="black"/>
<rect x="309.45" y="57.4004" width="3.2" height="4.6" rx="1" fill="black"/>
<path d="M343.008 58.1338C343.711 58.1338 344.395 58.3186 344.997 58.6711L345.241 58.8139C345.426 58.9222 345.458 59.1756 345.307 59.3268L343.223 61.4045C343.095 61.5322 342.888 61.5322 342.76 61.4045L340.69 59.3402C340.539 59.1896 340.57 58.9375 340.754 58.8284L340.995 58.685C341.603 58.3236 342.295 58.1338 343.008 58.1338Z" fill="black"/>
<path d="M343.008 54.3164C344.758 54.3164 346.438 54.8969 347.806 55.972L348 56.1239C348.154 56.245 348.168 56.4733 348.029 56.6117L346.785 57.8521C346.67 57.9668 346.488 57.98 346.357 57.8831L346.206 57.7704C345.281 57.0833 344.167 56.7148 343.008 56.7148C341.841 56.7148 340.72 57.0879 339.793 57.7828L339.641 57.8966C339.511 57.9943 339.328 57.9814 339.212 57.8664L337.969 56.6264C337.831 56.4883 337.844 56.2606 337.997 56.1393L338.19 55.9872C339.561 54.9026 341.249 54.3164 343.008 54.3164Z" fill="black"/>
<path d="M343.008 50.5C345.785 50.5 348.441 51.4796 350.543 53.2752L350.723 53.4285C350.868 53.5524 350.876 53.7731 350.741 53.9078L349.501 55.1441C349.381 55.2639 349.189 55.2723 349.059 55.1635L348.906 55.0351C347.25 53.6512 345.176 52.8984 343.008 52.8984C340.833 52.8984 338.752 53.6564 337.094 55.049L336.941 55.178C336.81 55.2873 336.618 55.2791 336.498 55.1591L335.258 53.9229C335.123 53.7885 335.132 53.5681 335.276 53.4441L335.455 53.2908C337.56 51.4855 340.223 50.5 343.008 50.5Z" fill="black"/>
<rect x="359" y="51.5" width="21" height="9" rx="1.33" fill="black"/>
<path opacity="0.4" fill-rule="evenodd" clip-rule="evenodd" d="M362.6 50.5H376.4C377.397 50.5 378.084 50.5008 378.617 50.5444C379.139 50.587 379.425 50.6655 379.635 50.7725C380.105 51.0122 380.488 51.3946 380.728 51.865C380.834 52.0749 380.913 52.3608 380.956 52.8826C380.999 53.4161 381 54.1034 381 55.1V56.9C381 57.8966 380.999 58.5839 380.956 59.1174C380.913 59.6392 380.834 59.9251 380.728 60.135C380.488 60.6054 380.105 60.9878 379.635 61.2275C379.425 61.3345 379.139 61.413 378.617 61.4556C378.084 61.4992 377.397 61.5 376.4 61.5H362.6C361.603 61.5 360.916 61.4992 360.383 61.4556C359.861 61.413 359.575 61.3345 359.365 61.2275C358.895 60.9878 358.512 60.6054 358.272 60.135C358.166 59.9251 358.087 59.6392 358.044 59.1174C358.001 58.5839 358 57.8966 358 56.9V55.1C358 54.1034 358.001 53.4161 358.044 52.8826C358.087 52.3608 358.166 52.0749 358.272 51.865C358.512 51.3946 358.895 51.0122 359.365 50.7725C359.575 50.6655 359.861 50.587 360.383 50.5444C360.916 50.5008 361.603 50.5 362.6 50.5ZM357 55.1C357 53.1398 357 52.1597 357.381 51.411C357.717 50.7525 358.252 50.217 358.911 49.8815C359.66 49.5 360.64 49.5 362.6 49.5H376.4C378.36 49.5 379.34 49.5 380.089 49.8815C380.748 50.217 381.283 50.7525 381.619 51.411C382 52.1597 382 53.1398 382 55.1V56.9C382 58.8602 382 59.8403 381.619 60.589C381.283 61.2475 380.748 61.783 380.089 62.1185C379.34 62.5 378.36 62.5 376.4 62.5H362.6C360.64 62.5 359.66 62.5 358.911 62.1185C358.252 61.783 357.717 61.2475 357.381 60.589C357 59.8403 357 58.8602 357 56.9V55.1ZM383 58C383.828 57.8 384.5 57.1046 384.5 56C384.5 54.8954 383.828 54.2 383 54L383 56L383 58Z" fill="black"/>
<path d="M116.309 396.153C115.85 394.793 117.068 393.597 118.503 393.597C119.889 393.597 120.965 394.803 121.86 395.861C121.999 396.025 122.154 396.182 122.325 396.332C123.197 397.072 124.32 397.442 125.695 397.442C127.016 397.442 128.086 397.138 128.905 396.53C129.724 395.923 130.16 395.13 130.213 394.152C130.266 393.254 129.975 392.501 129.341 391.893C128.733 391.285 127.769 390.796 126.448 390.426L123.079 389.554C118.481 388.207 116.182 385.67 116.182 381.944C116.182 379.566 117.067 377.65 118.837 376.197C120.634 374.691 122.814 373.938 125.377 373.938C127.993 373.938 130.16 374.691 131.878 376.197C132.978 377.145 133.726 378.304 134.122 379.675C134.51 381.021 133.319 382.182 131.918 382.182C130.517 382.182 129.491 380.88 128.534 379.857C128.452 379.77 128.365 379.686 128.271 379.606C127.557 378.945 126.567 378.615 125.298 378.615C124.109 378.615 123.131 378.919 122.365 379.526C121.599 380.108 121.216 380.874 121.216 381.825C121.216 383.331 122.299 384.375 124.466 384.956L127.835 385.947C130.557 386.687 132.512 387.784 133.701 389.237C134.917 390.664 135.445 392.342 135.287 394.271C135.155 396.676 134.177 398.565 132.354 399.939C130.557 401.313 128.337 402 125.695 402C122.788 402 120.436 401.194 118.639 399.582C117.517 398.574 116.74 397.431 116.309 396.153Z" fill="#0075FF"/>
<path d="M155.745 391.933V376.791C155.745 375.39 156.881 374.255 158.282 374.255C159.683 374.255 160.819 375.39 160.819 376.791V391.933C160.819 394.892 159.801 397.31 157.767 399.186C155.758 401.036 153.327 401.961 150.473 401.961C147.567 401.961 145.109 401.036 143.101 399.186C141.093 397.336 140.089 394.919 140.089 391.933V376.831C140.089 375.408 141.242 374.255 142.665 374.255C144.088 374.255 145.241 375.408 145.241 376.831V391.933C145.241 393.439 145.757 394.694 146.787 395.698C147.791 396.676 149.02 397.165 150.473 397.165C151.927 397.165 153.155 396.676 154.16 395.698C155.217 394.72 155.745 393.465 155.745 391.933Z" fill="#0075FF"/>
<path d="M171.622 374.255C172.714 374.255 173.707 374.884 174.173 375.871L182.13 392.725L190.036 375.903C190.508 374.897 191.52 374.255 192.631 374.255C194.08 374.255 195.302 375.336 195.477 376.775L198.5 401.564H193.426L191.325 383.371L184.191 398.473H180.148L172.974 383.371L170.833 401.564H165.76L168.824 376.729C168.998 375.316 170.199 374.255 171.622 374.255Z" fill="#0075FF"/>
<path d="M202.905 396.153C202.446 394.793 203.663 393.597 205.099 393.597V393.597C206.485 393.597 207.56 394.803 208.455 395.861C208.594 396.025 208.75 396.182 208.921 396.332C209.793 397.072 210.916 397.442 212.29 397.442C213.611 397.442 214.682 397.138 215.501 396.53C216.32 395.923 216.756 395.13 216.809 394.152C216.862 393.254 216.571 392.501 215.937 391.893C215.329 391.285 214.365 390.796 213.043 390.426L209.674 389.554C205.076 388.207 202.777 385.67 202.777 381.944C202.777 379.566 203.663 377.65 205.433 376.197C207.23 374.691 209.41 373.938 211.973 373.938C214.589 373.938 216.756 374.691 218.474 376.197C219.574 377.145 220.322 378.304 220.717 379.675C221.106 381.021 219.914 382.182 218.513 382.182V382.182C217.112 382.182 216.087 380.88 215.13 379.857C215.048 379.77 214.96 379.686 214.867 379.606C214.153 378.945 213.162 378.615 211.894 378.615C210.705 378.615 209.727 378.919 208.961 379.526C208.194 380.108 207.811 380.874 207.811 381.825C207.811 383.331 208.895 384.375 211.062 384.956L214.431 385.947C217.152 386.687 219.108 387.784 220.297 389.237C221.512 390.664 222.041 392.342 221.882 394.271C221.75 396.676 220.773 398.565 218.949 399.939C217.152 401.313 214.933 402 212.29 402C209.384 402 207.032 401.194 205.235 399.582C204.113 398.574 203.336 397.431 202.905 396.153Z" stroke="#0075FF"/>
<path d="M242.341 391.933V376.791C242.341 375.39 243.476 374.255 244.877 374.255V374.255C246.278 374.255 247.414 375.39 247.414 376.791V391.933C247.414 394.892 246.397 397.31 244.362 399.186C242.354 401.036 239.923 401.961 237.069 401.961C234.162 401.961 231.705 401.036 229.697 399.186C227.688 397.336 226.684 394.919 226.684 391.933V376.831C226.684 375.408 227.838 374.255 229.261 374.255V374.255C230.684 374.255 231.837 375.408 231.837 376.831V391.933C231.837 393.439 232.352 394.694 233.383 395.698C234.387 396.676 235.616 397.165 237.069 397.165C238.522 397.165 239.751 396.676 240.755 395.698C241.812 394.72 242.341 393.465 242.341 391.933Z" stroke="#0075FF"/>
<path d="M258.218 374.255C259.309 374.255 260.303 374.884 260.768 375.871L268.725 392.725L276.631 375.903C277.104 374.897 278.115 374.255 279.227 374.255V374.255C280.676 374.255 281.898 375.336 282.073 376.775L285.095 401.564H280.022L277.921 383.371L270.787 398.473H266.744L259.569 383.371L257.429 401.564H252.355L255.419 376.729C255.594 375.316 256.794 374.255 258.218 374.255V374.255Z" stroke="#0075FF"/>
<path fill-rule="evenodd" clip-rule="evenodd" d="M301.095 388C307.722 388 313.095 382.627 313.095 376C313.095 369.373 307.722 364 301.095 364C294.467 364 289.095 369.373 289.095 376C289.095 382.627 294.467 388 301.095 388ZM302.971 373C302.971 372.379 303.474 371.875 304.096 371.875C304.717 371.875 305.221 372.379 305.221 373C305.221 373.621 304.717 374.125 304.096 374.125H297.346C297.139 374.125 296.971 374.293 296.971 374.5C296.971 374.707 297.139 374.875 297.346 374.875H304.096C305.131 374.875 305.971 374.036 305.971 373C305.971 371.964 305.131 371.125 304.096 371.125C303.06 371.125 302.221 371.964 302.221 373C302.221 373.207 302.389 373.375 302.596 373.375C302.803 373.375 302.971 373.207 302.971 373ZM306.346 379.375C305.724 379.375 305.221 378.871 305.221 378.25C305.221 378.043 305.053 377.875 304.846 377.875C304.639 377.875 304.471 378.043 304.471 378.25C304.471 379.286 305.31 380.125 306.346 380.125C307.381 380.125 308.221 379.286 308.221 378.25C308.221 377.214 307.381 376.375 306.346 376.375H294.346C294.139 376.375 293.971 376.543 293.971 376.75C293.971 376.957 294.139 377.125 294.346 377.125H306.346C306.967 377.125 307.471 377.629 307.471 378.25C307.471 378.871 306.967 379.375 306.346 379.375ZM295.846 379C295.639 379 295.471 379.168 295.471 379.375C295.471 379.582 295.639 379.75 295.846 379.75H303.346C303.553 379.75 303.721 379.582 303.721 379.375C303.721 379.168 303.553 379 303.346 379H295.846Z" fill="#0075FF"/>
<rect x="177" y="47" width="74" height="20" rx="10" fill="black"/>
<rect x="144" y="848" width="140" height="6" rx="3" fill="black"/>
</svg>
