<svg width="401" height="88" viewBox="0 0 401 88" fill="none" xmlns="http://www.w3.org/2000/svg">
<path d="M31.576 34.0364C31.2883 30.5479 28.9867 28.462 24.3114 28.498C19.8159 28.462 17.7301 30.2602 17.6941 32.6698C17.5862 35.3671 20.0317 36.8416 24.8868 37.8485L29.2024 38.8555C40.3871 41.2291 45.3861 46.6596 45.458 54.6795C45.3861 64.8932 37.546 70.6114 24.3833 70.6473C10.9329 70.6114 2.19378 64.7853 2.08589 51.9463H15.1766C15.3924 56.8014 18.737 59.3548 24.1675 59.3548C28.8788 59.3548 31.3962 57.4487 31.4322 54.6795C31.3962 52.1621 29.2384 50.6875 23.4483 49.4288L18.1976 48.278C9.02686 46.264 3.41654 41.7326 3.45251 33.6768C3.38058 23.8227 12.0838 17.2054 24.3114 17.2054C36.7908 17.2054 44.6668 23.9306 44.7387 34.0364H31.576ZM82.0689 17.9247H95.7351V51.3709C95.7711 63.1669 86.7082 70.6114 73.3657 70.6473C59.9873 70.6114 51.0323 63.1669 51.0683 51.3709V17.9247H64.7345V50.1481C64.7345 55.183 68.3308 58.7794 73.3657 58.7794C78.4726 58.7794 82.033 55.183 82.0689 50.1481V17.9247ZM102.784 17.9247H119.831L132.202 48.2061H132.85L145.221 17.9247H162.268V70H148.889V39.359H148.458L136.59 69.6404H128.39L116.594 39.1432H116.162V70H102.784V17.9247Z" fill="white"/>
<mask id="path-2-outside-1_108_740" maskUnits="userSpaceOnUse" x="166" y="15" width="165" height="58" fill="black">
<rect fill="white" x="166" y="15" width="165" height="58"/>
<path d="M197.576 34.0364C197.288 30.5479 194.987 28.462 190.311 28.498C185.816 28.462 183.73 30.2602 183.694 32.6698C183.586 35.3671 186.032 36.8416 190.887 37.8485L195.202 38.8555C206.387 41.2291 211.386 46.6596 211.458 54.6795C211.386 64.8932 203.546 70.6114 190.383 70.6473C176.933 70.6114 168.194 64.7853 168.086 51.9463H181.177C181.392 56.8014 184.737 59.3548 190.168 59.3548C194.879 59.3548 197.396 57.4487 197.432 54.6795C197.396 52.1621 195.238 50.6875 189.448 49.4288L184.198 48.278C175.027 46.264 169.417 41.7326 169.453 33.6768C169.381 23.8227 178.084 17.2054 190.311 17.2054C202.791 17.2054 210.667 23.9306 210.739 34.0364H197.576ZM248.069 17.9247H261.735V51.3709C261.771 63.1669 252.708 70.6114 239.366 70.6473C225.987 70.6114 217.032 63.1669 217.068 51.3709V17.9247H230.734V50.1481C230.734 55.183 234.331 58.7794 239.366 58.7794C244.473 58.7794 248.033 55.183 248.069 50.1481V17.9247ZM268.784 17.9247H285.831L298.202 48.2061H298.85L311.221 17.9247H328.268V70H314.889V39.359H314.458L302.59 69.6404H294.39L282.594 39.1432H282.162V70H268.784V17.9247Z"/>
</mask>
<path d="M197.576 34.0364L195.559 34.2028L195.712 36.0605H197.576V34.0364ZM190.311 28.498L190.295 30.522L190.311 30.5221L190.327 30.522L190.311 28.498ZM183.694 32.6698L185.717 32.7507L185.718 32.7253L185.718 32.7L183.694 32.6698ZM190.887 37.8485L191.347 35.8774L191.322 35.8717L191.298 35.8667L190.887 37.8485ZM195.202 38.8555L194.743 40.8266L194.762 40.8313L194.782 40.8355L195.202 38.8555ZM211.458 54.6795L213.482 54.6938L213.482 54.6776L213.482 54.6614L211.458 54.6795ZM190.383 70.6473L190.378 72.6714L190.389 72.6714L190.383 70.6473ZM168.086 51.9463V49.9222H166.045L166.062 51.9633L168.086 51.9463ZM181.177 51.9463L183.199 51.8564L183.113 49.9222H181.177V51.9463ZM197.432 54.6795L199.456 54.7058L199.456 54.6782L199.456 54.6506L197.432 54.6795ZM189.448 49.4288L189.015 51.406L189.018 51.4067L189.448 49.4288ZM184.198 48.278L183.763 50.2549L183.764 50.2551L184.198 48.278ZM169.453 33.6768L171.477 33.6858L171.477 33.6739L171.477 33.662L169.453 33.6768ZM210.739 34.0364V36.0605H212.777L212.763 34.022L210.739 34.0364ZM199.593 33.87C199.414 31.6996 198.575 29.7372 196.851 28.3627C195.169 27.0221 192.91 26.4539 190.296 26.474L190.327 30.522C192.389 30.5061 193.618 30.9629 194.328 31.5284C194.994 32.0599 195.45 32.8847 195.559 34.2028L199.593 33.87ZM190.328 26.474C187.846 26.4542 185.738 26.9325 184.186 27.9977C182.552 29.1179 181.698 30.7828 181.67 32.6396L185.718 32.7C185.726 32.1472 185.933 31.7082 186.475 31.3359C187.098 30.9087 188.281 30.5059 190.295 30.522L190.328 26.474ZM181.672 32.5889C181.586 34.7342 182.594 36.3956 184.279 37.5588C185.83 38.6287 187.984 39.3137 190.476 39.8304L191.298 35.8667C188.934 35.3764 187.439 34.8206 186.579 34.2273C185.855 33.7272 185.694 33.3026 185.717 32.7507L181.672 32.5889ZM190.427 39.8197L194.743 40.8266L195.662 36.8844L191.347 35.8774L190.427 39.8197ZM194.782 40.8355C200.156 41.9759 203.785 43.8001 206.066 46.0814C208.298 48.3131 209.402 51.1432 209.434 54.6977L213.482 54.6614C213.442 50.196 212.011 46.3008 208.929 43.2189C205.896 40.1866 201.434 38.1088 195.623 36.8756L194.782 40.8355ZM209.434 54.6653C209.402 59.1955 207.681 62.5614 204.615 64.8608C201.471 67.2188 196.704 68.606 190.378 68.6233L190.389 72.6714C197.225 72.6527 202.959 71.1628 207.044 68.0993C211.207 64.9772 213.442 60.3772 213.482 54.6938L209.434 54.6653ZM190.389 68.6233C183.913 68.606 178.877 67.1899 175.486 64.5099C172.172 61.8906 170.16 57.8515 170.11 51.9293L166.062 51.9633C166.12 58.8801 168.531 64.1735 172.976 67.686C177.344 71.1378 183.403 72.6528 190.378 72.6714L190.389 68.6233ZM168.086 53.9703H181.177V49.9222H168.086V53.9703ZM179.155 52.0361C179.284 54.9431 180.379 57.3775 182.445 59.0459C184.461 60.6743 187.162 61.3788 190.168 61.3788V57.3307C187.743 57.3307 186.056 56.7586 184.988 55.8965C183.97 55.0744 183.285 53.8046 183.199 51.8564L179.155 52.0361ZM190.168 61.3788C192.76 61.3788 195.011 60.8599 196.683 59.7349C198.431 58.5587 199.429 56.7851 199.456 54.7058L195.408 54.6532C195.399 55.3431 195.12 55.9072 194.423 56.3762C193.65 56.8966 192.287 57.3307 190.168 57.3307V61.3788ZM199.456 54.6506C199.443 53.7203 199.228 52.8067 198.733 51.9562C198.245 51.1168 197.546 50.445 196.717 49.8953C195.117 48.8348 192.817 48.0898 189.878 47.451L189.018 51.4067C191.87 52.0266 193.543 52.6482 194.479 53.269C194.918 53.5599 195.127 53.8075 195.234 53.9919C195.335 54.1652 195.404 54.38 195.408 54.7084L199.456 54.6506ZM189.882 47.4517L184.631 46.3009L183.764 50.2551L189.015 51.406L189.882 47.4517ZM184.632 46.301C180.239 45.3364 176.937 43.8153 174.759 41.7682C172.645 39.7814 171.461 37.1819 171.477 33.6858L167.428 33.6677C167.408 38.2274 169.011 41.9216 171.986 44.7179C174.897 47.4541 178.985 49.2056 183.763 50.2549L184.632 46.301ZM171.477 33.662C171.445 29.3959 173.289 25.8608 176.515 23.341C179.78 20.7912 184.544 19.2295 190.311 19.2295V15.1814C183.851 15.1814 178.15 16.9283 174.024 20.1506C169.86 23.403 167.388 28.1036 167.428 33.6915L171.477 33.662ZM190.311 19.2295C196.202 19.2295 200.794 20.816 203.883 23.387C206.938 25.9297 208.683 29.5613 208.715 34.0508L212.763 34.022C212.723 28.4057 210.493 23.6218 206.473 20.2755C202.486 16.9575 196.9 15.1814 190.311 15.1814V19.2295ZM210.739 32.0123H197.576V36.0605H210.739V32.0123ZM248.069 17.9247V15.9006H246.045V17.9247H248.069ZM261.735 17.9247H263.759V15.9006H261.735V17.9247ZM261.735 51.3709L259.711 51.3709L259.711 51.377L261.735 51.3709ZM239.366 70.6473L239.36 72.6714L239.371 72.6714L239.366 70.6473ZM217.068 51.3709L219.092 51.377V51.3709H217.068ZM217.068 17.9247V15.9006H215.044V17.9247H217.068ZM230.734 17.9247H232.759V15.9006H230.734V17.9247ZM248.069 50.1481L250.093 50.1625L250.093 50.1553V50.1481H248.069ZM248.069 19.9488H261.735V15.9006H248.069V19.9488ZM259.711 17.9247V51.3709H263.759V17.9247H259.711ZM259.711 51.377C259.727 56.7137 257.706 60.9447 254.256 63.877C250.772 66.8387 245.671 68.6063 239.36 68.6233L239.371 72.6714C246.403 72.6524 252.504 70.6798 256.878 66.9613C261.287 63.2133 263.779 57.8241 263.759 51.3647L259.711 51.377ZM239.371 68.6233C233.042 68.6063 227.961 66.8384 224.502 63.8807C221.077 60.9521 219.076 56.7217 219.092 51.377L215.044 51.3647C215.025 57.8161 217.483 63.2059 221.871 66.9575C226.225 70.6801 232.311 72.6525 239.36 72.6714L239.371 68.6233ZM219.092 51.3709V17.9247H215.044V51.3709H219.092ZM217.068 19.9488H230.734V15.9006H217.068V19.9488ZM228.71 17.9247V50.1481H232.759V17.9247H228.71ZM228.71 50.1481C228.71 56.3009 233.213 60.8034 239.366 60.8034V56.7553C235.449 56.7553 232.759 54.0651 232.759 50.1481H228.71ZM239.366 60.8034C242.408 60.8034 245.104 59.7237 247.048 57.7851C248.991 55.8481 250.072 53.1651 250.093 50.1625L246.045 50.1336C246.03 52.166 245.313 53.7986 244.19 54.9185C243.068 56.0369 241.43 56.7553 239.366 56.7553V60.8034ZM250.093 50.1481V17.9247H246.045V50.1481H250.093ZM268.784 17.9247V15.9006H266.76V17.9247H268.784ZM285.831 17.9247L287.704 17.1592L287.19 15.9006H285.831V17.9247ZM298.202 48.2061L296.328 48.9716L296.843 50.2301H298.202V48.2061ZM298.85 48.2061V50.2301H300.209L300.723 48.9716L298.85 48.2061ZM311.221 17.9247V15.9006H309.861L309.347 17.1592L311.221 17.9247ZM328.268 17.9247H330.292V15.9006H328.268V17.9247ZM328.268 70V72.0241H330.292V70H328.268ZM314.889 70H312.865V72.0241H314.889V70ZM314.889 39.359H316.913V37.3349H314.889V39.359ZM314.458 39.359V37.3349H313.077L312.573 38.6204L314.458 39.359ZM302.59 69.6404V71.6644H303.97L304.474 70.3789L302.59 69.6404ZM294.39 69.6404L292.502 70.3705L293.003 71.6644H294.39V69.6404ZM282.594 39.1432L284.482 38.4131L283.981 37.1192H282.594V39.1432ZM282.162 39.1432V37.1192H280.138V39.1432H282.162ZM282.162 70V72.0241H284.186V70H282.162ZM268.784 70H266.76V72.0241H268.784V70ZM268.784 19.9488H285.831V15.9006H268.784V19.9488ZM283.957 18.6902L296.328 48.9716L300.076 47.4405L287.704 17.1592L283.957 18.6902ZM298.202 50.2301H298.85V46.182H298.202V50.2301ZM300.723 48.9716L313.095 18.6902L309.347 17.1592L296.976 47.4405L300.723 48.9716ZM311.221 19.9488H328.268V15.9006H311.221V19.9488ZM326.244 17.9247V70H330.292V17.9247H326.244ZM328.268 67.9759H314.889V72.0241H328.268V67.9759ZM316.913 70V39.359H312.865V70H316.913ZM314.889 37.3349H314.458V41.3831H314.889V37.3349ZM312.573 38.6204L300.705 68.9018L304.474 70.3789L316.342 40.0976L312.573 38.6204ZM302.59 67.6163H294.39V71.6644H302.59V67.6163ZM296.278 68.9102L284.482 38.4131L280.706 39.8734L292.502 70.3705L296.278 68.9102ZM282.594 37.1192H282.162V41.1673H282.594V37.1192ZM280.138 39.1432V70H284.186V39.1432H280.138ZM282.162 67.9759H268.784V72.0241H282.162V67.9759ZM270.808 70V17.9247H266.76V70H270.808Z" fill="white" mask="url(#path-2-outside-1_108_740)"/>
<g clip-path="url(#clip0_108_740)">
<path d="M344.85 27.6019C344.85 42.8461 357.207 55.2039 372.452 55.2039L372.452 4.82607e-06C357.207 2.16071e-06 344.85 12.3578 344.85 27.6019Z" fill="white"/>
</g>
<rect x="346.036" y="1.18688" width="52.8301" height="52.8301" rx="26.415" stroke="white" stroke-width="2.37377"/>
<defs>
<clipPath id="clip0_108_740">
<rect x="344.85" width="55.2039" height="55.2039" rx="27.6019" fill="white"/>
</clipPath>
</defs>
</svg>
