<svg width="414" height="868" viewBox="0 0 414 868" fill="none" xmlns="http://www.w3.org/2000/svg">
<rect x="6" y="6" width="402" height="856" rx="66" fill="white"/>
<rect x="6" y="6" width="402" height="856" rx="66" stroke="black" stroke-width="12"/>
<path d="M64.1963 43.8145C66.4043 43.8311 68.7202 45.1592 68.7285 49.5586C68.7285 53.7754 66.9106 56.166 64.0303 56.166C61.814 56.166 60.27 54.7964 59.9795 52.8457H61.7891C62.0381 53.8584 62.8184 54.564 64.0303 54.5723C65.8813 54.564 66.9688 52.9536 66.9854 50.2061H66.8359C66.1885 51.2188 65.0596 51.833 63.7646 51.833C61.6064 51.833 59.8799 50.1812 59.8799 47.8818C59.8799 45.5908 61.5815 43.7979 64.1963 43.8145ZM61.6562 47.8486C61.6646 49.2432 62.7021 50.3472 64.1631 50.3389C65.6157 50.3472 66.7363 49.1602 66.7363 47.832C66.7363 46.5288 65.6655 45.3418 64.1963 45.3418C62.7437 45.3418 61.6479 46.4707 61.6562 47.8486ZM71.153 54.4561C70.5055 54.4478 69.966 53.9248 69.9743 53.2773C69.966 52.6299 70.5055 52.0986 71.153 52.0986C71.7922 52.0986 72.3234 52.6299 72.3317 53.2773C72.3234 53.9248 71.7922 54.4478 71.153 54.4561ZM69.9743 46.7197C69.966 46.0723 70.5055 45.541 71.153 45.541C71.7922 45.541 72.3234 46.0723 72.3317 46.7197C72.3234 47.3672 71.7922 47.8901 71.153 47.8984C70.5055 47.8901 69.966 47.3672 69.9743 46.7197ZM73.5111 53.6592V52.1816L78.8236 43.9805H81.0814V52.1152H82.725V53.6592H81.0814V56H79.3548V53.6592H73.5111ZM75.4369 52.1152H79.3548V46.1553H79.222L75.4369 52.0156V52.1152ZM88.2871 43.9805V56H86.4444V45.8066H86.378L83.5059 47.6826V45.9395L86.4942 43.9805H88.2871Z" fill="black"/>
<rect x="318.35" y="43" width="3.2" height="12" rx="1" fill="black"/>
<rect x="313.05" y="45.4004" width="3.2" height="9.6" rx="1" fill="black"/>
<rect x="307.75" y="48" width="3.2" height="7" rx="1" fill="black"/>
<rect x="302.45" y="50.4004" width="3.2" height="4.6" rx="1" fill="black"/>
<path d="M336.008 51.1338C336.711 51.1338 337.395 51.3186 337.997 51.6711L338.241 51.8139C338.426 51.9222 338.458 52.1756 338.307 52.3268L336.223 54.4045C336.095 54.5322 335.888 54.5322 335.76 54.4045L333.69 52.3402C333.539 52.1896 333.57 51.9375 333.754 51.8284L333.995 51.685C334.603 51.3236 335.295 51.1338 336.008 51.1338Z" fill="black"/>
<path d="M336.008 47.3164C337.758 47.3164 339.438 47.8969 340.806 48.972L341 49.1239C341.154 49.245 341.168 49.4733 341.029 49.6117L339.785 50.8521C339.67 50.9668 339.488 50.98 339.357 50.8831L339.206 50.7704C338.281 50.0833 337.167 49.7148 336.008 49.7148C334.841 49.7148 333.72 50.0879 332.793 50.7828L332.641 50.8966C332.511 50.9943 332.328 50.9814 332.212 50.8664L330.969 49.6264C330.831 49.4883 330.844 49.2606 330.997 49.1393L331.19 48.9872C332.561 47.9026 334.249 47.3164 336.008 47.3164Z" fill="black"/>
<path d="M336.008 43.5C338.785 43.5 341.441 44.4796 343.543 46.2752L343.723 46.4285C343.868 46.5524 343.876 46.7731 343.741 46.9078L342.501 48.1441C342.381 48.2639 342.189 48.2723 342.059 48.1635L341.906 48.0351C340.25 46.6512 338.176 45.8984 336.008 45.8984C333.833 45.8984 331.752 46.6564 330.094 48.049L329.941 48.178C329.81 48.2873 329.618 48.2791 329.498 48.1591L328.258 46.9229C328.123 46.7885 328.132 46.5681 328.276 46.4441L328.455 46.2908C330.56 44.4855 333.223 43.5 336.008 43.5Z" fill="black"/>
<rect x="352" y="44.5" width="21" height="9" rx="1.33" fill="black"/>
<path opacity="0.4" fill-rule="evenodd" clip-rule="evenodd" d="M355.6 43.5H369.4C370.397 43.5 371.084 43.5008 371.617 43.5444C372.139 43.587 372.425 43.6655 372.635 43.7725C373.105 44.0122 373.488 44.3946 373.728 44.865C373.834 45.0749 373.913 45.3608 373.956 45.8826C373.999 46.4161 374 47.1034 374 48.1V49.9C374 50.8966 373.999 51.5839 373.956 52.1174C373.913 52.6392 373.834 52.9251 373.728 53.135C373.488 53.6054 373.105 53.9878 372.635 54.2275C372.425 54.3345 372.139 54.413 371.617 54.4556C371.084 54.4992 370.397 54.5 369.4 54.5H355.6C354.603 54.5 353.916 54.4992 353.383 54.4556C352.861 54.413 352.575 54.3345 352.365 54.2275C351.895 53.9878 351.512 53.6054 351.272 53.135C351.166 52.9251 351.087 52.6392 351.044 52.1174C351.001 51.5839 351 50.8966 351 49.9V48.1C351 47.1034 351.001 46.4161 351.044 45.8826C351.087 45.3608 351.166 45.0749 351.272 44.865C351.512 44.3946 351.895 44.0122 352.365 43.7725C352.575 43.6655 352.861 43.587 353.383 43.5444C353.916 43.5008 354.603 43.5 355.6 43.5ZM350 48.1C350 46.1398 350 45.1597 350.381 44.411C350.717 43.7525 351.252 43.217 351.911 42.8815C352.66 42.5 353.64 42.5 355.6 42.5H369.4C371.36 42.5 372.34 42.5 373.089 42.8815C373.748 43.217 374.283 43.7525 374.619 44.411C375 45.1597 375 46.1398 375 48.1V49.9C375 51.8602 375 52.8403 374.619 53.589C374.283 54.2475 373.748 54.783 373.089 55.1185C372.34 55.5 371.36 55.5 369.4 55.5H355.6C353.64 55.5 352.66 55.5 351.911 55.1185C351.252 54.783 350.717 54.2475 350.381 53.589C350 52.8403 350 51.8602 350 49.9V48.1ZM376 51C376.828 50.8 377.5 50.1046 377.5 49C377.5 47.8954 376.828 47.2 376 47L376 49L376 51Z" fill="black"/>
<path d="M116.096 375.646C115.941 373.769 114.703 372.646 112.187 372.666C109.767 372.646 108.645 373.614 108.626 374.911C108.568 376.362 109.884 377.156 112.496 377.698L114.819 378.24C120.838 379.517 123.528 382.439 123.567 386.755C123.528 392.252 119.309 395.329 112.225 395.348C104.987 395.329 100.284 392.194 100.226 385.284H107.271C107.387 387.897 109.187 389.271 112.109 389.271C114.645 389.271 115.999 388.246 116.019 386.755C115.999 385.4 114.838 384.607 111.722 383.93L108.897 383.31C103.961 382.226 100.942 379.788 100.961 375.453C100.923 370.15 105.606 366.589 112.187 366.589C118.902 366.589 123.141 370.208 123.18 375.646H116.096ZM143.269 366.976H150.623V384.975C150.643 391.323 145.766 395.329 138.585 395.348C131.386 395.329 126.567 391.323 126.586 384.975V366.976H133.94V384.317C133.94 387.026 135.876 388.962 138.585 388.962C141.334 388.962 143.25 387.026 143.269 384.317V366.976ZM154.417 366.976H163.591L170.248 383.272H170.597L177.254 366.976H186.428V395H179.228V378.511H178.996L172.609 394.806H168.197L161.849 378.394H161.616V395H154.417V366.976Z" fill="#0075FF"/>
<mask id="path-13-outside-1_108_776" maskUnits="userSpaceOnUse" x="187.104" y="364" width="92" height="34" fill="black">
<rect fill="white" x="187.104" y="364" width="92" height="34"/>
<path d="M206.096 375.646C205.941 373.769 204.703 372.646 202.187 372.666C199.767 372.646 198.645 373.614 198.626 374.911C198.568 376.362 199.884 377.156 202.496 377.698L204.819 378.24C210.838 379.517 213.528 382.439 213.567 386.755C213.528 392.252 209.309 395.329 202.225 395.348C194.987 395.329 190.284 392.194 190.226 385.284H197.271C197.387 387.897 199.187 389.271 202.109 389.271C204.645 389.271 205.999 388.246 206.019 386.755C205.999 385.4 204.838 384.607 201.722 383.93L198.897 383.31C193.961 382.226 190.942 379.788 190.961 375.453C190.923 370.15 195.606 366.589 202.187 366.589C208.902 366.589 213.141 370.208 213.18 375.646H206.096ZM233.269 366.976H240.623V384.975C240.643 391.323 235.766 395.329 228.585 395.348C221.386 395.329 216.567 391.323 216.586 384.975V366.976H223.94V384.317C223.94 387.026 225.876 388.962 228.585 388.962C231.334 388.962 233.25 387.026 233.269 384.317V366.976ZM244.417 366.976H253.591L260.248 383.272H260.597L267.254 366.976H276.428V395H269.228V378.511H268.996L262.609 394.806H258.197L251.849 378.394H251.616V395H244.417V366.976Z"/>
</mask>
<path d="M206.096 375.646L203.951 375.823L204.114 377.799H206.096V375.646ZM202.187 372.666L202.169 374.818L202.186 374.818L202.203 374.818L202.187 372.666ZM198.626 374.911L200.776 374.997L200.778 374.97L200.778 374.943L198.626 374.911ZM202.496 377.698L202.986 375.601L202.96 375.595L202.934 375.59L202.496 377.698ZM204.819 378.24L204.33 380.336L204.351 380.341L204.372 380.345L204.819 378.24ZM213.567 386.755L215.719 386.77L215.719 386.753L215.719 386.736L213.567 386.755ZM202.225 395.348L202.22 397.501L202.231 397.501L202.225 395.348ZM190.226 385.284V383.132H188.055L188.074 385.302L190.226 385.284ZM197.271 385.284L199.421 385.189L199.33 383.132H197.271V385.284ZM206.019 386.755L208.171 386.783L208.172 386.754L208.171 386.725L206.019 386.755ZM201.722 383.93L201.261 386.032L201.265 386.033L201.722 383.93ZM198.897 383.31L198.435 385.413L198.436 385.413L198.897 383.31ZM190.961 375.453L193.114 375.462L193.114 375.45L193.114 375.437L190.961 375.453ZM213.18 375.646V377.799H215.348L215.332 375.631L213.18 375.646ZM208.242 375.469C208.127 374.077 207.574 372.722 206.369 371.761C205.208 370.836 203.722 370.501 202.17 370.513L202.203 374.818C203.168 374.811 203.559 375.027 203.685 375.128C203.766 375.193 203.911 375.338 203.951 375.823L208.242 375.469ZM202.204 370.513C200.746 370.501 199.369 370.779 198.289 371.52C197.123 372.319 196.493 373.537 196.473 374.879L200.778 374.943C200.778 374.931 200.778 374.969 200.749 375.025C200.718 375.081 200.692 375.092 200.724 375.07C200.815 375.007 201.209 374.811 202.169 374.818L202.204 370.513ZM196.475 374.825C196.412 376.398 197.177 377.617 198.337 378.417C199.352 379.118 200.685 379.52 202.059 379.805L202.934 375.59C201.695 375.333 201.063 375.068 200.782 374.874C200.67 374.796 200.69 374.781 200.73 374.854C200.777 374.941 200.776 375.01 200.776 374.997L196.475 374.825ZM202.007 379.794L204.33 380.336L205.308 376.143L202.986 375.601L202.007 379.794ZM204.372 380.345C207.149 380.935 208.883 381.85 209.913 382.88C210.891 383.858 211.399 385.101 211.414 386.775L215.719 386.736C215.696 384.094 214.839 381.718 212.958 379.836C211.128 378.007 208.508 376.822 205.266 376.134L204.372 380.345ZM211.414 386.74C211.399 388.875 210.608 390.362 209.246 391.384C207.801 392.467 205.49 393.187 202.22 393.196L202.231 397.501C206.044 397.491 209.384 396.662 211.829 394.828C214.358 392.932 215.696 390.132 215.719 386.77L211.414 386.74ZM202.231 393.196C198.877 393.187 196.436 392.451 194.868 391.211C193.381 390.036 192.403 388.192 192.379 385.266L188.074 385.302C188.107 389.286 189.51 392.464 192.198 394.589C194.806 396.649 198.335 397.491 202.22 397.501L202.231 393.196ZM190.226 387.437H197.271V383.132H190.226V387.437ZM195.12 385.38C195.201 387.196 195.898 388.812 197.285 389.932C198.62 391.01 200.339 391.424 202.109 391.424V387.119C200.957 387.119 200.315 386.846 199.99 386.583C199.718 386.363 199.457 385.985 199.421 385.189L195.12 385.38ZM202.109 391.424C203.628 391.424 205.073 391.122 206.209 390.358C207.426 389.539 208.152 388.267 208.171 386.783L203.866 386.727C203.866 386.768 203.859 386.759 203.873 386.734C203.886 386.711 203.883 386.734 203.806 386.786C203.626 386.907 203.125 387.119 202.109 387.119V391.424ZM208.171 386.725C208.162 386.066 208.008 385.391 207.638 384.755C207.275 384.131 206.77 383.658 206.221 383.294C205.187 382.608 203.784 382.175 202.179 381.826L201.265 386.033C202.777 386.362 203.512 386.664 203.842 386.882C203.976 386.971 203.959 386.993 203.917 386.92C203.868 386.835 203.866 386.767 203.866 386.786L208.171 386.725ZM202.183 381.827L199.357 381.208L198.436 385.413L201.261 386.032L202.183 381.827ZM199.358 381.208C197.096 380.711 195.525 379.953 194.545 379.032C193.634 378.176 193.107 377.064 193.114 375.462L188.809 375.443C188.797 378.176 189.77 380.452 191.597 382.169C193.356 383.823 195.762 384.826 198.435 385.413L199.358 381.208ZM193.114 375.437C193.1 373.488 193.927 371.892 195.417 370.728C196.948 369.533 199.265 368.741 202.187 368.741V364.436C198.528 364.436 195.213 365.425 192.767 367.335C190.28 369.278 188.784 372.114 188.809 375.468L193.114 375.437ZM202.187 368.741C205.173 368.741 207.383 369.545 208.81 370.732C210.201 371.89 211.012 373.541 211.027 375.661L215.332 375.631C215.309 372.312 213.981 369.435 211.564 367.423C209.183 365.442 205.916 364.436 202.187 364.436V368.741ZM213.18 373.494H206.096V377.799H213.18V373.494ZM233.269 366.976V364.823H231.116V366.976H233.269ZM240.623 366.976H242.776V364.823H240.623V366.976ZM240.623 384.975L238.471 384.975L238.471 384.981L240.623 384.975ZM228.585 395.348L228.58 397.501L228.591 397.501L228.585 395.348ZM216.586 384.975L218.739 384.981V384.975H216.586ZM216.586 366.976V364.823H214.433V366.976H216.586ZM223.94 366.976H226.093V364.823H223.94V366.976ZM233.269 384.317L235.422 384.332L235.422 384.324V384.317H233.269ZM233.269 369.128H240.623V364.823H233.269V369.128ZM238.471 366.976V384.975H242.776V366.976H238.471ZM238.471 384.981C238.479 387.558 237.514 389.531 235.91 390.895C234.269 392.29 231.786 393.187 228.58 393.196L228.591 397.501C232.565 397.49 236.111 396.375 238.698 394.175C241.323 391.944 242.788 388.739 242.776 384.968L238.471 384.981ZM228.591 393.196C225.374 393.187 222.904 392.289 221.277 390.899C219.687 389.539 218.731 387.567 218.739 384.981L214.433 384.968C214.422 388.731 215.865 391.936 218.48 394.171C221.058 396.375 224.597 397.49 228.58 397.501L228.591 393.196ZM218.739 384.975V366.976H214.433V384.975H218.739ZM216.586 369.128H223.94V364.823H216.586V369.128ZM221.788 366.976V384.317H226.093V366.976H221.788ZM221.788 384.317C221.788 388.215 224.687 391.114 228.585 391.114V386.809C227.065 386.809 226.093 385.837 226.093 384.317H221.788ZM228.585 391.114C230.48 391.114 232.208 390.438 233.47 389.18C234.731 387.922 235.408 386.203 235.422 384.332L231.116 384.301C231.11 385.14 230.82 385.743 230.431 386.131C230.043 386.517 229.439 386.809 228.585 386.809V391.114ZM235.422 384.317V366.976H231.116V384.317H235.422ZM244.417 366.976V364.823H242.264V366.976H244.417ZM253.591 366.976L255.583 366.162L255.036 364.823H253.591V366.976ZM260.248 383.272L258.256 384.086L258.802 385.424H260.248V383.272ZM260.597 383.272V385.424H262.042L262.589 384.086L260.597 383.272ZM267.254 366.976V364.823H265.808L265.262 366.162L267.254 366.976ZM276.428 366.976H278.581V364.823H276.428V366.976ZM276.428 395V397.153H278.581V395H276.428ZM269.228 395H267.076V397.153H269.228V395ZM269.228 378.511H271.381V376.358H269.228V378.511ZM268.996 378.511V376.358H267.528L266.992 377.725L268.996 378.511ZM262.609 394.806V396.959H264.078L264.614 395.592L262.609 394.806ZM258.197 394.806L256.189 395.583L256.721 396.959H258.197V394.806ZM251.849 378.394L253.856 377.618L253.324 376.242H251.849V378.394ZM251.616 378.394V376.242H249.464V378.394H251.616ZM251.616 395V397.153H253.769V395H251.616ZM244.417 395H242.264V397.153H244.417V395ZM244.417 369.128H253.591V364.823H244.417V369.128ZM251.598 367.79L258.256 384.086L262.241 382.457L255.583 366.162L251.598 367.79ZM260.248 385.424H260.597V381.119H260.248V385.424ZM262.589 384.086L269.247 367.79L265.262 366.162L258.604 382.457L262.589 384.086ZM267.254 369.128H276.428V364.823H267.254V369.128ZM274.275 366.976V395H278.581V366.976H274.275ZM276.428 392.847H269.228V397.153H276.428V392.847ZM271.381 395V378.511H267.076V395H271.381ZM269.228 376.358H268.996V380.663H269.228V376.358ZM266.992 377.725L260.605 394.021L264.614 395.592L271 379.296L266.992 377.725ZM262.609 392.654H258.197V396.959H262.609V392.654ZM260.204 394.03L253.856 377.618L249.841 379.171L256.189 395.583L260.204 394.03ZM251.849 376.242H251.616V380.547H251.849V376.242ZM249.464 378.394V395H253.769V378.394H249.464ZM251.616 392.847H244.417V397.153H251.616V392.847ZM246.569 395V366.976H242.264V395H246.569Z" fill="#0075FF" mask="url(#path-13-outside-1_108_776)"/>
<g clip-path="url(#clip0_108_776)">
<path d="M286.019 371.854C286.019 380.058 292.669 386.708 300.873 386.708L300.873 357C292.669 357 286.019 363.65 286.019 371.854Z" fill="#0075FF"/>
</g>
<rect x="286.657" y="357.639" width="28.4306" height="28.4305" rx="14.2153" stroke="#0075FF" stroke-width="1.27744"/>
<rect x="170" y="40" width="74" height="20" rx="10" fill="black"/>
<rect x="137" y="841" width="140" height="6" rx="3" fill="black"/>
<defs>
<clipPath id="clip0_108_776">
<rect x="286.019" y="357" width="29.708" height="29.708" rx="14.854" fill="white"/>
</clipPath>
</defs>
</svg>
