<svg width="414" height="868" viewBox="0 0 414 868" fill="none" xmlns="http://www.w3.org/2000/svg">
<rect x="6" y="6" width="402" height="856" rx="66" fill="white"/>
<rect x="6" y="6" width="402" height="856" rx="66" stroke="black" stroke-width="12"/>
<path d="M64.1963 43.8145C66.4043 43.8311 68.7202 45.1592 68.7285 49.5586C68.7285 53.7754 66.9106 56.166 64.0303 56.166C61.814 56.166 60.27 54.7964 59.9795 52.8457H61.7891C62.0381 53.8584 62.8184 54.564 64.0303 54.5723C65.8813 54.564 66.9688 52.9536 66.9854 50.2061H66.8359C66.1885 51.2188 65.0596 51.833 63.7646 51.833C61.6064 51.833 59.8799 50.1812 59.8799 47.8818C59.8799 45.5908 61.5815 43.7979 64.1963 43.8145ZM61.6562 47.8486C61.6646 49.2432 62.7021 50.3472 64.1631 50.3389C65.6157 50.3472 66.7363 49.1602 66.7363 47.832C66.7363 46.5288 65.6655 45.3418 64.1963 45.3418C62.7437 45.3418 61.6479 46.4707 61.6562 47.8486ZM71.153 54.4561C70.5055 54.4478 69.966 53.9248 69.9743 53.2773C69.966 52.6299 70.5055 52.0986 71.153 52.0986C71.7922 52.0986 72.3234 52.6299 72.3317 53.2773C72.3234 53.9248 71.7922 54.4478 71.153 54.4561ZM69.9743 46.7197C69.966 46.0723 70.5055 45.541 71.153 45.541C71.7922 45.541 72.3234 46.0723 72.3317 46.7197C72.3234 47.3672 71.7922 47.8901 71.153 47.8984C70.5055 47.8901 69.966 47.3672 69.9743 46.7197ZM73.5111 53.6592V52.1816L78.8236 43.9805H81.0814V52.1152H82.725V53.6592H81.0814V56H79.3548V53.6592H73.5111ZM75.4369 52.1152H79.3548V46.1553H79.222L75.4369 52.0156V52.1152ZM88.2871 43.9805V56H86.4444V45.8066H86.378L83.5059 47.6826V45.9395L86.4942 43.9805H88.2871Z" fill="black"/>
<rect x="318.35" y="43" width="3.2" height="12" rx="1" fill="black"/>
<rect x="313.05" y="45.4004" width="3.2" height="9.6" rx="1" fill="black"/>
<rect x="307.75" y="48" width="3.2" height="7" rx="1" fill="black"/>
<rect x="302.45" y="50.4004" width="3.2" height="4.6" rx="1" fill="black"/>
<path d="M336.008 51.1338C336.711 51.1338 337.395 51.3186 337.997 51.6711L338.241 51.8139C338.426 51.9222 338.458 52.1756 338.307 52.3268L336.223 54.4045C336.095 54.5322 335.888 54.5322 335.76 54.4045L333.69 52.3402C333.539 52.1896 333.57 51.9375 333.754 51.8284L333.995 51.685C334.603 51.3236 335.295 51.1338 336.008 51.1338Z" fill="black"/>
<path d="M336.008 47.3164C337.758 47.3164 339.438 47.8969 340.806 48.972L341 49.1239C341.154 49.245 341.168 49.4733 341.029 49.6117L339.785 50.8521C339.67 50.9668 339.488 50.98 339.357 50.8831L339.206 50.7704C338.281 50.0833 337.167 49.7148 336.008 49.7148C334.841 49.7148 333.72 50.0879 332.793 50.7828L332.641 50.8966C332.511 50.9943 332.328 50.9814 332.212 50.8664L330.969 49.6264C330.831 49.4883 330.844 49.2606 330.997 49.1393L331.19 48.9872C332.561 47.9026 334.249 47.3164 336.008 47.3164Z" fill="black"/>
<path d="M336.008 43.5C338.785 43.5 341.441 44.4796 343.543 46.2752L343.723 46.4285C343.868 46.5524 343.876 46.7731 343.741 46.9078L342.501 48.1441C342.381 48.2639 342.189 48.2723 342.059 48.1635L341.906 48.0351C340.25 46.6512 338.176 45.8984 336.008 45.8984C333.833 45.8984 331.752 46.6564 330.094 48.049L329.941 48.178C329.81 48.2873 329.618 48.2791 329.498 48.1591L328.258 46.9229C328.123 46.7885 328.132 46.5681 328.276 46.4441L328.455 46.2908C330.56 44.4855 333.223 43.5 336.008 43.5Z" fill="black"/>
<rect x="352" y="44.5" width="21" height="9" rx="1.33" fill="black"/>
<path opacity="0.4" fill-rule="evenodd" clip-rule="evenodd" d="M355.6 43.5H369.4C370.397 43.5 371.084 43.5008 371.617 43.5444C372.139 43.587 372.425 43.6655 372.635 43.7725C373.105 44.0122 373.488 44.3946 373.728 44.865C373.834 45.0749 373.913 45.3608 373.956 45.8826C373.999 46.4161 374 47.1034 374 48.1V49.9C374 50.8966 373.999 51.5839 373.956 52.1174C373.913 52.6392 373.834 52.9251 373.728 53.135C373.488 53.6054 373.105 53.9878 372.635 54.2275C372.425 54.3345 372.139 54.413 371.617 54.4556C371.084 54.4992 370.397 54.5 369.4 54.5H355.6C354.603 54.5 353.916 54.4992 353.383 54.4556C352.861 54.413 352.575 54.3345 352.365 54.2275C351.895 53.9878 351.512 53.6054 351.272 53.135C351.166 52.9251 351.087 52.6392 351.044 52.1174C351.001 51.5839 351 50.8966 351 49.9V48.1C351 47.1034 351.001 46.4161 351.044 45.8826C351.087 45.3608 351.166 45.0749 351.272 44.865C351.512 44.3946 351.895 44.0122 352.365 43.7725C352.575 43.6655 352.861 43.587 353.383 43.5444C353.916 43.5008 354.603 43.5 355.6 43.5ZM350 48.1C350 46.1398 350 45.1597 350.381 44.411C350.717 43.7525 351.252 43.217 351.911 42.8815C352.66 42.5 353.64 42.5 355.6 42.5H369.4C371.36 42.5 372.34 42.5 373.089 42.8815C373.748 43.217 374.283 43.7525 374.619 44.411C375 45.1597 375 46.1398 375 48.1V49.9C375 51.8602 375 52.8403 374.619 53.589C374.283 54.2475 373.748 54.783 373.089 55.1185C372.34 55.5 371.36 55.5 369.4 55.5H355.6C353.64 55.5 352.66 55.5 351.911 55.1185C351.252 54.783 350.717 54.2475 350.381 53.589C350 52.8403 350 51.8602 350 49.9V48.1ZM376 51C376.828 50.8 377.5 50.1046 377.5 49C377.5 47.8954 376.828 47.2 376 47L376 49L376 51Z" fill="black"/>
<path d="M114.951 375.646C114.873 374.678 114.512 373.943 113.867 373.44C113.222 372.924 112.28 372.666 111.041 372.666C109.854 372.666 108.964 372.879 108.37 373.304C107.777 373.717 107.48 374.278 107.48 374.988C107.48 375.672 107.796 376.227 108.428 376.653C109.061 377.065 110.035 377.414 111.351 377.698L113.673 378.24C116.641 378.872 118.834 379.904 120.254 381.336C121.673 382.755 122.395 384.562 122.421 386.755C122.408 388.575 121.95 390.129 121.047 391.42C120.144 392.697 118.847 393.671 117.157 394.342C115.467 395.013 113.441 395.348 111.08 395.348C107.351 395.348 104.429 394.51 102.313 392.832C100.197 391.155 99.1192 388.639 99.0805 385.284H106.125C106.177 386.562 106.629 387.549 107.48 388.246C108.332 388.929 109.493 389.271 110.964 389.271C112.19 389.271 113.138 389.045 113.809 388.594C114.493 388.129 114.847 387.517 114.873 386.755C114.847 386.071 114.512 385.517 113.867 385.091C113.235 384.665 112.138 384.278 110.577 383.93L107.751 383.31C102.461 382.149 99.816 379.53 99.816 375.453C99.8031 373.711 100.274 372.169 101.229 370.827C102.184 369.485 103.513 368.447 105.216 367.711C106.919 366.963 108.861 366.589 111.041 366.589C113.26 366.589 115.196 366.963 116.847 367.711C118.499 368.459 119.77 369.517 120.66 370.885C121.563 372.253 122.021 373.84 122.034 375.646H114.951ZM149.478 366.976V384.975C149.478 387.065 148.975 388.897 147.968 390.471C146.975 392.032 145.568 393.239 143.749 394.09C141.93 394.929 139.827 395.348 137.44 395.348C135.053 395.348 132.95 394.929 131.13 394.09C129.324 393.239 127.924 392.032 126.931 390.471C125.937 388.897 125.44 387.065 125.44 384.975V366.976H132.795V384.317C132.795 385.207 132.995 386.007 133.395 386.717C133.795 387.413 134.343 387.962 135.04 388.362C135.75 388.762 136.55 388.962 137.44 388.962C138.343 388.962 139.149 388.768 139.859 388.381C140.569 387.981 141.124 387.426 141.524 386.717C141.923 386.007 142.123 385.207 142.123 384.317V366.976H149.478ZM162.445 366.976L169.103 383.272H169.451L176.109 366.976H185.283V395H178.083V378.511H177.851L171.464 394.806H167.051L160.703 378.394H160.471V395H153.271V366.976H162.445Z" fill="#0075FF"/>
<mask id="path-13-outside-1_108_776" maskUnits="userSpaceOnUse" x="185.958" y="364" width="92" height="34" fill="black">
<rect fill="white" x="185.958" y="364" width="92" height="34"/>
<path d="M204.951 375.646C204.873 374.678 204.512 373.943 203.867 373.44C203.222 372.924 202.28 372.666 201.041 372.666C199.854 372.666 198.964 372.879 198.37 373.304C197.777 373.717 197.48 374.278 197.48 374.988C197.48 375.672 197.796 376.227 198.428 376.653C199.061 377.065 200.035 377.414 201.351 377.698L203.673 378.24C206.641 378.872 208.834 379.904 210.254 381.336C211.673 382.755 212.395 384.562 212.421 386.755C212.408 388.575 211.95 390.129 211.047 391.42C210.144 392.697 208.847 393.671 207.157 394.342C205.467 395.013 203.441 395.348 201.08 395.348C197.351 395.348 194.429 394.51 192.313 392.832C190.197 391.155 189.119 388.639 189.081 385.284H196.125C196.177 386.562 196.629 387.549 197.48 388.246C198.332 388.929 199.493 389.271 200.964 389.271C202.19 389.271 203.138 389.045 203.809 388.594C204.493 388.129 204.847 387.517 204.873 386.755C204.847 386.071 204.512 385.517 203.867 385.091C203.235 384.665 202.138 384.278 200.577 383.93L197.751 383.31C192.461 382.149 189.816 379.53 189.816 375.453C189.803 373.711 190.274 372.169 191.229 370.827C192.184 369.485 193.513 368.447 195.216 367.711C196.919 366.963 198.861 366.589 201.041 366.589C203.26 366.589 205.196 366.963 206.847 367.711C208.499 368.459 209.77 369.517 210.66 370.885C211.563 372.253 212.021 373.84 212.034 375.646H204.951ZM239.478 366.976V384.975C239.478 387.065 238.975 388.897 237.968 390.471C236.975 392.032 235.568 393.239 233.749 394.09C231.93 394.929 229.827 395.348 227.44 395.348C225.053 395.348 222.95 394.929 221.13 394.09C219.324 393.239 217.924 392.032 216.931 390.471C215.937 388.897 215.44 387.065 215.44 384.975V366.976H222.795V384.317C222.795 385.207 222.995 386.007 223.395 386.717C223.795 387.413 224.343 387.962 225.04 388.362C225.75 388.762 226.55 388.962 227.44 388.962C228.343 388.962 229.149 388.768 229.859 388.381C230.569 387.981 231.124 387.426 231.524 386.717C231.923 386.007 232.123 385.207 232.123 384.317V366.976H239.478ZM252.445 366.976L259.103 383.272H259.451L266.109 366.976H275.283V395H268.083V378.511H267.851L261.464 394.806H257.051L250.703 378.394H250.471V395H243.271V366.976H252.445Z"/>
</mask>
<path d="M204.951 375.646L202.805 375.818L202.963 377.799H204.951V375.646ZM203.867 373.44L202.522 375.121L202.532 375.129L202.543 375.137L203.867 373.44ZM198.37 373.304L199.6 375.071L199.612 375.063L199.625 375.053L198.37 373.304ZM198.428 376.653L197.226 378.438L197.239 378.447L197.251 378.455L198.428 376.653ZM201.351 377.698L201.84 375.601L201.822 375.597L201.805 375.593L201.351 377.698ZM203.673 378.24L203.184 380.336L203.204 380.341L203.225 380.345L203.673 378.24ZM210.254 381.336L208.725 382.851L208.732 382.858L210.254 381.336ZM212.421 386.755L214.574 386.771L214.574 386.75L214.574 386.73L212.421 386.755ZM211.047 391.42L212.805 392.662L212.811 392.654L211.047 391.42ZM207.157 394.342L207.951 396.343L207.157 394.342ZM189.081 385.284V383.132H186.903L186.928 385.309L189.081 385.284ZM196.125 385.284L198.276 385.197L198.193 383.132H196.125V385.284ZM197.48 388.246L196.117 389.912L196.125 389.918L196.132 389.924L197.48 388.246ZM203.809 388.594L205.011 390.38L205.018 390.375L203.809 388.594ZM204.873 386.755L207.025 386.828L207.027 386.751L207.024 386.674L204.873 386.755ZM203.867 385.091L202.664 386.876L202.673 386.882L202.681 386.887L203.867 385.091ZM200.577 383.93L201.046 381.829L201.038 381.827L200.577 383.93ZM197.751 383.31L197.29 385.413L197.29 385.413L197.751 383.31ZM189.816 375.453H191.969V375.445L191.969 375.437L189.816 375.453ZM191.229 370.827L189.475 369.579L191.229 370.827ZM195.216 367.711L196.069 369.687L196.082 369.682L195.216 367.711ZM210.66 370.885L208.856 372.059L208.86 372.065L208.864 372.071L210.66 370.885ZM212.034 375.646V377.799H214.202L214.187 375.631L212.034 375.646ZM207.096 375.474C206.981 374.028 206.4 372.686 205.191 371.742L202.543 375.137C202.624 375.2 202.766 375.329 202.805 375.818L207.096 375.474ZM205.212 371.759C204.035 370.818 202.535 370.513 201.041 370.513V374.818C202.025 374.818 202.408 375.03 202.522 375.121L205.212 371.759ZM201.041 370.513C199.662 370.513 198.24 370.749 197.116 371.555L199.625 375.053C199.688 375.008 200.047 374.818 201.041 374.818V370.513ZM197.141 371.537C195.982 372.343 195.327 373.558 195.327 374.988H199.633C199.633 374.961 199.635 374.958 199.632 374.973C199.628 374.989 199.62 375.014 199.606 375.041C199.591 375.068 199.577 375.086 199.57 375.094C199.564 375.101 199.57 375.092 199.6 375.071L197.141 371.537ZM195.327 374.988C195.327 376.479 196.08 377.666 197.226 378.438L199.631 374.867C199.583 374.835 199.564 374.815 199.561 374.813C199.559 374.811 199.571 374.823 199.588 374.851C199.604 374.88 199.617 374.913 199.625 374.945C199.633 374.975 199.633 374.992 199.633 374.988H195.327ZM197.251 378.455C198.213 379.083 199.493 379.499 200.897 379.802L201.805 375.593C200.577 375.329 199.908 375.048 199.605 374.85L197.251 378.455ZM200.862 379.794L203.184 380.336L204.162 376.143L201.84 375.601L200.862 379.794ZM203.225 380.345C205.976 380.931 207.714 381.832 208.725 382.851L211.783 379.821C209.954 377.976 207.306 376.813 204.122 376.134L203.225 380.345ZM208.732 382.858C209.715 383.841 210.249 385.092 210.269 386.781L214.574 386.73C214.542 384.032 213.631 381.67 211.776 379.814L208.732 382.858ZM210.269 386.74C210.258 388.193 209.899 389.306 209.284 390.185L212.811 392.654C214.001 390.953 214.558 388.956 214.574 386.771L210.269 386.74ZM209.29 390.177C208.664 391.061 207.73 391.799 206.363 392.341L207.951 396.343C209.965 395.543 211.624 394.333 212.805 392.662L209.29 390.177ZM206.363 392.341C204.988 392.887 203.246 393.196 201.08 393.196V397.501C203.636 397.501 205.945 397.139 207.951 396.343L206.363 392.341ZM201.08 393.196C197.654 393.196 195.263 392.425 193.65 391.145L190.975 394.519C193.594 396.595 197.048 397.501 201.08 397.501V393.196ZM193.65 391.145C192.163 389.967 191.266 388.138 191.233 385.26L186.928 385.309C186.972 389.14 188.23 392.343 190.975 394.519L193.65 391.145ZM189.081 387.437H196.125V383.132H189.081V387.437ZM193.974 385.371C194.046 387.154 194.71 388.761 196.117 389.912L198.843 386.579C198.547 386.337 198.307 385.97 198.276 385.197L193.974 385.371ZM196.132 389.924C197.48 391.006 199.172 391.424 200.964 391.424V387.119C199.813 387.119 199.183 386.852 198.828 386.567L196.132 389.924ZM200.964 391.424C202.411 391.424 203.845 391.164 205.011 390.38L202.607 386.808C202.431 386.927 201.968 387.119 200.964 387.119V391.424ZM205.018 390.375C206.214 389.562 206.973 388.342 207.025 386.828L202.722 386.682C202.721 386.714 202.717 386.726 202.718 386.724C202.719 386.72 202.721 386.713 202.725 386.707C202.735 386.69 202.718 386.733 202.599 386.813L205.018 390.375ZM207.024 386.674C206.969 385.198 206.191 384.045 205.053 383.294L202.681 386.887C202.735 386.923 202.761 386.947 202.771 386.956C202.779 386.965 202.772 386.96 202.76 386.94C202.748 386.92 202.737 386.895 202.729 386.869C202.722 386.844 202.722 386.831 202.722 386.836L207.024 386.674ZM205.069 383.305C204.081 382.64 202.645 382.186 201.046 381.829L200.108 386.031C201.631 386.37 202.388 386.69 202.664 386.876L205.069 383.305ZM201.038 381.827L198.212 381.208L197.29 385.413L200.116 386.032L201.038 381.827ZM198.213 381.208C195.795 380.677 194.244 379.866 193.314 378.945C192.441 378.081 191.969 376.977 191.969 375.453H187.663C187.663 378.005 188.513 380.25 190.285 382.005C192.001 383.703 194.417 384.782 197.29 385.413L198.213 381.208ZM191.969 375.437C191.959 374.12 192.306 373.026 192.983 372.075L189.475 369.579C188.242 371.312 187.647 373.302 187.663 375.469L191.969 375.437ZM192.983 372.075C193.682 371.093 194.68 370.287 196.069 369.687L194.362 365.735C192.345 366.606 190.686 367.878 189.475 369.579L192.983 372.075ZM196.082 369.682C197.469 369.072 199.108 368.741 201.041 368.741V364.436C198.613 364.436 196.369 364.853 194.35 365.74L196.082 369.682ZM201.041 368.741C203.021 368.741 204.642 369.075 205.959 369.672L207.736 365.75C205.75 364.851 203.5 364.436 201.041 364.436V368.741ZM205.959 369.672C207.279 370.27 208.214 371.073 208.856 372.059L212.464 369.711C211.325 367.962 209.718 366.649 207.736 365.75L205.959 369.672ZM208.864 372.071C209.514 373.056 209.871 374.228 209.882 375.662L214.187 375.631C214.171 373.452 213.612 371.449 212.456 369.699L208.864 372.071ZM212.034 373.494H204.951V377.799H212.034V373.494ZM239.478 366.976H241.631V364.823H239.478V366.976ZM237.968 390.471L236.155 389.312L236.152 389.316L237.968 390.471ZM233.749 394.09L234.65 396.045L234.662 396.04L233.749 394.09ZM221.13 394.09L220.213 396.037L220.221 396.041L220.229 396.045L221.13 394.09ZM216.931 390.471L215.11 391.62L215.115 391.627L216.931 390.471ZM215.44 366.976V364.823H213.288V366.976H215.44ZM222.795 366.976H224.948V364.823H222.795V366.976ZM223.395 386.717L221.52 387.774L221.524 387.781L221.528 387.788L223.395 386.717ZM225.04 388.362L223.968 390.228L223.976 390.233L223.983 390.237L225.04 388.362ZM229.859 388.381L230.89 390.271L230.903 390.264L230.916 390.256L229.859 388.381ZM232.123 366.976V364.823H229.971V366.976H232.123ZM237.325 366.976V384.975H241.631V366.976H237.325ZM237.325 384.975C237.325 386.704 236.914 388.124 236.155 389.312L239.782 391.631C241.035 389.67 241.631 387.426 241.631 384.975H237.325ZM236.152 389.316C235.397 390.502 234.318 391.447 232.837 392.141L234.662 396.04C236.819 395.03 238.553 393.563 239.784 391.627L236.152 389.316ZM232.848 392.135C231.36 392.821 229.574 393.196 227.44 393.196V397.501C230.079 397.501 232.5 397.037 234.65 396.045L232.848 392.135ZM227.44 393.196C225.305 393.196 223.519 392.821 222.032 392.135L220.229 396.045C222.38 397.037 224.801 397.501 227.44 397.501V393.196ZM222.048 392.143C220.58 391.451 219.504 390.506 218.747 389.316L215.115 391.627C216.344 393.559 218.068 395.027 220.213 396.037L222.048 392.143ZM218.751 389.322C218.001 388.133 217.593 386.71 217.593 384.975H213.288C213.288 387.42 213.874 389.661 215.11 391.62L218.751 389.322ZM217.593 384.975V366.976H213.288V384.975H217.593ZM215.44 369.128H222.795V364.823H215.44V369.128ZM220.642 366.976V384.317H224.948V366.976H220.642ZM220.642 384.317C220.642 385.542 220.921 386.712 221.52 387.774L225.27 385.66C225.069 385.302 224.948 384.872 224.948 384.317H220.642ZM221.528 387.788C222.118 388.816 222.941 389.639 223.968 390.228L226.112 386.495C225.746 386.285 225.472 386.011 225.262 385.645L221.528 387.788ZM223.983 390.237C225.045 390.835 226.215 391.114 227.44 391.114V386.809C226.885 386.809 226.455 386.688 226.097 386.486L223.983 390.237ZM227.44 391.114C228.66 391.114 229.828 390.85 230.89 390.271L228.828 386.491C228.471 386.686 228.026 386.809 227.44 386.809V391.114ZM230.916 390.256C231.968 389.663 232.806 388.825 233.399 387.774L229.648 385.66C229.441 386.027 229.169 386.299 228.802 386.506L230.916 390.256ZM233.399 387.774C233.997 386.712 234.276 385.542 234.276 384.317H229.971C229.971 384.872 229.85 385.302 229.648 385.66L233.399 387.774ZM234.276 384.317V366.976H229.971V384.317H234.276ZM232.123 369.128H239.478V364.823H232.123V369.128ZM252.445 366.976L254.438 366.162L253.891 364.823H252.445V366.976ZM259.103 383.272L257.11 384.086L257.657 385.424H259.103V383.272ZM259.451 383.272V385.424H260.897L261.444 384.086L259.451 383.272ZM266.109 366.976V364.823H264.663L264.116 366.162L266.109 366.976ZM275.283 366.976H277.435V364.823H275.283V366.976ZM275.283 395V397.153H277.435V395H275.283ZM268.083 395H265.93V397.153H268.083V395ZM268.083 378.511H270.236V376.358H268.083V378.511ZM267.851 378.511V376.358H266.382L265.846 377.725L267.851 378.511ZM261.464 394.806V396.959H262.932L263.468 395.592L261.464 394.806ZM257.051 394.806L255.044 395.583L255.576 396.959H257.051V394.806ZM250.703 378.394L252.711 377.618L252.179 376.242H250.703V378.394ZM250.471 378.394V376.242H248.318V378.394H250.471ZM250.471 395V397.153H252.624V395H250.471ZM243.271 395H241.119V397.153H243.271V395ZM243.271 366.976V364.823H241.119V366.976H243.271ZM250.452 367.79L257.11 384.086L261.095 382.457L254.438 366.162L250.452 367.79ZM259.103 385.424H259.451V381.119H259.103V385.424ZM261.444 384.086L268.102 367.79L264.116 366.162L257.458 382.457L261.444 384.086ZM266.109 369.128H275.283V364.823H266.109V369.128ZM273.13 366.976V395H277.435V366.976H273.13ZM275.283 392.847H268.083V397.153H275.283V392.847ZM270.236 395V378.511H265.93V395H270.236ZM268.083 376.358H267.851V380.663H268.083V376.358ZM265.846 377.725L259.46 394.021L263.468 395.592L269.855 379.296L265.846 377.725ZM261.464 392.654H257.051V396.959H261.464V392.654ZM259.059 394.03L252.711 377.618L248.696 379.171L255.044 395.583L259.059 394.03ZM250.703 376.242H250.471V380.547H250.703V376.242ZM248.318 378.394V395H252.624V378.394H248.318ZM250.471 392.847H243.271V397.153H250.471V392.847ZM245.424 395V366.976H241.119V395H245.424ZM243.271 369.128H252.445V364.823H243.271V369.128Z" fill="#0075FF" mask="url(#path-13-outside-1_108_776)"/>
<path fill-rule="evenodd" clip-rule="evenodd" d="M300.873 389C309.71 389 316.873 381.837 316.873 373C316.873 364.163 309.71 357 300.873 357C292.036 357 284.873 364.163 284.873 373C284.873 381.837 292.036 389 300.873 389ZM303.374 369C303.374 368.172 304.046 367.5 304.874 367.5C305.702 367.5 306.374 368.172 306.374 369C306.374 369.828 305.702 370.5 304.874 370.5H295.874C295.598 370.5 295.374 370.724 295.374 371C295.374 371.276 295.598 371.5 295.874 371.5H304.874C306.255 371.5 307.374 370.381 307.374 369C307.374 367.619 306.255 366.5 304.874 366.5C303.493 366.5 302.374 367.619 302.374 369C302.374 369.276 302.598 369.5 302.874 369.5C303.15 369.5 303.374 369.276 303.374 369ZM307.874 377.5C307.046 377.5 306.374 376.828 306.374 376C306.374 375.724 306.15 375.5 305.874 375.5C305.598 375.5 305.374 375.724 305.374 376C305.374 377.381 306.493 378.5 307.874 378.5C309.255 378.5 310.374 377.381 310.374 376C310.374 374.619 309.255 373.5 307.874 373.5H291.874C291.598 373.5 291.374 373.724 291.374 374C291.374 374.276 291.598 374.5 291.874 374.5H307.874C308.702 374.5 309.374 375.172 309.374 376C309.374 376.828 308.702 377.5 307.874 377.5ZM293.874 377C293.598 377 293.374 377.224 293.374 377.5C293.374 377.776 293.598 378 293.874 378H303.874C304.15 378 304.374 377.776 304.374 377.5C304.374 377.224 304.15 377 303.874 377H293.874Z" fill="#0075FF"/>
<rect x="170" y="40" width="74" height="20" rx="10" fill="black"/>
<rect x="137" y="841" width="140" height="6" rx="3" fill="black"/>
</svg>
