<svg width="398" height="88" viewBox="0 0 398 88" fill="none" xmlns="http://www.w3.org/2000/svg">
<path d="M32.1776 34.0364C31.8899 30.5479 29.5882 28.462 24.913 28.498C20.4175 28.462 18.3316 30.2602 18.2957 32.6698C18.1878 35.3671 20.6333 36.8416 25.4884 37.8485L29.804 38.8555C40.9887 41.2291 45.9876 46.6596 46.0596 54.6795C45.9876 64.8932 38.1476 70.6114 24.9849 70.6473C11.5345 70.6114 2.79534 64.7853 2.68745 51.9463H15.7782C15.994 56.8014 19.3386 59.3548 24.7691 59.3548C29.4803 59.3548 31.9978 57.4487 32.0338 54.6795C31.9978 52.1621 29.84 50.6875 24.0498 49.4288L18.7991 48.278C9.62843 46.264 4.0181 41.7326 4.05407 33.6768C3.98214 23.8227 12.6853 17.2054 24.913 17.2054C37.3923 17.2054 45.2684 23.9306 45.3403 34.0364H32.1776ZM82.6705 17.9247H96.3367V51.3709C96.3726 63.1669 87.3098 70.6114 73.9673 70.6473C60.5888 70.6114 51.6339 63.1669 51.6699 51.3709V17.9247H65.336V50.1481C65.336 55.183 68.9324 58.7794 73.9673 58.7794C79.0741 58.7794 82.6345 55.183 82.6705 50.1481V17.9247ZM103.386 17.9247H120.432L132.804 48.2061H133.451L145.823 17.9247H162.869V70H149.491V39.359H149.059L137.191 69.6404H128.992L117.196 39.1432H116.764V70H103.386V17.9247Z" fill="white"/>
<mask id="path-2-outside-1_132_1222" maskUnits="userSpaceOnUse" x="166.602" y="15" width="165" height="58" fill="black">
<rect fill="white" x="166.602" y="15" width="165" height="58"/>
<path d="M198.178 34.0364C197.89 30.5479 195.588 28.462 190.913 28.498C186.418 28.462 184.332 30.2602 184.296 32.6698C184.188 35.3671 186.633 36.8416 191.488 37.8485L195.804 38.8555C206.989 41.2291 211.988 46.6596 212.06 54.6795C211.988 64.8932 204.148 70.6114 190.985 70.6473C177.534 70.6114 168.795 64.7853 168.687 51.9463H181.778C181.994 56.8014 185.339 59.3548 190.769 59.3548C195.48 59.3548 197.998 57.4487 198.034 54.6795C197.998 52.1621 195.84 50.6875 190.05 49.4288L184.799 48.278C175.628 46.264 170.018 41.7326 170.054 33.6768C169.982 23.8227 178.685 17.2054 190.913 17.2054C203.392 17.2054 211.268 23.9306 211.34 34.0364H198.178ZM248.671 17.9247H262.337V51.3709C262.373 63.1669 253.31 70.6114 239.967 70.6473C226.589 70.6114 217.634 63.1669 217.67 51.3709V17.9247H231.336V50.1481C231.336 55.183 234.932 58.7794 239.967 58.7794C245.074 58.7794 248.635 55.183 248.671 50.1481V17.9247ZM269.386 17.9247H286.432L298.804 48.2061H299.451L311.823 17.9247H328.869V70H315.491V39.359H315.059L303.191 69.6404H294.992L283.196 39.1432H282.764V70H269.386V17.9247Z"/>
</mask>
<path d="M198.178 34.0364L196.16 34.2028L196.314 36.0605H198.178V34.0364ZM190.913 28.498L190.897 30.522L190.913 30.5221L190.929 30.522L190.913 28.498ZM184.296 32.6698L186.318 32.7507L186.319 32.7253L186.319 32.7L184.296 32.6698ZM191.488 37.8485L191.948 35.8774L191.924 35.8717L191.899 35.8667L191.488 37.8485ZM195.804 38.8555L195.344 40.8266L195.364 40.8313L195.384 40.8355L195.804 38.8555ZM212.06 54.6795L214.084 54.6938L214.084 54.6776L214.084 54.6614L212.06 54.6795ZM190.985 70.6473L190.979 72.6714L190.99 72.6714L190.985 70.6473ZM168.687 51.9463V49.9222H166.646L166.663 51.9633L168.687 51.9463ZM181.778 51.9463L183.8 51.8564L183.714 49.9222H181.778V51.9463ZM198.034 54.6795L200.058 54.7058L200.058 54.6782L200.058 54.6506L198.034 54.6795ZM190.05 49.4288L189.616 51.406L189.62 51.4067L190.05 49.4288ZM184.799 48.278L184.365 50.2549L184.366 50.2551L184.799 48.278ZM170.054 33.6768L172.078 33.6858L172.078 33.6739L172.078 33.662L170.054 33.6768ZM211.34 34.0364V36.0605H213.379L213.364 34.022L211.34 34.0364ZM200.195 33.87C200.016 31.6996 199.177 29.7372 197.452 28.3627C195.77 27.0221 193.511 26.4539 190.897 26.474L190.929 30.522C192.99 30.5061 194.22 30.9629 194.929 31.5284C195.596 32.0599 196.052 32.8847 196.16 34.2028L200.195 33.87ZM190.929 26.474C188.447 26.4541 186.34 26.9325 184.787 27.9977C183.154 29.1179 182.3 30.7828 182.272 32.6396L186.319 32.7C186.328 32.1472 186.534 31.7082 187.077 31.3359C187.7 30.9087 188.883 30.5059 190.897 30.522L190.929 26.474ZM182.273 32.5889C182.187 34.7342 183.196 36.3956 184.881 37.5588C186.431 38.6287 188.586 39.3137 191.077 39.8304L191.899 35.8667C189.536 35.3764 188.04 34.8206 187.181 34.2273C186.456 33.7272 186.296 33.3026 186.318 32.7507L182.273 32.5889ZM191.028 39.8197L195.344 40.8266L196.264 36.8844L191.948 35.8774L191.028 39.8197ZM195.384 40.8355C200.757 41.9759 204.387 43.8001 206.668 46.0814C208.9 48.3131 210.004 51.1432 210.036 54.6977L214.084 54.6614C214.043 50.196 212.612 46.3008 209.53 43.2189C206.498 40.1866 202.035 38.1088 196.224 36.8755L195.384 40.8355ZM210.036 54.6653C210.004 59.1955 208.283 62.5614 205.217 64.8608C202.073 67.2188 197.306 68.606 190.979 68.6233L190.99 72.6714C197.827 72.6527 203.561 71.1628 207.646 68.0993C211.808 64.9772 214.044 60.3772 214.084 54.6938L210.036 54.6653ZM190.99 68.6233C184.515 68.606 179.479 67.1899 176.088 64.5099C172.773 61.8906 170.761 57.8515 170.711 51.9293L166.663 51.9633C166.722 58.8801 169.133 64.1735 173.578 67.686C177.946 71.1378 184.005 72.6528 190.979 72.6714L190.99 68.6233ZM168.687 53.9703H181.778V49.9222H168.687V53.9703ZM179.756 52.0361C179.885 54.9431 180.981 57.3775 183.046 59.0459C185.063 60.6743 187.763 61.3788 190.769 61.3788V57.3307C188.344 57.3307 186.657 56.7586 185.59 55.8965C184.572 55.0744 183.887 53.8046 183.8 51.8564L179.756 52.0361ZM190.769 61.3788C193.361 61.3788 195.612 60.8599 197.285 59.7349C199.033 58.5587 200.031 56.7851 200.058 54.7058L196.01 54.6532C196.001 55.3431 195.722 55.9072 195.025 56.3762C194.251 56.8966 192.888 57.3307 190.769 57.3307V61.3788ZM200.058 54.6506C200.044 53.7203 199.83 52.8067 199.335 51.9562C198.846 51.1168 198.147 50.445 197.318 49.8953C195.719 48.8348 193.418 48.0898 190.48 47.451L189.62 51.4067C192.471 52.0266 194.145 52.6482 195.081 53.269C195.52 53.5599 195.729 53.8075 195.836 53.9919C195.937 54.1652 196.005 54.38 196.01 54.7084L200.058 54.6506ZM190.483 47.4517L185.232 46.3009L184.366 50.2551L189.616 51.406L190.483 47.4517ZM185.233 46.301C180.841 45.3364 177.538 43.8153 175.36 41.7682C173.247 39.7814 172.063 37.1819 172.078 33.6858L168.03 33.6677C168.01 38.2274 169.613 41.9216 172.588 44.7179C175.499 47.4541 179.587 49.2056 184.365 50.2549L185.233 46.301ZM172.078 33.662C172.047 29.3959 173.891 25.8608 177.117 23.341C180.382 20.7912 185.146 19.2295 190.913 19.2295V15.1814C184.453 15.1814 178.751 16.9283 174.625 20.1506C170.461 23.403 167.989 28.1036 168.03 33.6915L172.078 33.662ZM190.913 19.2295C196.804 19.2295 201.395 20.816 204.485 23.387C207.54 25.9297 209.284 29.5613 209.316 34.0508L213.364 34.022C213.324 28.4057 211.095 23.6218 207.074 20.2755C203.088 16.9575 197.502 15.1814 190.913 15.1814V19.2295ZM211.34 32.0123H198.178V36.0605H211.34V32.0123ZM248.671 17.9247V15.9006H246.646V17.9247H248.671ZM262.337 17.9247H264.361V15.9006H262.337V17.9247ZM262.337 51.3709H260.313L260.313 51.377L262.337 51.3709ZM239.967 70.6473L239.962 72.6714L239.973 72.6714L239.967 70.6473ZM217.67 51.3709L219.694 51.377V51.3709H217.67ZM217.67 17.9247V15.9006H215.646V17.9247H217.67ZM231.336 17.9247H233.36V15.9006H231.336V17.9247ZM248.671 50.1481L250.695 50.1625L250.695 50.1553V50.1481H248.671ZM248.671 19.9488H262.337V15.9006H248.671V19.9488ZM260.313 17.9247V51.3709H264.361V17.9247H260.313ZM260.313 51.377C260.329 56.7137 258.307 60.9447 254.858 63.877C251.374 66.8387 246.272 68.6063 239.962 68.6233L239.973 72.6714C247.005 72.6525 253.106 70.6798 257.48 66.9613C261.889 63.2133 264.38 57.8241 264.361 51.3647L260.313 51.377ZM239.973 68.6233C233.644 68.6063 228.563 66.8384 225.104 63.8807C221.678 60.9521 219.678 56.7217 219.694 51.377L215.646 51.3647C215.626 57.8161 218.085 63.2059 222.473 66.9575C226.827 70.6801 232.913 72.6525 239.962 72.6714L239.973 68.6233ZM219.694 51.3709V17.9247H215.646V51.3709H219.694ZM217.67 19.9488H231.336V15.9006H217.67V19.9488ZM229.312 17.9247V50.1481H233.36V17.9247H229.312ZM229.312 50.1481C229.312 56.3009 233.815 60.8034 239.967 60.8034V56.7553C236.05 56.7553 233.36 54.0651 233.36 50.1481H229.312ZM239.967 60.8034C243.01 60.8034 245.705 59.7237 247.65 57.7851C249.592 55.8481 250.673 53.1651 250.695 50.1625L246.646 50.1336C246.632 52.166 245.914 53.7986 244.791 54.9185C243.67 56.0369 242.032 56.7553 239.967 56.7553V60.8034ZM250.695 50.1481V17.9247H246.646V50.1481H250.695ZM269.386 17.9247V15.9006H267.361V17.9247H269.386ZM286.432 17.9247L288.306 17.1592L287.792 15.9006H286.432V17.9247ZM298.804 48.2061L296.93 48.9716L297.444 50.2301H298.804V48.2061ZM299.451 48.2061V50.2301H300.811L301.325 48.9716L299.451 48.2061ZM311.823 17.9247V15.9006H310.463L309.949 17.1592L311.823 17.9247ZM328.869 17.9247H330.893V15.9006H328.869V17.9247ZM328.869 70V72.0241H330.893V70H328.869ZM315.491 70H313.467V72.0241H315.491V70ZM315.491 39.359H317.515V37.3349H315.491V39.359ZM315.059 39.359V37.3349H313.679L313.175 38.6204L315.059 39.359ZM303.191 69.6404V71.6644H304.572L305.076 70.3789L303.191 69.6404ZM294.992 69.6404L293.104 70.3705L293.604 71.6644H294.992V69.6404ZM283.196 39.1432L285.083 38.4131L284.583 37.1192H283.196V39.1432ZM282.764 39.1432V37.1192H280.74V39.1432H282.764ZM282.764 70V72.0241H284.788V70H282.764ZM269.386 70H267.361V72.0241H269.386V70ZM269.386 19.9488H286.432V15.9006H269.386V19.9488ZM284.559 18.6902L296.93 48.9716L300.677 47.4405L288.306 17.1592L284.559 18.6902ZM298.804 50.2301H299.451V46.182H298.804V50.2301ZM301.325 48.9716L313.696 18.6902L309.949 17.1592L297.577 47.4405L301.325 48.9716ZM311.823 19.9488H328.869V15.9006H311.823V19.9488ZM326.845 17.9247V70H330.893V17.9247H326.845ZM328.869 67.9759H315.491V72.0241H328.869V67.9759ZM317.515 70V39.359H313.467V70H317.515ZM315.491 37.3349H315.059V41.3831H315.491V37.3349ZM313.175 38.6204L301.307 68.9018L305.076 70.3789L316.944 40.0976L313.175 38.6204ZM303.191 67.6163H294.992V71.6644H303.191V67.6163ZM296.879 68.9102L285.083 38.4131L281.308 39.8734L293.104 70.3705L296.879 68.9102ZM283.196 37.1192H282.764V41.1673H283.196V37.1192ZM280.74 39.1432V70H284.788V39.1432H280.74ZM282.764 67.9759H269.386V72.0241H282.764V67.9759ZM271.41 70V17.9247H267.361V70H271.41Z" fill="white" mask="url(#path-2-outside-1_132_1222)"/>
<path fill-rule="evenodd" clip-rule="evenodd" d="M371.451 52C385.811 52 397.451 40.3594 397.451 26C397.451 11.6406 385.811 0 371.451 0C357.092 0 345.451 11.6406 345.451 26C345.451 40.3594 357.092 52 371.451 52ZM375.514 19.5C375.514 18.1538 376.605 17.0625 377.951 17.0625C379.297 17.0625 380.389 18.1538 380.389 19.5C380.389 20.8462 379.297 21.9375 377.951 21.9375H363.326C362.877 21.9375 362.514 22.3013 362.514 22.75C362.514 23.1987 362.877 23.5625 363.326 23.5625H377.951C380.195 23.5625 382.014 21.7437 382.014 19.5C382.014 17.2563 380.195 15.4375 377.951 15.4375C375.708 15.4375 373.889 17.2563 373.889 19.5C373.889 19.9487 374.252 20.3125 374.701 20.3125C375.15 20.3125 375.514 19.9487 375.514 19.5ZM382.826 33.3125C381.48 33.3125 380.389 32.2212 380.389 30.875C380.389 30.4263 380.025 30.0625 379.576 30.0625C379.127 30.0625 378.764 30.4263 378.764 30.875C378.764 33.1187 380.583 34.9375 382.826 34.9375C385.07 34.9375 386.889 33.1187 386.889 30.875C386.889 28.6313 385.07 26.8125 382.826 26.8125H356.826C356.377 26.8125 356.014 27.1763 356.014 27.625C356.014 28.0737 356.377 28.4375 356.826 28.4375H382.826C384.172 28.4375 385.264 29.5288 385.264 30.875C385.264 32.2212 384.172 33.3125 382.826 33.3125ZM360.076 32.5C359.627 32.5 359.264 32.8638 359.264 33.3125C359.264 33.7612 359.627 34.125 360.076 34.125H376.326C376.775 34.125 377.139 33.7612 377.139 33.3125C377.139 32.8638 376.775 32.5 376.326 32.5H360.076Z" fill="white"/>
</svg>
